<svg width="500" height="440" viewBox="0 0 1429 1072" fill="none" xmlns="http://www.w3.org/2000/svg">
<path d="M95.0223 640.213C195.845 694.503 492.541 866.236 585.943 920.438C594.595 925.483 604.425 928.141 614.432 928.141C624.44 928.141 634.269 925.483 642.921 920.438L998.421 712.108C1012.55 703.837 1008.02 688.153 993.768 680.06L497.606 390.885C495.051 389.433 492.165 388.669 489.229 388.669C486.292 388.669 483.406 389.433 480.851 390.885L94.61 611.207C92.0541 612.682 89.9377 614.816 88.4797 617.387C87.0217 619.959 86.2751 622.874 86.3171 625.832C86.3591 628.789 87.1883 631.682 88.7188 634.211C90.2493 636.739 92.4255 638.811 95.0223 640.213Z" fill="#FA7564"/>
<path d="M623.783 462.997L564.058 494.087C561.775 495.379 559.859 497.239 558.495 499.489C557.13 501.738 556.363 504.303 556.266 506.936C556.168 509.569 556.745 512.184 557.939 514.529C559.134 516.875 560.907 518.872 563.088 520.331L704.778 609.643C706.295 610.594 707.989 611.225 709.756 611.498C711.524 611.77 713.328 611.679 715.059 611.228C716.79 610.777 718.412 609.978 719.826 608.877C721.24 607.776 722.417 606.398 723.286 604.825L757.658 546.989" fill="#56403D"/>
<path d="M950.289 314.162L471.263 17.7461C456.849 8.89081 438.773 19.9894 438.773 37.8476V346.218C438.72 349.524 439.505 352.789 441.054 355.71C442.603 358.631 444.867 361.113 447.634 362.925L958.441 679.502C966.18 684.284 975.838 678.292 975.838 668.728V361.745C975.972 352.298 973.697 342.973 969.227 334.648C964.757 326.324 958.24 319.273 950.289 314.162V314.162Z" fill="#6DE1FC"/>
<path d="M471.97 42.4999L935.56 328.687C940.628 331.925 944.786 336.4 947.639 341.688C950.491 346.977 951.946 352.904 951.864 358.91V589.449C951.864 599.13 942.105 605.193 934.174 600.366L461.474 309.206C459.655 308.059 458.158 306.469 457.127 304.584C456.095 302.699 455.562 300.583 455.578 298.435V52.6231C455.446 50.6494 455.855 48.6772 456.762 46.9181C457.668 45.1591 459.038 43.6797 460.723 42.639C462.408 41.5982 464.346 41.0353 466.327 41.0108C468.309 40.9863 470.26 41.5011 471.97 42.4999V42.4999Z" fill="#00275E"/>
<path d="M673.512 463.401C674.654 469.936 671.394 476.127 666.211 477.217C661.028 478.306 655.929 473.92 654.787 467.385C653.644 460.85 656.904 454.659 662.087 453.57C667.27 452.48 672.369 456.952 673.512 463.401Z" fill="#AB643C"/>
<path d="M486.453 228.315L493.302 223.232L501.109 234.534L499.869 251.249L498.375 281.988L490.201 287.968L476.729 276.037L465.144 269.758L471.993 264.705L484.141 269.938L489.271 272.838" fill="#EF680C"/>
<path d="M503.507 229.916L502.066 270.404C501.844 276.467 500.154 280.401 496.94 282.234C493.726 284.068 489.654 283.181 484.666 279.868C482.131 278.14 479.868 275.994 477.962 273.51C476.293 271.492 474.843 269.28 473.639 266.914L472.337 264.223L478.737 260.615C478.867 260.93 479.07 261.384 479.347 261.975C479.893 263.025 480.533 264.015 481.259 264.933C482.146 266.092 483.203 267.091 484.389 267.89C485.112 268.549 485.98 268.998 486.912 269.194C487.843 269.391 488.806 269.329 489.709 269.014C491.039 268.275 491.759 266.53 491.87 263.72L493.311 223.232L503.507 229.916Z" fill="#EF680C"/>
<path d="M541.33 254.401L558.653 326.331L547.306 319.079L543.582 302.364L524.441 290.159L519.648 301.45L508.302 294.198L530.042 247.208L541.33 254.401ZM528.338 281.345L540.435 289.187L535.123 265.603L528.338 281.257" fill="#EF680C"/>
<path d="M606.727 294.838L585.66 342.512L574.051 335.263L557.492 264.078L569.101 271.326L580.445 323.596L595.147 287.62L606.727 294.838Z" fill="#EF680C"/>
<path d="M634.541 312.252L652.22 384.145L640.64 376.896L636.722 360.161L617.187 347.962L612.325 359.247L600.746 351.999L622.932 305.033L634.541 312.252ZM621.312 339.182L633.628 346.872L628.206 323.507L621.282 339.182" fill="#EF680C"/>
<path d="M675.99 337.011C678.072 338.358 680.025 339.899 681.821 341.616C683.492 343.155 685.042 344.823 686.457 346.604C687.653 348.139 688.703 349.556 689.577 350.973C690.283 352.03 690.916 353.134 691.473 354.278L692.056 355.518L685.32 359.532C685.058 358.972 684.679 358.234 684.212 357.348C683.295 355.841 682.262 354.41 681.121 353.068C679.736 351.29 678.071 349.754 676.194 348.523C675.501 347.952 674.692 347.543 673.826 347.323C672.959 347.104 672.055 347.08 671.179 347.254C670.523 347.513 669.969 347.983 669.601 348.59C669.233 349.197 669.07 349.909 669.138 350.618C669.182 352.963 670.015 355.223 671.499 357.023C673.319 359.5 675.338 361.82 677.535 363.96C679.907 366.321 682.298 368.82 684.708 371.457C687.191 374.253 689.219 377.431 690.714 380.873C692.307 384.416 693.056 388.288 692.901 392.177C692.697 397.667 690.831 401.032 687.361 402.478C683.891 403.925 679.139 402.626 673.22 398.877C670.806 397.336 668.55 395.557 666.484 393.564C664.561 391.745 662.786 389.771 661.178 387.661C659.797 385.812 658.592 384.07 657.562 382.437C656.746 381.185 656.006 379.884 655.346 378.541L654.559 377.006L661.323 373.464C661.644 374.113 662.081 374.969 662.635 376.061C663.779 377.958 665.076 379.754 666.513 381.433C668.296 383.743 670.444 385.737 672.87 387.337C673.716 388.047 674.704 388.565 675.765 388.855C676.827 389.146 677.937 389.201 679.022 389.019C680.538 388.517 681.326 387.13 681.413 384.916C681.358 382.574 680.526 380.318 679.051 378.511C677.222 376.016 675.183 373.685 672.957 371.545C670.547 369.184 668.156 366.685 665.784 364.048C663.361 361.253 661.392 358.084 659.953 354.662C658.363 351.129 657.614 347.267 657.766 343.387C657.941 338.566 659.72 335.477 663.102 334.119C666.484 332.761 670.78 333.725 675.99 337.011Z" fill="#EF680C"/>
<path d="M729.398 371.524C732.176 373.176 734.759 375.11 737.103 377.293C739.315 379.283 741.329 381.465 743.122 383.811C744.646 385.888 746.001 387.859 747.184 389.724C748.112 391.154 748.946 392.637 749.682 394.166L750.465 395.896L743.122 399.588L742.55 398.319C742.309 397.771 741.767 396.79 740.955 395.435C740.12 393.98 739.195 392.573 738.186 391.224C736.968 389.66 735.63 388.185 734.183 386.811C732.648 385.287 730.93 383.942 729.067 382.802C724.232 379.898 720.119 379.302 716.728 381.013C713.338 382.725 711.532 386.301 711.311 391.743C711.333 397.525 712.824 403.215 715.655 408.321C718.487 413.427 722.574 417.795 727.563 421.047C729.237 422.086 731.063 422.883 732.98 423.412C734.391 423.827 735.87 423.993 737.343 423.902C738.365 423.8 739.374 423.597 740.353 423.297C741.069 423.09 741.734 422.746 742.309 422.287L742.911 421.797L749.291 433.709C749.008 433.989 748.695 434.241 748.358 434.459C747.498 434.971 746.579 435.387 745.619 435.699C744.173 436.227 742.651 436.539 741.105 436.622C739.003 436.633 736.911 436.332 734.906 435.728C732.126 434.959 729.48 433.802 727.051 432.296C718.715 427.102 711.948 419.901 707.429 411.414C702.561 403.438 700.034 394.349 700.116 385.109C700.437 376.745 703.447 371.226 709.145 368.553C714.842 365.88 721.594 366.871 729.398 371.524Z" fill="#EF680C"/>
<path d="M788.632 446.221L798.418 474.985L787.073 467.866L778.413 441.476L769.204 435.688L768.425 456.118L757.658 449.433L759.852 391.067L781.848 404.841C786.941 408.102 791.084 412.654 793.857 418.037C796.77 423.09 798.266 428.839 798.187 434.675C798.151 436.717 797.75 438.736 797.003 440.637C796.492 441.985 795.671 443.195 794.607 444.167C793.788 444.832 792.873 445.368 791.894 445.758C791.165 446.07 790.375 446.209 789.585 446.164L788.632 446.221ZM785.399 432.158C786.105 431.739 786.678 431.128 787.051 430.395C787.424 429.663 787.582 428.839 787.506 428.02C787.564 425.622 786.975 423.253 785.803 421.162C784.71 419.013 783.066 417.195 781.04 415.895L770.07 409.008L769.493 424.432L780.463 431.319C781.137 431.874 781.945 432.244 782.805 432.391C783.666 432.538 784.55 432.458 785.37 432.158" fill="#EF680C"/>
<path d="M822.394 429.135L819.937 489.371L808.008 482.472L810.465 422.237L822.394 429.135Z" fill="#EF680C"/>
<path d="M868.134 464.157C871.24 469.506 872.834 475.624 872.741 481.837C872.526 487.55 870.648 491.274 867.107 493.006C863.567 494.738 859.195 493.931 853.992 490.587L843.575 483.957L842.842 503.757L831.985 496.858L834.215 436.622L855.488 450.151C860.824 453.627 865.181 458.453 868.134 464.157ZM859.537 479.686C860.334 479.212 860.981 478.516 861.402 477.68C861.823 476.844 862.001 475.903 861.914 474.968C861.951 472.336 861.281 469.745 859.977 467.472C858.752 465.042 856.92 462.982 854.666 461.499L844.602 455.108L843.956 472.28L853.903 478.731C854.66 479.357 855.562 479.775 856.524 479.942C857.485 480.109 858.472 480.021 859.39 479.686" fill="#EF680C"/>
<path d="M918.3 489.947L917.882 501.292L903.221 492.362L901.399 539.721L890.41 533.001L892.232 485.7L877.54 476.74L877.988 465.394L918.3 489.947Z" fill="#EF680C"/>
<path d="M523.379 252.177L530.291 247.208L539.431 262.792L542.944 278.435L548.999 308.309L558.653 326.127L551.712 331.126L543.772 310.808L538.66 302.781L523.379 292.666L520.038 301.311L513.097 306.28V295.695" fill="#EF680C"/>
<path d="M551.46 269.029L558.45 263.992L569.399 273.918L574.281 302.335L575.985 319.611L584.854 313.892L588.349 292.675L595.369 287.668L601.81 299.58L598.517 312.173L586.067 342.872L579.047 347.909" fill="#EF680C"/>
<path d="M615.104 309.749L622.479 304.752L633.192 316.95L635.681 332.587L643.086 360.893L652.161 382.732L645.241 388.669L638.868 374.061L618.29 354.808L610.764 349.194L611.583 358.835L604.208 363.832" fill="#EF680C"/>
<path d="M685.701 361.579L692.921 356.664L683.166 350.062L675.2 347.909L668.189 348.578L666.966 354.744L672.217 366.232L688.715 393.949L689.669 402.15L680.898 407.851L670.576 394.734L665.654 385.485L654.615 377.895L647.366 382.839L674.216 400.754" fill="#EF680C"/>
<path d="M743.1 400.658L750.465 395.474L740.797 388.978L728.886 381.477L734.402 393.247" fill="#EF680C"/>
<path d="M702.512 405.453L715.171 416.86L735.202 429.4L748.067 433.957L740.93 439.02L727.713 434.552L714.172 427.464L706.8 417.486" fill="#EF680C"/>
<path d="M752.862 395.98L759.869 391.067L792.392 420.975L793.574 435.337L785.818 446.433L787.923 452.415L798.418 474.868L791.412 479.78L778.033 451.953L774.025 442.07L764.021 439.383L768.317 456.027L761.31 460.911" fill="#EF680C"/>
<path d="M803.213 427.296L810.269 422.237L819.997 434.2L814.538 470.209L818.777 489.137L811.75 494.166" fill="#EF680C"/>
<path d="M827.19 441.652L834.451 436.622L840.248 448.05L852.231 460.073L866.456 474.298L867.651 488.464L867.95 492.809L860.688 497.838L846.434 492.988L841.982 491.053L843.207 503.523L835.975 508.552" fill="#EF680C"/>
<path d="M872.745 470.333L879.756 465.394L916.425 493.023L918.3 501.245L911.29 506.154" fill="#EF680C"/>
<path d="M895.51 544.517L901.517 539.42L894.324 530.131" fill="#EF680C"/>
<path d="M496.314 234.842L494.873 275.231C494.651 281.279 492.961 285.203 489.747 287.032C486.533 288.861 482.461 287.976 477.474 284.672C474.938 282.948 472.675 280.807 470.769 278.329C469.1 276.316 467.65 274.109 466.446 271.75L465.144 269.065L471.544 265.466C471.674 265.78 471.877 266.233 472.154 266.823C472.7 267.87 473.34 268.858 474.066 269.773C474.953 270.93 476.01 271.926 477.196 272.723C477.919 273.38 478.787 273.828 479.719 274.024C480.65 274.22 481.613 274.159 482.516 273.844C483.846 273.107 484.566 271.366 484.677 268.563L486.201 228.027L496.314 234.842Z" fill="#FFD899"/>
<path d="M534.147 259.25L551.46 331.126L540.12 323.879L536.398 307.177L517.239 294.923L512.449 306.205L501.109 298.958L522.836 252.003L534.147 259.25ZM521.163 286.086L533.253 293.803L527.915 270.532L521.163 286.086Z" fill="#FFD899"/>
<path d="M564.092 286.235L573.285 328.575L587.988 292.599L599.567 299.847L578.5 347.521L566.921 340.272L550.362 269.087L561.941 276.335L564.092 286.235Z" fill="#FFD899"/>
<path d="M627.411 317.231L645.089 389.124L633.51 381.876L629.68 365.287L610.204 352.942L605.342 364.227L593.763 356.979L615.949 310.013L627.411 317.231ZM614.181 344.162L626.497 351.852L621.076 328.487L614.152 344.162" fill="#FFD899"/>
<path d="M668.797 341.807C670.879 343.153 672.832 344.695 674.628 346.411C676.299 347.95 677.849 349.618 679.264 351.4C680.46 352.934 681.51 354.351 682.384 355.768C683.09 356.825 683.723 357.929 684.28 359.074L684.863 360.313L678.127 364.328C677.865 363.767 677.486 363.029 677.019 362.143C676.102 360.637 675.069 359.205 673.929 357.864C672.543 356.085 670.878 354.55 669.001 353.318C668.308 352.747 667.499 352.338 666.633 352.119C665.766 351.899 664.862 351.875 663.986 352.049C663.33 352.309 662.777 352.778 662.408 353.385C662.04 353.992 661.877 354.705 661.945 355.414C661.989 357.759 662.822 360.018 664.306 361.819C666.126 364.295 668.145 366.615 670.342 368.755C672.714 371.116 675.105 373.615 677.515 376.252C679.998 379.048 682.026 382.226 683.521 385.668C685.114 389.211 685.863 393.083 685.708 396.972C685.504 402.462 683.638 405.827 680.168 407.274C676.699 408.72 671.946 407.421 666.027 403.673C663.614 402.132 661.357 400.352 659.291 398.36C657.368 396.54 655.593 394.566 653.985 392.457C652.604 390.607 651.399 388.865 650.369 387.232C649.553 385.98 648.813 384.679 648.153 383.336L647.366 381.801L654.13 378.259C654.451 378.909 654.889 379.765 655.443 380.857C656.586 382.753 657.883 384.55 659.32 386.229C661.103 388.538 663.251 390.532 665.677 392.132C666.523 392.842 667.511 393.36 668.572 393.651C669.634 393.941 670.744 393.997 671.829 393.814C673.345 393.312 674.133 391.925 674.22 389.711C674.165 387.369 673.333 385.113 671.858 383.306C670.029 380.811 667.99 378.48 665.764 376.341C663.354 373.979 660.963 371.48 658.592 368.844C656.168 366.048 654.199 362.88 652.76 359.457C651.17 355.924 650.421 352.062 650.573 348.182C650.748 343.361 652.527 340.272 655.909 338.914C659.291 337.556 663.587 338.521 668.797 341.807Z" fill="#FFD899"/>
<path d="M722.205 376.319C724.983 377.971 727.566 379.905 729.91 382.088C732.122 384.078 734.137 386.26 735.929 388.606C737.453 390.683 738.808 392.654 739.991 394.519C740.919 395.949 741.753 397.433 742.489 398.961L743.272 400.691L735.929 404.383L735.357 403.114C735.116 402.566 734.574 401.586 733.762 400.23C732.927 398.775 732.002 397.369 730.993 396.019C729.775 394.455 728.437 392.98 726.99 391.606C725.455 390.082 723.737 388.737 721.874 387.597C717.039 384.693 712.926 384.097 709.535 385.809C706.145 387.52 704.339 391.097 704.118 396.538C704.14 402.32 705.631 408.011 708.462 413.117C711.294 418.223 715.381 422.59 720.37 425.842C722.044 426.881 723.87 427.678 725.787 428.207C727.198 428.622 728.677 428.788 730.15 428.698C731.173 428.595 732.181 428.392 733.16 428.092C733.876 427.885 734.541 427.542 735.116 427.083L735.718 426.592L742.098 438.504C741.815 438.785 741.503 439.036 741.165 439.254C740.305 439.767 739.386 440.183 738.427 440.494C736.98 441.023 735.458 441.334 733.912 441.417C731.81 441.429 729.719 441.127 727.713 440.523C724.933 439.754 722.287 438.597 719.858 437.091C711.522 431.898 704.755 424.697 700.236 416.209C695.368 408.233 692.841 399.144 692.923 389.904C693.244 381.54 696.254 376.021 701.952 373.349C707.65 370.676 714.401 371.666 722.205 376.319Z" fill="#FFD899"/>
<path d="M781.411 451.017L791.225 479.78L779.848 472.662L771.163 446.271L761.929 440.484L761.147 460.913L750.465 454.229L752.665 395.862L774.724 409.637C779.831 412.898 783.986 417.45 786.767 422.832C789.688 427.886 791.188 433.635 791.109 439.471C791.073 441.513 790.671 443.532 789.922 445.432C789.409 446.781 788.586 447.99 787.519 448.962C786.698 449.627 785.78 450.163 784.798 450.554C784.068 450.865 783.275 451.004 782.482 450.959L781.411 451.017ZM778.169 436.953C778.877 436.535 779.452 435.923 779.826 435.191C780.2 434.458 780.358 433.634 780.282 432.815C780.34 430.417 779.75 428.048 778.574 425.957C777.478 423.809 775.83 421.991 773.798 420.691L762.797 413.803L762.218 429.227L773.219 436.114C773.895 436.669 774.705 437.039 775.568 437.186C776.431 437.333 777.317 437.253 778.14 436.953" fill="#FFD899"/>
<path d="M815.201 433.904L812.75 494.166L800.815 487.294L803.267 427.032L815.201 433.904Z" fill="#FFD899"/>
<path d="M860.961 469.102C864.053 474.451 865.641 480.569 865.548 486.781C865.334 492.495 863.464 496.218 859.939 497.95C856.413 499.682 852.06 498.876 846.879 495.531L836.332 488.752L835.602 508.552L824.792 501.653L827.012 441.418L848.194 454.946C853.59 458.439 857.993 463.321 860.961 469.102ZM852.401 484.631C853.194 484.157 853.839 483.461 854.258 482.625C854.677 481.789 854.854 480.848 854.768 479.912C854.804 477.281 854.138 474.689 852.839 472.417C851.619 469.986 849.795 467.927 847.551 466.444L837.53 460.053L836.887 477.225L846.908 483.616C847.662 484.242 848.56 484.66 849.517 484.827C850.475 484.994 851.458 484.906 852.372 484.571" fill="#FFD899"/>
<path d="M911.107 494.752L910.66 506.073L896.039 497.167L894.189 544.517L883.208 537.823L885.028 490.474L870.347 481.51L870.795 470.19L911.107 494.752Z" fill="#FFD899"/>
<path d="M623.389 184.587V194.46L539.471 146.526V136.916L623.389 184.587Z" fill="#F7931E"/>
<path d="M630.582 189.664L865.552 325.224V335.921L630.582 199.625V189.664Z" fill="#00A99D"/>
<path d="M829.587 335.921L865.552 358.227V369.488L829.587 347.058V335.921Z" fill="#8CC63F"/>
<path d="M819.997 332.586V343.114L690.523 266.945V256.799L819.997 332.586Z" fill="#F7931E"/>
<path d="M680.933 251.431V261.594L594.617 211.549V201.653L680.933 251.431Z" fill="#F15A24"/>
<path d="M587.424 196.922V206.448L539.471 179.867V170.483L587.424 196.922Z" fill="#8CC63F"/>
<path d="M628.185 252.003L863.154 387.563V398.26L628.185 261.993V252.003Z" fill="#00A99D"/>
<path opacity="0.32" d="M573.039 663.965L438.755 748.317L304.502 677.732L458.161 602.06" fill="url(#paint0_linear)"/>
<path opacity="0.32" d="M191.812 563.344L421.348 700.364L505.904 638.222L251.794 484.576" fill="url(#paint1_linear)"/>
<path d="M323.683 325.62L284.889 304.752L191.812 359.121V562.844L230.169 585.277" fill="#EA6A4B"/>
<path d="M230.174 585.277C233.091 585.041 230.174 380.816 230.174 380.816L323.683 326.331V532.381L230.174 585.277Z" fill="#FF7F5C"/>
<path d="M323.683 364.693L230.606 417.441L191.812 397.517" stroke="#F2F2F2" stroke-width="0.25" stroke-miterlimit="10"/>
<path d="M323.683 417.441L230.606 470.19L191.812 450.295" stroke="#F2F2F2" stroke-width="0.25" stroke-miterlimit="10"/>
<path d="M323.683 465.394L230.606 518.143L191.812 498.248" stroke="#F2F2F2" stroke-width="0.25" stroke-miterlimit="10"/>
<path d="M323.683 513.347L230.606 566.096L191.812 546.201" stroke="#F2F2F2" stroke-width="0.25" stroke-miterlimit="10"/>
<path d="M230.169 381.477L191.812 360.001L284.889 304.752L323.683 325.958L230.169 381.477Z" fill="#FF886C"/>
<path d="M252.781 389.619C254.225 386.096 253.027 382.269 250.106 381.072C247.185 379.875 243.647 381.762 242.203 385.285C240.759 388.809 241.957 392.635 244.878 393.832C247.799 395.029 251.338 393.143 252.781 389.619Z" fill="white"/>
<path d="M312.441 352.843L261.865 379.49C260.615 380.144 261.865 381.993 262.995 381.339L313.572 354.691C314.821 354.037 313.572 352.189 312.441 352.843Z" fill="#F2F2F2"/>
<path d="M252.775 435.885C254.219 432.362 253.021 428.535 250.1 427.338C247.179 426.141 243.64 428.027 242.197 431.551C240.753 435.074 241.951 438.901 244.872 440.098C247.793 441.295 251.332 439.409 252.775 435.885Z" fill="white"/>
<path d="M312.441 398.398L261.865 425.045C260.615 425.699 261.865 427.548 262.995 426.894L313.572 400.247C314.821 399.592 313.572 397.744 312.441 398.398Z" fill="#F2F2F2"/>
<path d="M252.774 486.423C254.218 482.899 253.02 479.073 250.099 477.876C247.178 476.679 243.639 478.565 242.195 482.088C240.752 485.612 241.95 489.439 244.871 490.636C247.792 491.832 251.33 489.946 252.774 486.423Z" fill="white"/>
<path d="M312.441 448.76L261.865 477.628C260.615 478.337 261.865 480.339 262.995 479.631L313.572 450.763C314.821 450.054 313.572 448.052 312.441 448.76Z" fill="#F2F2F2"/>
<path d="M252.767 532.308C254.211 528.784 253.013 524.957 250.092 523.761C247.17 522.564 243.632 524.45 242.188 527.973C240.745 531.497 241.942 535.324 244.864 536.52C247.785 537.717 251.323 535.831 252.767 532.308Z" fill="white"/>
<path d="M312.441 494.316L261.865 523.184C260.615 523.892 261.865 525.895 262.995 525.186L313.572 496.318C314.821 495.61 313.572 493.607 312.441 494.316Z" fill="#F2F2F2"/>
<path opacity="0.32" d="M686.92 816.315C697.9 806.772 709.517 797.97 721.693 789.969L581.06 700.364L441.168 738.77L637.1 853.814C653.894 841.636 670.807 829.458 686.92 816.315Z" fill="url(#paint2_linear)"/>
<path opacity="0.32" d="M805 613.101C816.018 604.015 822.012 609.161 834.383 601.545L669.573 501.359L558.653 518.061L826.802 697.966C843.462 685.528 789.015 626.304 805 613.101Z" fill="url(#paint3_linear)"/>
<path d="M542.195 719.545L539.471 717.535L541.895 685.978L556.169 686.474C556.169 686.474 555.451 699.965 558.503 703.257C561.555 706.55 570.114 704.947 570.922 705.268C571.73 705.588 577.445 704.394 579.899 707.103C582.353 709.813 570.622 716.282 564.668 717.214C560.592 717.723 556.459 717.586 552.429 716.806C552.429 716.806 551.74 708.648 549.646 709.289C547.551 709.93 546.653 718.467 546.653 718.467L542.195 719.545Z" fill="#9C4100"/>
<path d="M537.092 617.826C535.929 651.615 534.676 695.661 534.676 695.661C534.676 695.661 542.402 706.159 563.344 701.626C565.581 701.149 570.592 647.29 573.039 619.258C561.318 616.077 549.029 615.588 537.092 617.826V617.826Z" fill="#56403D"/>
<path d="M579.033 744.721L576.635 743.588L577.86 712.352L592.134 712.848C592.134 712.848 591.416 726.339 594.468 729.631C597.52 732.924 606.078 731.321 606.886 731.642C607.694 731.962 613.41 730.768 615.864 733.477C618.317 736.187 606.587 742.656 600.632 743.588C596.557 744.098 595.051 745.621 591.021 744.841C588.926 745.482 582.618 744.841 582.618 744.841L579.033 744.721Z" fill="#653200"/>
<path d="M585.597 623.708C576.339 619.54 566.397 617.079 556.255 616.446C557.969 628.912 559.564 637.556 559.83 638.203C560.51 639.791 573.393 718.939 573.393 718.939C588.611 725.055 606.606 719.939 606.606 719.939C606.606 719.939 600.401 658.196 599.898 647.876C599.898 646.759 599.839 645.652 599.721 644.554C599.502 640.128 598.07 635.846 595.581 632.171C593.091 628.497 589.638 625.57 585.597 623.708V623.708Z" fill="#56403D"/>
<path d="M491.518 643.616C491.518 643.616 517.1 620.147 536.148 618.9C555.195 617.652 582.33 637.675 580.103 649.32C577.876 660.965 541.51 685.978 541.51 685.978" fill="#56403D"/>
<path d="M544.858 601.368L524.491 586.988C523.682 586.406 523.097 585.56 522.838 584.594C522.578 583.627 522.658 582.6 523.065 581.687L537.409 549.47C537.661 548.907 538.03 548.404 538.49 547.996C538.951 547.588 539.492 547.283 540.079 547.103C540.666 546.923 541.284 546.871 541.893 546.951C542.501 547.031 543.085 547.24 543.607 547.566L566.214 561.742C567.135 562.319 567.805 563.225 568.091 564.278C568.377 565.332 568.257 566.455 567.756 567.423L551.055 599.64C550.787 600.189 550.406 600.674 549.939 601.064C549.471 601.454 548.927 601.74 548.341 601.903C547.756 602.066 547.143 602.103 546.543 602.011C545.942 601.919 545.368 601.7 544.858 601.368V601.368Z" fill="#1784AA"/>
<path d="M542.46 601.338L522.093 586.333C521.284 585.725 520.7 584.843 520.44 583.834C520.18 582.826 520.26 581.754 520.668 580.801L535.012 547.183C535.264 546.596 535.632 546.071 536.092 545.645C536.553 545.219 537.095 544.902 537.681 544.714C538.268 544.526 538.887 544.471 539.495 544.555C540.103 544.638 540.688 544.857 541.209 545.197L563.816 559.989C564.737 560.591 565.408 561.536 565.693 562.636C565.979 563.735 565.86 564.907 565.358 565.917L548.658 599.535C548.389 600.107 548.009 600.614 547.541 601.021C547.073 601.428 546.529 601.726 545.944 601.896C545.358 602.067 544.746 602.105 544.145 602.009C543.545 601.913 542.971 601.684 542.46 601.338V601.338Z" fill="#29ABE2"/>
<path d="M545.752 599.663L522.688 583.226L537.818 549.312L563.448 565.422L545.752 599.663Z" fill="#00275E"/>
<path d="M535.194 563.77C527.728 567.514 516.054 571.681 508.213 576.717C506.945 577.509 505.071 580.251 506.311 579.855C505.792 580.409 510.923 582.255 510.433 582.862C510.26 583.073 513.748 581.306 513.95 581.385C516.903 582.821 520.337 583.197 523.577 582.44L524.875 581.57L525.192 581.385C525.251 581.3 525.329 581.228 525.422 581.174H525.624C525.662 581.006 525.764 580.856 525.912 580.752C527.642 579.513 531.418 578.853 531.822 576.77C531.753 576.215 531.567 575.678 531.274 575.188C531.162 575.076 531.101 574.93 531.101 574.779C531.101 574.628 531.162 574.482 531.274 574.37C531.414 573.747 531.418 573.104 531.284 572.479C531.151 571.855 530.883 571.26 530.496 570.731V570.731L530.928 570.257C532.964 568.947 534.891 567.502 536.693 565.932C536.899 565.76 537.032 565.526 537.068 565.273V565.273C537.076 565.203 537.076 565.132 537.068 565.062C537.081 564.85 537.036 564.638 536.939 564.446C536.841 564.254 536.693 564.086 536.508 563.958C536.323 563.831 536.106 563.747 535.877 563.714C535.648 563.681 535.413 563.7 535.194 563.77V563.77Z" fill="#E85454"/>
<path d="M531.712 572.164C531.161 570.721 530.318 570.663 529.012 571.211C526.384 572.385 523.876 573.806 521.52 575.454C521.114 575.714 521.52 576.349 521.927 576.089C523.408 575.079 529.738 570.317 531.015 572.481C532.293 574.646 528.112 575.945 526.863 576.551L522.275 578.975C521.84 579.206 522.275 579.841 522.682 579.61L525.585 578.109C525.561 578.184 525.561 578.265 525.585 578.34C525.834 578.668 526.127 578.959 526.457 579.206C526.201 579.583 526.039 580.015 525.984 580.467C525.928 580.918 525.981 581.376 526.137 581.804V581.977C524.876 583.296 523.206 584.156 521.394 584.418C519.582 584.679 517.735 584.328 516.148 583.42C515.771 583.131 515.248 583.68 515.626 583.968C517.391 585.061 519.491 585.49 521.547 585.177C523.602 584.865 525.478 583.832 526.834 582.265C527.301 582.199 527.753 582.053 528.17 581.832C529.524 581.364 530.741 580.571 531.712 579.523C531.967 579.085 532.101 578.587 532.101 578.08C532.101 577.574 531.967 577.076 531.712 576.637V576.637C531.891 576.465 532.034 576.259 532.131 576.031C532.228 575.803 532.279 575.557 532.279 575.31C532.279 575.062 532.228 574.817 532.131 574.589C532.034 574.361 531.891 574.154 531.712 573.982C531.909 573.392 531.909 572.754 531.712 572.164ZM531.393 578.86C530.904 579.539 530.243 580.077 529.476 580.418C528.983 580.707 527.821 581.515 527.328 581.399C526.369 581.169 526.95 579.899 527.328 579.35C527.866 579.145 528.366 578.852 528.809 578.484L530.638 577.33L531.248 576.868C531.427 577.171 531.533 577.511 531.558 577.861C531.583 578.212 531.527 578.563 531.393 578.889V578.86ZM529.07 577.474C528.024 578.109 527.182 578.917 526.166 577.792C527.618 577.041 529.07 576.291 530.464 575.454C530.885 575.214 531.25 574.89 531.538 574.502C532.351 575.8 529.825 577.013 529.07 577.503V577.474Z" fill="#653200"/>
<path d="M512.539 570.891C512.539 570.891 517.522 572.042 517.893 582.876L514.162 592.47L493.916 581.577C493.916 581.577 498.7 575.26 512.539 570.891Z" fill="#FF9292"/>
<path d="M562.784 575.686C561.199 579.341 559.615 582.652 558.299 586.401C557.313 583.933 556.416 581.902 555.31 579.528C555.255 579.451 555.195 579.378 555.13 579.31C554.917 578.936 554.587 578.65 554.197 578.499C553.806 578.349 553.378 578.342 552.983 578.481C552.589 578.619 552.251 578.895 552.027 579.262C551.803 579.629 551.706 580.064 551.752 580.497C552.132 582.744 552.979 584.876 554.233 586.744C554.056 586.842 553.894 586.968 553.755 587.119C550.765 590.68 551.423 596.116 551.782 600.489C551.801 600.775 551.889 601.051 552.038 601.292C552.188 601.532 552.393 601.729 552.635 601.863C552.878 601.998 553.149 602.066 553.423 602.06C553.698 602.055 553.966 601.976 554.203 601.832C554.496 601.838 554.785 601.763 555.04 601.613C557.793 599.629 559.76 596.663 560.571 593.273C562.365 587.744 564.577 581.59 562.784 575.686Z" fill="#E85454"/>
<path d="M483.315 575.585L491.119 573.289C493.063 573.561 509.948 580.419 516.963 592.385C517.818 596.032 518.397 599.739 518.694 603.473C519.332 608.459 519.848 613.444 520.091 618.581C520.422 624.038 520.341 629.512 519.848 634.958C519.605 637.284 519.453 638.462 519.058 640.759C518.16 641.542 517.133 642.166 516.021 642.602C492.607 650.7 475.419 637.586 474.72 635.713C474.022 633.84 472.898 606.948 472.351 590.964C472.204 587.554 473.202 584.192 475.186 581.407C477.171 578.623 480.031 576.574 483.315 575.585V575.585Z" fill="#FF9292"/>
<path d="M504.572 549.14C504.572 549.14 509.523 574.857 500.337 577.632C491.151 580.408 480.305 569.69 479.561 564.405C478.817 559.119 491.609 540.577 504.572 549.14Z" fill="#E85454"/>
<path d="M499.29 550.794C499.567 550.581 504.65 549.9 505.728 547.685C506.805 545.471 502.965 542.589 494.041 542.163C485.118 541.737 470.282 544.236 472.575 556.231C474.868 568.226 498.379 563.073 499.898 559.241C502.308 556.505 503.507 555.306 499.29 550.794Z" fill="#653200"/>
<path d="M517.893 592.47C517.893 592.47 522.614 609.488 527.308 610.009C532.001 610.53 539.169 603.018 544.175 593.206C545.967 593.021 547.775 593.232 549.489 593.827C551.203 594.421 552.786 595.387 554.142 596.665C555.497 597.942 556.596 599.504 557.372 601.256C558.148 603.007 558.583 604.911 558.653 606.851C558.653 606.851 542.07 643.094 517.893 634.232" fill="#FF9292"/>
<path d="M427.203 717.348C412.276 697.743 404.519 673.505 405.25 648.76C405.416 628.776 413.136 609.616 426.823 595.219C439.405 582.152 458.409 575.707 475.253 584.576C489.236 591.938 496.008 606.04 500.883 620.497C506.722 637.792 508.707 659.994 529.521 665.345C537.607 667.415 546.073 665.996 554.392 665.345C568.988 664.34 584.197 669.1 588.693 684.769C596.779 712.795 559.501 736.713 538.629 745.759C520.52 753.299 500.578 755.092 481.442 750.9C462.306 746.708 444.878 736.73 431.465 722.285C429.986 720.728 428.565 719.083 427.203 717.348Z" fill="#6DE1FC"/>
<path opacity="0.36" d="M588.166 685.666C573.366 712.889 525.17 725.179 498.898 723.813C475.048 722.566 459.985 707.753 461.59 683.202C462.495 669.724 466.699 656.276 465.502 642.71C463.488 619.584 441.886 600.614 419.846 605.127C410.477 618.4 405.378 634.297 405.25 650.636C404.519 675.484 412.276 699.822 427.203 719.509C428.565 721.231 429.986 722.913 431.465 724.555C444.877 739.06 462.305 749.079 481.442 753.289C500.578 757.498 520.52 755.698 538.628 748.126C559.558 739.042 596.778 715.026 588.691 686.883C588.458 686.379 588.312 686.082 588.166 685.666Z" fill="#00275E"/>
<defs>
<linearGradient id="paint0_linear" x1="406.883" y1="715.933" x2="452.298" y2="650.938" gradientUnits="userSpaceOnUse">
<stop stop-color="white" stop-opacity="0"/>
<stop offset="1" stop-color="#D43500"/>
</linearGradient>
<linearGradient id="paint1_linear" x1="412.452" y1="641.877" x2="218.57" y2="517.601" gradientUnits="userSpaceOnUse">
<stop stop-opacity="0"/>
<stop offset="0.99" stop-color="#1A1A1A"/>
</linearGradient>
<linearGradient id="paint2_linear" x1="10343.7" y1="43103.1" x2="21302.7" y2="30207.1" gradientUnits="userSpaceOnUse">
<stop stop-opacity="0"/>
<stop offset="0.99" stop-color="#1A1A1A"/>
</linearGradient>
<linearGradient id="paint3_linear" x1="-3999.16" y1="42984.3" x2="13478.1" y2="27206.2" gradientUnits="userSpaceOnUse">
<stop stop-opacity="0"/>
<stop offset="0.99" stop-color="#1A1A1A"/>
</linearGradient>
</defs>
</svg>
