<svg width="333" height="363" viewBox="0 0 333 363" fill="none" xmlns="http://www.w3.org/2000/svg">
<path d="M157.747 163.253C172.444 163.253 184.358 151.339 184.358 136.643C184.358 121.946 172.444 110.032 157.747 110.032C143.051 110.032 131.137 121.946 131.137 136.643C131.137 151.339 143.051 163.253 157.747 163.253Z" fill="#A0616A"/>
<path d="M137.886 149.948C137.886 149.948 142.899 187.743 135.186 191.985C127.473 196.227 181.08 196.613 181.08 196.613C181.08 196.613 169.124 163.832 174.524 153.804L137.886 149.948Z" fill="#A0616A"/>
<path d="M220.224 196.804L215.766 217.105L206.339 260.055L206.057 262.407L202.803 289.638L200.639 307.728L199.188 319.88C190.366 324.414 183.972 327.544 183.972 327.544C183.972 327.544 183.422 324.787 182.535 321.259C176.343 323.115 164.887 326.195 155.178 326.81C158.713 330.75 160.338 334.452 158.134 337.185C151.483 345.421 124.024 328.167 114.42 321.733C114.196 323.273 114.112 324.831 114.167 326.386L106.817 320.734L107.545 307.728L108.771 285.723L110.313 258.127C109.827 256.945 109.419 255.732 109.093 254.497C106.842 246.492 104.11 230.509 102.015 217.105C100.329 206.317 99.0623 197.202 98.7945 195.262C98.7583 195.009 98.7402 194.879 98.7402 194.879L139.425 176.901C142.317 183.606 155.818 185.622 155.818 185.622C167.004 184.851 175.772 178.953 175.772 178.953L220.224 196.804Z" fill="#FCFCFC"/>
<path d="M187.058 319.833C187.058 319.833 185.336 320.423 182.535 321.259C176.343 323.115 164.887 326.195 155.178 326.81C146.818 327.345 139.755 326.057 138.463 320.604C137.909 318.259 138.694 316.33 140.406 314.745C145.516 310.008 158.861 308.311 169.446 307.728C172.435 307.565 175.2 307.489 177.501 307.46C181.41 307.41 183.972 307.489 183.972 307.489L184.033 307.728L187.058 319.833Z" fill="#A0616A"/>
<path d="M135.61 111.471L130.634 109.479C130.634 109.479 141.038 98.0259 155.512 99.0219L151.441 94.5401C151.441 94.5401 161.392 90.5563 170.438 101.014C175.194 106.511 180.696 112.973 184.126 120.252H189.455L187.231 125.149L195.014 130.045L187.025 129.166C187.501 131.847 187.574 134.585 187.242 137.288C186.899 139.992 185.519 142.457 183.394 144.163V144.163C183.394 144.163 177.223 131.39 177.223 129.399V134.378C177.223 134.378 172.248 129.897 172.248 126.909L169.534 130.395L168.177 124.917L151.441 130.395L154.155 125.913L143.752 127.407L147.823 121.929C147.823 121.929 136.062 128.403 135.61 133.88C135.158 139.358 131.715 144.549 131.715 144.549C131.715 144.549 122.493 118.941 135.61 111.471Z" fill="#2F2E41"/>
<path d="M249.148 290.134C246.438 293.073 239.722 297.498 231.579 302.289C228.551 304.07 225.326 305.904 222.037 307.728C214.188 312.082 205.97 316.395 199.188 319.88C190.366 324.414 183.972 327.544 183.972 327.544C183.972 327.544 183.422 324.787 182.535 321.259C181.348 316.536 179.56 310.431 177.697 307.728C177.632 307.634 177.567 307.547 177.501 307.461C176.959 306.748 176.412 306.331 175.873 306.331L202.803 289.638L214.441 282.423L206.057 262.408L195.541 237.301L201.888 217.105L208.268 196.804H220.224C220.224 196.804 224.183 205.445 229.245 217.496C230.002 219.298 230.783 221.176 231.579 223.116C241.994 248.447 254.978 283.819 249.148 290.134Z" fill="#FCFCFC"/>
<path d="M158.134 337.185C151.483 345.421 124.024 328.167 114.42 321.733C112.328 320.332 111.084 319.446 111.084 319.446L119.87 307.728L122.653 304.019C122.653 304.019 125.142 305.34 128.823 307.489C128.956 307.569 129.09 307.649 129.228 307.728C132.401 309.592 136.386 312.027 140.406 314.745C145.954 318.498 151.563 322.778 155.178 326.81C158.713 330.751 160.338 334.452 158.134 337.185Z" fill="#A0616A"/>
<path d="M128.823 307.489C127.84 307.486 126.86 307.566 125.891 307.728C117.572 309.158 115.118 316.688 114.42 321.733C114.196 323.273 114.112 324.831 114.167 326.386L106.817 320.734L104.139 318.675C97.6944 316.428 91.9515 312.436 86.9722 307.728C82.6525 303.572 78.7776 298.977 75.4104 294.017C72.0565 289.129 69.0666 284 66.4649 278.674C65.739 277.187 65.3488 275.559 65.3219 273.905C65.295 272.251 65.6321 270.611 66.3093 269.102L75.4104 248.819L88.7128 219.175C88.8105 218.469 88.9178 217.779 89.0348 217.105C91.6729 201.979 98.7402 195.262 98.7402 195.262H104.139L107.751 217.105L112.238 244.242L109.093 254.497L101.827 278.181L108.771 285.723L128.823 307.489Z" fill="#FCFCFC"/>
<path d="M134.933 244.263L139.549 249.648C141.264 249.321 143.054 248.937 144.899 248.506L143.573 244.263L146.815 248.045C166.355 243.239 190.575 233.895 190.575 233.895C190.575 233.895 164.427 235.813 144.903 231.547C136.265 229.66 127.378 233.942 123.833 242.042C121.773 246.751 122.096 250.83 129.404 250.83C131.873 250.787 134.335 250.556 136.769 250.137L134.933 244.263Z" fill="#3AA9FC"/>
<mask id="path-11-inside-1" fill="white">
<path d="M240.156 332.77V334.966C240.157 335.569 240.045 336.167 239.826 336.729C239.729 336.979 239.612 337.221 239.475 337.452C239.044 338.176 238.432 338.776 237.699 339.192C236.967 339.608 236.138 339.827 235.296 339.826H73.7024C72.8597 339.827 72.0314 339.608 71.2987 339.192C70.566 338.776 69.954 338.176 69.5227 337.452C69.3863 337.221 69.2689 336.979 69.1717 336.729C68.9529 336.167 68.8412 335.569 68.8424 334.966V332.77C68.8422 332.131 68.9678 331.499 69.212 330.91C69.4562 330.32 69.8142 329.784 70.2655 329.333C70.7168 328.882 71.2526 328.524 71.8423 328.279C72.432 328.035 73.0641 327.91 73.7024 327.91H83.0169V326.886C83.0169 326.859 83.0221 326.833 83.0322 326.808C83.0424 326.784 83.0573 326.761 83.0762 326.742C83.095 326.724 83.1173 326.709 83.142 326.698C83.1666 326.688 83.1929 326.683 83.2196 326.683H88.0795C88.1061 326.683 88.1325 326.688 88.1571 326.698C88.1817 326.709 88.2041 326.724 88.2229 326.742C88.2417 326.761 88.2566 326.784 88.2668 326.808C88.277 326.833 88.2822 326.859 88.2821 326.886V327.91H91.3182V326.886C91.3182 326.859 91.3234 326.833 91.3335 326.808C91.3437 326.784 91.3586 326.761 91.3775 326.742C91.3963 326.724 91.4186 326.709 91.4433 326.698C91.4679 326.688 91.4942 326.683 91.5209 326.683H96.3808C96.4074 326.683 96.4338 326.688 96.4584 326.698C96.483 326.709 96.5054 326.724 96.5242 326.742C96.543 326.761 96.5579 326.784 96.5681 326.808C96.5783 326.833 96.5835 326.859 96.5834 326.886V327.91H99.6232V326.886C99.6231 326.859 99.6283 326.833 99.6385 326.808C99.6487 326.784 99.6636 326.761 99.6824 326.742C99.7012 326.724 99.7236 326.709 99.7482 326.698C99.7728 326.688 99.7992 326.683 99.8258 326.683H104.686C104.712 326.683 104.739 326.688 104.763 326.698C104.788 326.709 104.81 326.724 104.829 326.742C104.848 326.761 104.863 326.784 104.873 326.808C104.883 326.833 104.888 326.859 104.888 326.886V327.91H107.924V326.886C107.924 326.859 107.93 326.833 107.94 326.808C107.95 326.784 107.965 326.761 107.984 326.742C108.003 326.724 108.025 326.709 108.05 326.698C108.074 326.688 108.1 326.683 108.127 326.683H112.987C113.014 326.683 113.04 326.688 113.065 326.698C113.089 326.709 113.112 326.724 113.13 326.742C113.149 326.761 113.164 326.784 113.174 326.808C113.185 326.833 113.19 326.859 113.19 326.886V327.91H116.226V326.886C116.226 326.859 116.231 326.833 116.241 326.808C116.251 326.784 116.266 326.761 116.285 326.742C116.304 326.724 116.326 326.709 116.351 326.698C116.375 326.688 116.402 326.683 116.428 326.683H121.288C121.315 326.683 121.341 326.688 121.366 326.698C121.391 326.709 121.413 326.724 121.432 326.742C121.451 326.761 121.466 326.784 121.476 326.808C121.486 326.833 121.491 326.859 121.491 326.886V327.91H124.531V326.886C124.531 326.859 124.536 326.833 124.546 326.808C124.556 326.784 124.571 326.761 124.59 326.742C124.609 326.724 124.631 326.709 124.656 326.698C124.68 326.688 124.707 326.683 124.733 326.683H129.593C129.62 326.683 129.646 326.688 129.671 326.698C129.696 326.709 129.718 326.724 129.737 326.742C129.756 326.761 129.77 326.784 129.781 326.808C129.791 326.833 129.796 326.859 129.796 326.886V327.91H132.832V326.886C132.832 326.859 132.837 326.833 132.847 326.808C132.858 326.784 132.872 326.761 132.891 326.742C132.91 326.724 132.932 326.709 132.957 326.698C132.982 326.688 133.008 326.683 133.035 326.683H171.104C171.13 326.683 171.157 326.688 171.181 326.698C171.206 326.709 171.228 326.724 171.247 326.742C171.266 326.761 171.281 326.784 171.291 326.808C171.301 326.833 171.306 326.859 171.306 326.886V327.91H174.346V326.886C174.346 326.859 174.351 326.833 174.361 326.808C174.371 326.784 174.386 326.761 174.405 326.742C174.424 326.724 174.446 326.709 174.471 326.698C174.496 326.688 174.522 326.683 174.549 326.683H179.408C179.462 326.684 179.513 326.705 179.551 326.743C179.589 326.781 179.611 326.832 179.611 326.886V327.91H182.647V326.886C182.647 326.859 182.652 326.833 182.663 326.808C182.673 326.784 182.688 326.761 182.706 326.742C182.725 326.724 182.748 326.709 182.772 326.698C182.797 326.688 182.823 326.683 182.85 326.683H187.71C187.736 326.683 187.763 326.688 187.787 326.698C187.812 326.709 187.834 326.723 187.853 326.742C187.872 326.761 187.887 326.784 187.897 326.808C187.907 326.833 187.913 326.859 187.912 326.886V327.91H190.949V326.886C190.949 326.859 190.954 326.833 190.964 326.808C190.974 326.784 190.989 326.761 191.008 326.742C191.027 326.724 191.049 326.709 191.074 326.698C191.098 326.688 191.125 326.683 191.151 326.683H196.011C196.038 326.683 196.064 326.688 196.089 326.698C196.113 326.709 196.136 326.724 196.155 326.742C196.173 326.761 196.188 326.784 196.198 326.808C196.209 326.833 196.214 326.859 196.214 326.886V327.91H199.254V326.886C199.253 326.859 199.259 326.833 199.269 326.808C199.279 326.784 199.294 326.761 199.313 326.742C199.332 326.724 199.354 326.709 199.379 326.698C199.403 326.688 199.43 326.683 199.456 326.683H204.316C204.369 326.684 204.42 326.705 204.457 326.743C204.495 326.781 204.515 326.833 204.515 326.886V327.91H207.555V326.886C207.555 326.859 207.56 326.833 207.57 326.808C207.58 326.784 207.595 326.761 207.614 326.742C207.633 326.724 207.655 326.709 207.68 326.698C207.704 326.688 207.731 326.683 207.757 326.683H212.617C212.644 326.683 212.67 326.688 212.695 326.698C212.72 326.709 212.742 326.724 212.761 326.742C212.78 326.761 212.795 326.784 212.805 326.808C212.815 326.833 212.82 326.859 212.82 326.886V327.91H215.856V326.886C215.856 326.859 215.861 326.833 215.871 326.808C215.882 326.784 215.897 326.761 215.915 326.742C215.934 326.724 215.957 326.709 215.981 326.698C216.006 326.688 216.032 326.683 216.059 326.683H220.919C220.945 326.683 220.972 326.688 220.996 326.698C221.021 326.709 221.043 326.724 221.062 326.742C221.081 326.761 221.096 326.784 221.106 326.808C221.116 326.833 221.121 326.859 221.121 326.886V327.91H235.296C235.934 327.91 236.566 328.035 237.156 328.279C237.746 328.524 238.281 328.882 238.733 329.333C239.184 329.784 239.542 330.32 239.786 330.91C240.03 331.499 240.156 332.131 240.156 332.77V332.77Z"/>
</mask>
<path d="M240.156 332.77V334.966C240.157 335.569 240.045 336.167 239.826 336.729C239.729 336.979 239.612 337.221 239.475 337.452C239.044 338.176 238.432 338.776 237.699 339.192C236.967 339.608 236.138 339.827 235.296 339.826H73.7024C72.8597 339.827 72.0314 339.608 71.2987 339.192C70.566 338.776 69.954 338.176 69.5227 337.452C69.3863 337.221 69.2689 336.979 69.1717 336.729C68.9529 336.167 68.8412 335.569 68.8424 334.966V332.77C68.8422 332.131 68.9678 331.499 69.212 330.91C69.4562 330.32 69.8142 329.784 70.2655 329.333C70.7168 328.882 71.2526 328.524 71.8423 328.279C72.432 328.035 73.0641 327.91 73.7024 327.91H83.0169V326.886C83.0169 326.859 83.0221 326.833 83.0322 326.808C83.0424 326.784 83.0573 326.761 83.0762 326.742C83.095 326.724 83.1173 326.709 83.142 326.698C83.1666 326.688 83.1929 326.683 83.2196 326.683H88.0795C88.1061 326.683 88.1325 326.688 88.1571 326.698C88.1817 326.709 88.2041 326.724 88.2229 326.742C88.2417 326.761 88.2566 326.784 88.2668 326.808C88.277 326.833 88.2822 326.859 88.2821 326.886V327.91H91.3182V326.886C91.3182 326.859 91.3234 326.833 91.3335 326.808C91.3437 326.784 91.3586 326.761 91.3775 326.742C91.3963 326.724 91.4186 326.709 91.4433 326.698C91.4679 326.688 91.4942 326.683 91.5209 326.683H96.3808C96.4074 326.683 96.4338 326.688 96.4584 326.698C96.483 326.709 96.5054 326.724 96.5242 326.742C96.543 326.761 96.5579 326.784 96.5681 326.808C96.5783 326.833 96.5835 326.859 96.5834 326.886V327.91H99.6232V326.886C99.6231 326.859 99.6283 326.833 99.6385 326.808C99.6487 326.784 99.6636 326.761 99.6824 326.742C99.7012 326.724 99.7236 326.709 99.7482 326.698C99.7728 326.688 99.7992 326.683 99.8258 326.683H104.686C104.712 326.683 104.739 326.688 104.763 326.698C104.788 326.709 104.81 326.724 104.829 326.742C104.848 326.761 104.863 326.784 104.873 326.808C104.883 326.833 104.888 326.859 104.888 326.886V327.91H107.924V326.886C107.924 326.859 107.93 326.833 107.94 326.808C107.95 326.784 107.965 326.761 107.984 326.742C108.003 326.724 108.025 326.709 108.05 326.698C108.074 326.688 108.1 326.683 108.127 326.683H112.987C113.014 326.683 113.04 326.688 113.065 326.698C113.089 326.709 113.112 326.724 113.13 326.742C113.149 326.761 113.164 326.784 113.174 326.808C113.185 326.833 113.19 326.859 113.19 326.886V327.91H116.226V326.886C116.226 326.859 116.231 326.833 116.241 326.808C116.251 326.784 116.266 326.761 116.285 326.742C116.304 326.724 116.326 326.709 116.351 326.698C116.375 326.688 116.402 326.683 116.428 326.683H121.288C121.315 326.683 121.341 326.688 121.366 326.698C121.391 326.709 121.413 326.724 121.432 326.742C121.451 326.761 121.466 326.784 121.476 326.808C121.486 326.833 121.491 326.859 121.491 326.886V327.91H124.531V326.886C124.531 326.859 124.536 326.833 124.546 326.808C124.556 326.784 124.571 326.761 124.59 326.742C124.609 326.724 124.631 326.709 124.656 326.698C124.68 326.688 124.707 326.683 124.733 326.683H129.593C129.62 326.683 129.646 326.688 129.671 326.698C129.696 326.709 129.718 326.724 129.737 326.742C129.756 326.761 129.77 326.784 129.781 326.808C129.791 326.833 129.796 326.859 129.796 326.886V327.91H132.832V326.886C132.832 326.859 132.837 326.833 132.847 326.808C132.858 326.784 132.872 326.761 132.891 326.742C132.91 326.724 132.932 326.709 132.957 326.698C132.982 326.688 133.008 326.683 133.035 326.683H171.104C171.13 326.683 171.157 326.688 171.181 326.698C171.206 326.709 171.228 326.724 171.247 326.742C171.266 326.761 171.281 326.784 171.291 326.808C171.301 326.833 171.306 326.859 171.306 326.886V327.91H174.346V326.886C174.346 326.859 174.351 326.833 174.361 326.808C174.371 326.784 174.386 326.761 174.405 326.742C174.424 326.724 174.446 326.709 174.471 326.698C174.496 326.688 174.522 326.683 174.549 326.683H179.408C179.462 326.684 179.513 326.705 179.551 326.743C179.589 326.781 179.611 326.832 179.611 326.886V327.91H182.647V326.886C182.647 326.859 182.652 326.833 182.663 326.808C182.673 326.784 182.688 326.761 182.706 326.742C182.725 326.724 182.748 326.709 182.772 326.698C182.797 326.688 182.823 326.683 182.85 326.683H187.71C187.736 326.683 187.763 326.688 187.787 326.698C187.812 326.709 187.834 326.723 187.853 326.742C187.872 326.761 187.887 326.784 187.897 326.808C187.907 326.833 187.913 326.859 187.912 326.886V327.91H190.949V326.886C190.949 326.859 190.954 326.833 190.964 326.808C190.974 326.784 190.989 326.761 191.008 326.742C191.027 326.724 191.049 326.709 191.074 326.698C191.098 326.688 191.125 326.683 191.151 326.683H196.011C196.038 326.683 196.064 326.688 196.089 326.698C196.113 326.709 196.136 326.724 196.155 326.742C196.173 326.761 196.188 326.784 196.198 326.808C196.209 326.833 196.214 326.859 196.214 326.886V327.91H199.254V326.886C199.253 326.859 199.259 326.833 199.269 326.808C199.279 326.784 199.294 326.761 199.313 326.742C199.332 326.724 199.354 326.709 199.379 326.698C199.403 326.688 199.43 326.683 199.456 326.683H204.316C204.369 326.684 204.42 326.705 204.457 326.743C204.495 326.781 204.515 326.833 204.515 326.886V327.91H207.555V326.886C207.555 326.859 207.56 326.833 207.57 326.808C207.58 326.784 207.595 326.761 207.614 326.742C207.633 326.724 207.655 326.709 207.68 326.698C207.704 326.688 207.731 326.683 207.757 326.683H212.617C212.644 326.683 212.67 326.688 212.695 326.698C212.72 326.709 212.742 326.724 212.761 326.742C212.78 326.761 212.795 326.784 212.805 326.808C212.815 326.833 212.82 326.859 212.82 326.886V327.91H215.856V326.886C215.856 326.859 215.861 326.833 215.871 326.808C215.882 326.784 215.897 326.761 215.915 326.742C215.934 326.724 215.957 326.709 215.981 326.698C216.006 326.688 216.032 326.683 216.059 326.683H220.919C220.945 326.683 220.972 326.688 220.996 326.698C221.021 326.709 221.043 326.724 221.062 326.742C221.081 326.761 221.096 326.784 221.106 326.808C221.116 326.833 221.121 326.859 221.121 326.886V327.91H235.296C235.934 327.91 236.566 328.035 237.156 328.279C237.746 328.524 238.281 328.882 238.733 329.333C239.184 329.784 239.542 330.32 239.786 330.91C240.03 331.499 240.156 332.131 240.156 332.77V332.77Z" fill="#202020" stroke="#E48080" stroke-width="0.187822" mask="url(#path-11-inside-1)"/>
<path d="M166.867 240.265V240.312H166.914H227.144C227.673 240.312 228.197 240.416 228.686 240.618C229.174 240.821 229.618 241.117 229.992 241.491C230.366 241.865 230.663 242.309 230.865 242.798C231.067 243.286 231.172 243.81 231.172 244.339V326.814C231.172 327.882 230.747 328.906 229.992 329.661C229.237 330.416 228.213 330.841 227.144 330.841H79.1234C78.0554 330.841 77.031 330.416 76.2758 329.661C75.5205 328.906 75.0962 327.882 75.0962 326.814V244.339C75.0962 243.271 75.5205 242.247 76.2758 241.491C77.031 240.736 78.0554 240.312 79.1234 240.312H139.603H139.65V240.265V239.07H166.867V240.265Z" fill="#202020" stroke="#E48080" stroke-width="0.0939112"/>
<path d="M124.26 290C124.18 290 124.108 289.98 124.044 289.94C123.988 289.892 123.96 289.828 123.96 289.748V281.48C123.96 281.384 123.988 281.32 124.044 281.288C124.108 281.248 124.18 281.228 124.26 281.228C124.364 281.228 124.456 281.288 124.536 281.408C124.624 281.52 124.692 281.624 124.74 281.72L128.22 288.572V281.468C128.22 281.388 128.248 281.328 128.304 281.288C128.368 281.248 128.44 281.228 128.52 281.228C128.592 281.228 128.66 281.248 128.724 281.288C128.788 281.328 128.82 281.388 128.82 281.468V289.748C128.82 289.828 128.788 289.892 128.724 289.94C128.66 289.98 128.592 290 128.52 290C128.424 290 128.34 289.952 128.268 289.856C128.196 289.76 128.136 289.66 128.088 289.556L124.56 282.644V289.748C124.56 289.828 124.528 289.892 124.464 289.94C124.4 289.98 124.332 290 124.26 290ZM131.009 290C130.929 290 130.861 289.976 130.805 289.928C130.757 289.88 130.733 289.824 130.733 289.76V281.468C130.733 281.404 130.757 281.348 130.805 281.3C130.861 281.252 130.929 281.228 131.009 281.228H133.133C133.589 281.228 134.001 281.312 134.369 281.48C134.737 281.64 135.025 281.904 135.233 282.272C135.449 282.64 135.557 283.128 135.557 283.736V287.48C135.557 288.096 135.449 288.588 135.233 288.956C135.025 289.324 134.737 289.592 134.369 289.76C134.001 289.92 133.589 290 133.133 290H131.009ZM131.333 289.424H133.133C133.709 289.424 134.157 289.268 134.477 288.956C134.797 288.636 134.957 288.144 134.957 287.48V283.736C134.957 283.08 134.797 282.596 134.477 282.284C134.157 281.964 133.709 281.804 133.133 281.804H131.333V289.424ZM141.914 290.012C141.826 290.012 141.75 289.964 141.686 289.868C141.63 289.772 141.578 289.68 141.53 289.592L139.646 285.908H137.99V289.748C137.99 289.828 137.958 289.892 137.894 289.94C137.83 289.98 137.762 290 137.69 290C137.61 290 137.538 289.98 137.474 289.94C137.418 289.892 137.39 289.828 137.39 289.748V281.468C137.39 281.316 137.474 281.236 137.642 281.228H139.706C140.154 281.228 140.57 281.3 140.954 281.444C141.338 281.588 141.646 281.828 141.878 282.164C142.11 282.5 142.226 282.964 142.226 283.556C142.226 284.06 142.138 284.472 141.962 284.792C141.794 285.112 141.562 285.356 141.266 285.524C140.97 285.692 140.642 285.8 140.282 285.848L142.202 289.568C142.226 289.616 142.238 289.66 142.238 289.7C142.238 289.78 142.202 289.852 142.13 289.916C142.066 289.98 141.994 290.012 141.914 290.012ZM137.99 285.356H139.706C140.274 285.356 140.734 285.22 141.086 284.948C141.446 284.668 141.626 284.208 141.626 283.568C141.626 282.936 141.446 282.484 141.086 282.212C140.734 281.94 140.274 281.804 139.706 281.804H137.99V285.356ZM143.877 290C143.813 290 143.749 289.98 143.685 289.94C143.629 289.892 143.601 289.828 143.601 289.748V281.48C143.601 281.4 143.629 281.34 143.685 281.3C143.749 281.252 143.813 281.228 143.877 281.228H148.149C148.237 281.228 148.301 281.26 148.341 281.324C148.381 281.38 148.401 281.44 148.401 281.504C148.401 281.584 148.377 281.656 148.329 281.72C148.289 281.776 148.229 281.804 148.149 281.804H144.201V285.332H146.097C146.177 285.332 146.237 285.364 146.277 285.428C146.325 285.484 146.349 285.548 146.349 285.62C146.349 285.684 146.329 285.744 146.289 285.8C146.249 285.856 146.185 285.884 146.097 285.884H144.201V289.424H148.149C148.229 289.424 148.289 289.456 148.329 289.52C148.377 289.576 148.401 289.644 148.401 289.724C148.401 289.788 148.381 289.852 148.341 289.916C148.301 289.972 148.237 290 148.149 290H143.877ZM151.676 290.072C151.596 290.072 151.524 290.052 151.46 290.012C151.396 289.98 151.356 289.928 151.34 289.856L148.964 281.564C148.956 281.54 148.952 281.512 148.952 281.48C148.952 281.4 148.984 281.34 149.048 281.3C149.12 281.252 149.196 281.228 149.276 281.228C149.34 281.228 149.396 281.244 149.444 281.276C149.5 281.308 149.536 281.352 149.552 281.408L151.664 288.992L152.9 284.444C152.924 284.348 152.968 284.284 153.032 284.252C153.096 284.22 153.168 284.204 153.248 284.204C153.32 284.204 153.384 284.22 153.44 284.252C153.496 284.284 153.536 284.348 153.56 284.444L154.82 288.992L156.92 281.408C156.936 281.352 156.972 281.308 157.028 281.276C157.084 281.244 157.14 281.228 157.196 281.228C157.276 281.228 157.348 281.252 157.412 281.3C157.484 281.34 157.52 281.4 157.52 281.48C157.52 281.512 157.516 281.54 157.508 281.564L155.156 289.856C155.108 290 154.992 290.072 154.808 290.072C154.736 290.072 154.668 290.052 154.604 290.012C154.54 289.98 154.5 289.928 154.484 289.856L153.248 285.368L152.012 289.856C151.972 290 151.86 290.072 151.676 290.072ZM159.029 290C158.941 290 158.873 289.976 158.825 289.928C158.777 289.88 158.753 289.824 158.753 289.76V281.48C158.753 281.4 158.781 281.34 158.837 281.3C158.901 281.252 158.965 281.228 159.029 281.228H160.913C161.369 281.228 161.781 281.28 162.149 281.384C162.525 281.488 162.821 281.684 163.037 281.972C163.253 282.26 163.361 282.684 163.361 283.244C163.361 283.756 163.269 284.184 163.085 284.528C162.901 284.872 162.653 285.112 162.341 285.248C162.717 285.4 163.017 285.632 163.241 285.944C163.465 286.256 163.577 286.72 163.577 287.336V287.552C163.577 288.152 163.473 288.632 163.265 288.992C163.057 289.352 162.773 289.612 162.413 289.772C162.061 289.924 161.665 290 161.225 290H159.029ZM159.353 289.424H161.177C161.737 289.424 162.177 289.276 162.497 288.98C162.817 288.676 162.977 288.192 162.977 287.528V287.324C162.977 286.66 162.817 286.196 162.497 285.932C162.177 285.66 161.737 285.524 161.177 285.524H159.353V289.424ZM159.353 284.972H160.973C161.581 284.972 162.029 284.852 162.317 284.612C162.613 284.364 162.761 283.924 162.761 283.292C162.761 282.876 162.681 282.564 162.521 282.356C162.369 282.14 162.153 281.996 161.873 281.924C161.593 281.844 161.273 281.804 160.913 281.804H159.353V284.972ZM164.78 290C164.7 290 164.624 289.976 164.552 289.928C164.488 289.88 164.456 289.816 164.456 289.736C164.456 289.704 164.46 289.68 164.468 289.664L167.024 281.372C167.048 281.3 167.092 281.248 167.156 281.216C167.22 281.176 167.288 281.156 167.36 281.156C167.432 281.156 167.5 281.176 167.564 281.216C167.636 281.248 167.684 281.3 167.708 281.372L170.24 289.664C170.248 289.68 170.252 289.704 170.252 289.736C170.252 289.808 170.212 289.872 170.132 289.928C170.06 289.976 169.984 290 169.904 290C169.784 290 169.704 289.94 169.664 289.82L169.076 287.912H165.62L165.044 289.82C165.004 289.94 164.916 290 164.78 290ZM165.788 287.36H168.908L167.36 282.236L165.788 287.36ZM176.015 290.012C175.927 290.012 175.851 289.964 175.787 289.868C175.731 289.772 175.679 289.68 175.631 289.592L173.747 285.908H172.091V289.748C172.091 289.828 172.059 289.892 171.995 289.94C171.931 289.98 171.863 290 171.791 290C171.711 290 171.639 289.98 171.575 289.94C171.519 289.892 171.491 289.828 171.491 289.748V281.468C171.491 281.316 171.575 281.236 171.743 281.228H173.807C174.255 281.228 174.671 281.3 175.055 281.444C175.439 281.588 175.747 281.828 175.979 282.164C176.211 282.5 176.327 282.964 176.327 283.556C176.327 284.06 176.239 284.472 176.063 284.792C175.895 285.112 175.663 285.356 175.367 285.524C175.071 285.692 174.743 285.8 174.383 285.848L176.303 289.568C176.327 289.616 176.339 289.66 176.339 289.7C176.339 289.78 176.303 289.852 176.231 289.916C176.167 289.98 176.095 290.012 176.015 290.012ZM172.091 285.356H173.807C174.375 285.356 174.835 285.22 175.187 284.948C175.547 284.668 175.727 284.208 175.727 283.568C175.727 282.936 175.547 282.484 175.187 282.212C174.835 281.94 174.375 281.804 173.807 281.804H172.091V285.356ZM177.294 290C177.126 290 177.042 289.92 177.042 289.76C177.042 289.696 177.062 289.628 177.102 289.556L181.206 281.804H177.426C177.346 281.804 177.282 281.776 177.234 281.72C177.194 281.656 177.174 281.588 177.174 281.516C177.174 281.444 177.194 281.38 177.234 281.324C177.282 281.26 177.346 281.228 177.426 281.228H181.734C181.902 281.228 181.986 281.3 181.986 281.444C181.986 281.524 181.962 281.608 181.914 281.696L177.822 289.424H181.866C181.954 289.424 182.018 289.456 182.058 289.52C182.098 289.576 182.118 289.64 182.118 289.712C182.118 289.784 182.098 289.852 182.058 289.916C182.018 289.972 181.954 290 181.866 290H177.294Z" fill="#FEFCFC"/>
<g filter="url(#filter0_i)">
<circle cx="40" cy="180" r="35" fill="#CC6699"/>
</g>
<path d="M28.64 187.14C28.0333 187.14 27.4733 187.051 26.96 186.874C26.4467 186.697 26.036 186.473 25.728 186.202C25.42 185.922 25.266 185.628 25.266 185.32C25.266 185.161 25.308 184.993 25.392 184.816C25.476 184.629 25.588 184.471 25.728 184.34C25.8773 184.209 26.0407 184.144 26.218 184.144C26.386 184.144 26.54 184.195 26.68 184.298C26.8293 184.401 26.988 184.522 27.156 184.662C27.3333 184.802 27.534 184.923 27.758 185.026C27.9913 185.129 28.2713 185.18 28.598 185.18C28.8127 185.18 29.0227 185.152 29.228 185.096C29.4427 185.031 29.6153 184.933 29.746 184.802C29.886 184.662 29.956 184.48 29.956 184.256C29.956 183.976 29.8487 183.743 29.634 183.556C29.4193 183.36 29.144 183.183 28.808 183.024C28.472 182.856 28.1127 182.683 27.73 182.506C27.3567 182.329 27.002 182.119 26.666 181.876C26.33 181.624 26.0547 181.316 25.84 180.952C25.6253 180.579 25.518 180.121 25.518 179.58C25.518 179.057 25.6207 178.614 25.826 178.25C26.0313 177.877 26.3067 177.578 26.652 177.354C26.9973 177.121 27.38 176.953 27.8 176.85C28.2293 176.738 28.6633 176.682 29.102 176.682C29.2887 176.682 29.536 176.696 29.844 176.724C30.152 176.752 30.46 176.808 30.768 176.892C31.0853 176.976 31.3513 177.102 31.566 177.27C31.7807 177.429 31.888 177.643 31.888 177.914C31.888 178.035 31.8553 178.189 31.79 178.376C31.734 178.553 31.6407 178.712 31.51 178.852C31.3887 178.992 31.2253 179.062 31.02 179.062C30.852 179.062 30.6933 179.02 30.544 178.936C30.404 178.843 30.222 178.754 29.998 178.67C29.7833 178.577 29.4847 178.53 29.102 178.53C28.6073 178.53 28.248 178.619 28.024 178.796C27.8093 178.964 27.702 179.155 27.702 179.37C27.702 179.603 27.8093 179.799 28.024 179.958C28.2387 180.117 28.514 180.271 28.85 180.42C29.186 180.56 29.5407 180.723 29.914 180.91C30.2967 181.087 30.656 181.307 30.992 181.568C31.328 181.829 31.6033 182.161 31.818 182.562C32.0327 182.954 32.14 183.444 32.14 184.032C32.14 184.704 31.986 185.273 31.678 185.74C31.3793 186.197 30.9687 186.547 30.446 186.79C29.9233 187.023 29.3213 187.14 28.64 187.14ZM36.4688 187.084C35.8622 187.084 35.3022 186.977 34.7888 186.762C34.2755 186.547 33.8648 186.197 33.5568 185.712C33.2582 185.227 33.1088 184.583 33.1088 183.78V180.07C33.1088 179.267 33.2582 178.623 33.5568 178.138C33.8648 177.653 34.2755 177.303 34.7888 177.088C35.3022 176.873 35.8622 176.766 36.4688 176.766C37.1408 176.766 37.7382 176.878 38.2608 177.102C38.7928 177.317 39.2128 177.629 39.5208 178.04C39.8288 178.451 39.9828 178.955 39.9828 179.552C39.9828 179.972 39.8942 180.252 39.7168 180.392C39.5395 180.523 39.2642 180.588 38.8908 180.588C38.6015 180.588 38.3495 180.541 38.1348 180.448C37.9295 180.355 37.8175 180.182 37.7988 179.93C37.7988 179.837 37.7848 179.72 37.7568 179.58C37.7382 179.44 37.6915 179.3 37.6168 179.16C37.5422 179.02 37.4208 178.903 37.2528 178.81C37.0848 178.717 36.8515 178.67 36.5528 178.67C36.1515 178.67 35.8388 178.787 35.6148 179.02C35.4002 179.244 35.2928 179.594 35.2928 180.07V183.78C35.2928 184.256 35.4048 184.611 35.6288 184.844C35.8528 185.068 36.1655 185.18 36.5668 185.18C36.9402 185.18 37.2108 185.101 37.3788 184.942C37.5468 184.783 37.6542 184.597 37.7008 184.382C37.7568 184.158 37.7895 183.957 37.7988 183.78C37.8175 183.519 37.9295 183.346 38.1348 183.262C38.3495 183.169 38.5968 183.122 38.8768 183.122C39.2595 183.122 39.5395 183.192 39.7168 183.332C39.8942 183.463 39.9828 183.738 39.9828 184.158C39.9828 184.774 39.8288 185.301 39.5208 185.74C39.2128 186.179 38.7928 186.515 38.2608 186.748C37.7382 186.972 37.1408 187.084 36.4688 187.084ZM43.9662 187.14C43.3595 187.14 42.7995 187.051 42.2862 186.874C41.7728 186.697 41.3622 186.473 41.0542 186.202C40.7462 185.922 40.5922 185.628 40.5922 185.32C40.5922 185.161 40.6342 184.993 40.7182 184.816C40.8022 184.629 40.9142 184.471 41.0542 184.34C41.2035 184.209 41.3668 184.144 41.5442 184.144C41.7122 184.144 41.8662 184.195 42.0062 184.298C42.1555 184.401 42.3142 184.522 42.4822 184.662C42.6595 184.802 42.8602 184.923 43.0842 185.026C43.3175 185.129 43.5975 185.18 43.9242 185.18C44.1388 185.18 44.3488 185.152 44.5542 185.096C44.7688 185.031 44.9415 184.933 45.0722 184.802C45.2122 184.662 45.2822 184.48 45.2822 184.256C45.2822 183.976 45.1748 183.743 44.9602 183.556C44.7455 183.36 44.4702 183.183 44.1342 183.024C43.7982 182.856 43.4388 182.683 43.0562 182.506C42.6828 182.329 42.3282 182.119 41.9922 181.876C41.6562 181.624 41.3808 181.316 41.1662 180.952C40.9515 180.579 40.8442 180.121 40.8442 179.58C40.8442 179.057 40.9468 178.614 41.1522 178.25C41.3575 177.877 41.6328 177.578 41.9782 177.354C42.3235 177.121 42.7062 176.953 43.1262 176.85C43.5555 176.738 43.9895 176.682 44.4282 176.682C44.6148 176.682 44.8622 176.696 45.1702 176.724C45.4782 176.752 45.7862 176.808 46.0942 176.892C46.4115 176.976 46.6775 177.102 46.8922 177.27C47.1068 177.429 47.2142 177.643 47.2142 177.914C47.2142 178.035 47.1815 178.189 47.1162 178.376C47.0602 178.553 46.9668 178.712 46.8362 178.852C46.7148 178.992 46.5515 179.062 46.3462 179.062C46.1782 179.062 46.0195 179.02 45.8702 178.936C45.7302 178.843 45.5482 178.754 45.3242 178.67C45.1095 178.577 44.8108 178.53 44.4282 178.53C43.9335 178.53 43.5742 178.619 43.3502 178.796C43.1355 178.964 43.0282 179.155 43.0282 179.37C43.0282 179.603 43.1355 179.799 43.3502 179.958C43.5648 180.117 43.8402 180.271 44.1762 180.42C44.5122 180.56 44.8668 180.723 45.2402 180.91C45.6228 181.087 45.9822 181.307 46.3182 181.568C46.6542 181.829 46.9295 182.161 47.1442 182.562C47.3588 182.954 47.4662 183.444 47.4662 184.032C47.4662 184.704 47.3122 185.273 47.0042 185.74C46.7055 186.197 46.2948 186.547 45.7722 186.79C45.2495 187.023 44.6475 187.14 43.9662 187.14ZM51.431 187.14C50.8243 187.14 50.2643 187.051 49.751 186.874C49.2377 186.697 48.827 186.473 48.519 186.202C48.211 185.922 48.057 185.628 48.057 185.32C48.057 185.161 48.099 184.993 48.183 184.816C48.267 184.629 48.379 184.471 48.519 184.34C48.6683 184.209 48.8317 184.144 49.009 184.144C49.177 184.144 49.331 184.195 49.471 184.298C49.6203 184.401 49.779 184.522 49.947 184.662C50.1243 184.802 50.325 184.923 50.549 185.026C50.7823 185.129 51.0623 185.18 51.389 185.18C51.6037 185.18 51.8137 185.152 52.019 185.096C52.2337 185.031 52.4063 184.933 52.537 184.802C52.677 184.662 52.747 184.48 52.747 184.256C52.747 183.976 52.6397 183.743 52.425 183.556C52.2103 183.36 51.935 183.183 51.599 183.024C51.263 182.856 50.9037 182.683 50.521 182.506C50.1477 182.329 49.793 182.119 49.457 181.876C49.121 181.624 48.8457 181.316 48.631 180.952C48.4163 180.579 48.309 180.121 48.309 179.58C48.309 179.057 48.4117 178.614 48.617 178.25C48.8223 177.877 49.0977 177.578 49.443 177.354C49.7883 177.121 50.171 176.953 50.591 176.85C51.0203 176.738 51.4543 176.682 51.893 176.682C52.0797 176.682 52.327 176.696 52.635 176.724C52.943 176.752 53.251 176.808 53.559 176.892C53.8763 176.976 54.1423 177.102 54.357 177.27C54.5717 177.429 54.679 177.643 54.679 177.914C54.679 178.035 54.6463 178.189 54.581 178.376C54.525 178.553 54.4317 178.712 54.301 178.852C54.1797 178.992 54.0163 179.062 53.811 179.062C53.643 179.062 53.4843 179.02 53.335 178.936C53.195 178.843 53.013 178.754 52.789 178.67C52.5743 178.577 52.2757 178.53 51.893 178.53C51.3983 178.53 51.039 178.619 50.815 178.796C50.6003 178.964 50.493 179.155 50.493 179.37C50.493 179.603 50.6003 179.799 50.815 179.958C51.0297 180.117 51.305 180.271 51.641 180.42C51.977 180.56 52.3317 180.723 52.705 180.91C53.0877 181.087 53.447 181.307 53.783 181.568C54.119 181.829 54.3943 182.161 54.609 182.562C54.8237 182.954 54.931 183.444 54.931 184.032C54.931 184.704 54.777 185.273 54.469 185.74C54.1703 186.197 53.7597 186.547 53.237 186.79C52.7143 187.023 52.1123 187.14 51.431 187.14Z" fill="#202020"/>
<g filter="url(#filter1_i)">
<circle cx="54.2151" cy="88.2151" r="35" transform="rotate(-58.0708 54.2151 88.2151)" fill="#61DBFB"/>
</g>
<path d="M36.4615 93.8747C36.3215 93.8747 36.1862 93.8467 36.0555 93.7907C35.9342 93.7254 35.8362 93.618 35.7615 93.4687L33.8435 89.7447H32.9195V93.1187C32.9195 93.3427 32.8028 93.5107 32.5695 93.6227C32.3455 93.7347 32.0982 93.7907 31.8275 93.7907C31.5568 93.7907 31.3048 93.7347 31.0715 93.6227C30.8475 93.5107 30.7355 93.3427 30.7355 93.1187V84.2147C30.7355 84.0374 30.7962 83.8834 30.9175 83.7527C31.0388 83.622 31.2022 83.5567 31.4075 83.5567H34.3055C34.9495 83.5567 35.5282 83.65 36.0415 83.8367C36.5642 84.014 36.9795 84.322 37.2875 84.7607C37.5955 85.19 37.7495 85.7874 37.7495 86.5527C37.7495 87.3367 37.5908 87.962 37.2735 88.4287C36.9562 88.886 36.5502 89.208 36.0555 89.3947L37.7635 92.4887C37.7915 92.526 37.8102 92.568 37.8195 92.6147C37.8288 92.6614 37.8335 92.7034 37.8335 92.7407C37.8335 92.918 37.7635 93.0954 37.6235 93.2727C37.4835 93.45 37.3062 93.5947 37.0915 93.7067C36.8862 93.8187 36.6762 93.8747 36.4615 93.8747ZM32.9195 88.0647H34.3055C34.6975 88.0647 35.0055 87.9714 35.2295 87.7847C35.4535 87.5887 35.5655 87.248 35.5655 86.7627C35.5655 86.268 35.4535 85.9274 35.2295 85.7407C35.0055 85.554 34.6975 85.4607 34.3055 85.4607H32.9195V88.0647ZM41.9386 93.9307C41.2479 93.9307 40.6366 93.8094 40.1046 93.5667C39.5726 93.3147 39.1526 92.9647 38.8446 92.5167C38.5459 92.0687 38.3966 91.5507 38.3966 90.9627V89.9407C38.3966 89.418 38.5412 88.9374 38.8306 88.4987C39.1199 88.06 39.5072 87.71 39.9926 87.4487C40.4779 87.178 41.0192 87.0427 41.6166 87.0427C42.1579 87.0427 42.6526 87.1547 43.1006 87.3787C43.5579 87.6027 43.9266 87.9154 44.2066 88.3167C44.4866 88.7087 44.6266 89.1707 44.6266 89.7027C44.6266 90.1227 44.5566 90.426 44.4166 90.6127C44.2859 90.79 44.1132 90.902 43.8986 90.9487C43.6932 90.986 43.4832 91.0047 43.2686 91.0047H40.5666V91.0887C40.5666 91.434 40.6972 91.714 40.9586 91.9287C41.2199 92.134 41.5652 92.2367 41.9946 92.2367C42.2839 92.2367 42.5312 92.1947 42.7366 92.1107C42.9419 92.0174 43.1239 91.9287 43.2826 91.8447C43.4412 91.7607 43.5952 91.7187 43.7446 91.7187C43.9126 91.7187 44.0572 91.7747 44.1786 91.8867C44.2999 91.9987 44.3886 92.1294 44.4446 92.2787C44.5099 92.428 44.5426 92.5587 44.5426 92.6707C44.5426 92.848 44.4352 93.0347 44.2206 93.2307C44.0059 93.4267 43.7026 93.5947 43.3106 93.7347C42.9279 93.8654 42.4706 93.9307 41.9386 93.9307ZM40.5666 89.7867H42.3026C42.4052 89.7867 42.4799 89.7634 42.5266 89.7167C42.5732 89.67 42.5966 89.5814 42.5966 89.4507C42.5966 89.1707 42.4892 88.9607 42.2746 88.8207C42.0692 88.6807 41.8359 88.6107 41.5746 88.6107C41.3226 88.6107 41.0892 88.6807 40.8746 88.8207C40.6692 88.9607 40.5666 89.1707 40.5666 89.4507V89.7867ZM47.0079 93.9307C46.5225 93.9307 46.1025 93.7814 45.7479 93.4827C45.3932 93.1747 45.2159 92.7034 45.2159 92.0687C45.2159 91.518 45.3559 91.0887 45.6359 90.7807C45.9159 90.4727 46.2985 90.258 46.7839 90.1367C47.2785 90.0154 47.8479 89.9547 48.4919 89.9547H48.9959V89.8147C48.9959 89.572 48.9212 89.3387 48.7719 89.1147C48.6225 88.8907 48.3472 88.7787 47.9459 88.7787C47.5632 88.7787 47.2785 88.816 47.0919 88.8907C46.9052 88.9654 46.7605 89.0447 46.6579 89.1287C46.5552 89.2034 46.4385 89.2407 46.3079 89.2407C46.0745 89.2407 45.8925 89.124 45.7619 88.8907C45.6405 88.6574 45.5799 88.4147 45.5799 88.1627C45.5799 87.9387 45.7059 87.7427 45.9579 87.5747C46.2192 87.4067 46.5319 87.276 46.8959 87.1827C47.2692 87.0894 47.6285 87.0427 47.9739 87.0427C48.7392 87.0427 49.3552 87.1734 49.8219 87.4347C50.2885 87.696 50.6292 88.0367 50.8439 88.4567C51.0585 88.8674 51.1659 89.3107 51.1659 89.7867V93.1187C51.1659 93.3054 51.0632 93.464 50.8579 93.5947C50.6619 93.7254 50.4099 93.7907 50.1019 93.7907C49.8312 93.7907 49.6025 93.7254 49.4159 93.5947C49.2292 93.464 49.1359 93.3054 49.1359 93.1187V92.8107C48.8839 93.1 48.5899 93.3614 48.2539 93.5947C47.9179 93.8187 47.5025 93.9307 47.0079 93.9307ZM47.9459 92.3487C48.0952 92.3487 48.2492 92.2927 48.4079 92.1807C48.5665 92.0594 48.7019 91.9007 48.8139 91.7047C48.9352 91.5087 48.9959 91.294 48.9959 91.0607V91.0047H48.9399C48.6785 91.0047 48.4265 91.0234 48.1839 91.0607C47.9505 91.0887 47.7592 91.1587 47.6099 91.2707C47.4699 91.3734 47.3999 91.5367 47.3999 91.7607C47.3999 91.966 47.4512 92.1154 47.5539 92.2087C47.6565 92.302 47.7872 92.3487 47.9459 92.3487ZM55.3151 93.9307C54.5778 93.9307 53.9711 93.8 53.4951 93.5387C53.0285 93.2774 52.6831 92.9227 52.4591 92.4747C52.2445 92.0267 52.1371 91.5227 52.1371 90.9627V90.0107C52.1371 89.4507 52.2445 88.9467 52.4591 88.4987C52.6831 88.0507 53.0285 87.696 53.4951 87.4347C53.9618 87.1734 54.5591 87.0427 55.2871 87.0427C55.7445 87.0427 56.1505 87.0987 56.5051 87.2107C56.8598 87.3134 57.1398 87.4534 57.3451 87.6307C57.5505 87.808 57.6531 87.9994 57.6531 88.2047C57.6531 88.3354 57.6158 88.4847 57.5411 88.6527C57.4758 88.8207 57.3778 88.9654 57.2471 89.0867C57.1258 89.208 56.9811 89.2687 56.8131 89.2687C56.7011 89.2687 56.5891 89.2407 56.4771 89.1847C56.3745 89.1287 56.2438 89.0727 56.0851 89.0167C55.9265 88.9607 55.7211 88.9327 55.4691 88.9327C55.0491 88.9327 54.7505 89.026 54.5731 89.2127C54.3958 89.3994 54.3071 89.6654 54.3071 90.0107V90.9627C54.3071 91.308 54.3958 91.574 54.5731 91.7607C54.7505 91.9474 55.0538 92.0407 55.4831 92.0407C55.7351 92.0407 55.9358 92.008 56.0851 91.9427C56.2345 91.8774 56.3605 91.8167 56.4631 91.7607C56.5751 91.6954 56.6918 91.6627 56.8131 91.6627C57.0091 91.6627 57.1771 91.7187 57.3171 91.8307C57.4571 91.9427 57.5598 92.0827 57.6251 92.2507C57.6998 92.4094 57.7371 92.5587 57.7371 92.6987C57.7371 92.904 57.6298 93.1047 57.4151 93.3007C57.2005 93.4874 56.9111 93.6414 56.5471 93.7627C56.1831 93.8747 55.7725 93.9307 55.3151 93.9307ZM61.2845 93.7907C60.3978 93.7907 59.7165 93.604 59.2405 93.2307C58.7738 92.848 58.5405 92.246 58.5405 91.4247V84.8867C58.5405 84.6907 58.6571 84.532 58.8905 84.4107C59.1238 84.2894 59.3665 84.2287 59.6185 84.2287C59.8891 84.2287 60.1365 84.2894 60.3605 84.4107C60.5938 84.532 60.7105 84.6907 60.7105 84.8867V87.1267H62.2925C62.4698 87.1267 62.6005 87.2107 62.6845 87.3787C62.7778 87.5374 62.8245 87.71 62.8245 87.8967C62.8245 88.0927 62.7778 88.27 62.6845 88.4287C62.6005 88.5874 62.4698 88.6667 62.2925 88.6667H60.7105V91.4247C60.7105 91.63 60.7525 91.7747 60.8365 91.8587C60.9205 91.9334 61.0698 91.9707 61.2845 91.9707H61.8865C62.2038 91.9707 62.4371 92.0687 62.5865 92.2647C62.7358 92.4514 62.8105 92.6567 62.8105 92.8807C62.8105 93.114 62.7358 93.324 62.5865 93.5107C62.4371 93.6974 62.2038 93.7907 61.8865 93.7907H61.2845ZM66.6361 93.8747C65.9734 93.8747 65.3761 93.7627 64.8441 93.5387C64.3121 93.3054 63.8921 92.9694 63.5841 92.5307C63.2761 92.092 63.1221 91.5647 63.1221 90.9487C63.1221 90.5287 63.2108 90.2534 63.3881 90.1227C63.5748 89.9827 63.8548 89.9127 64.2281 89.9127C64.5081 89.9127 64.7508 89.9594 64.9561 90.0527C65.1708 90.1367 65.2874 90.3094 65.3061 90.5707C65.3248 90.748 65.3574 90.9487 65.4041 91.1727C65.4508 91.3874 65.5581 91.574 65.7261 91.7327C65.8941 91.8914 66.1648 91.9707 66.5381 91.9707C66.9488 91.9707 67.2614 91.8587 67.4761 91.6347C67.7001 91.4014 67.8121 91.0467 67.8121 90.5707V85.4607H66.5941C66.3888 85.4607 66.2254 85.3674 66.1041 85.1807C65.9921 84.9847 65.9361 84.756 65.9361 84.4947C65.9361 84.2707 65.9874 84.0607 66.0901 83.8647C66.1928 83.6594 66.3608 83.5567 66.5941 83.5567H69.0441C69.2868 83.5567 69.5061 83.6127 69.7021 83.7247C69.8981 83.8367 69.9961 84.0047 69.9961 84.2287V90.5707C69.9961 91.3734 69.8421 92.0174 69.5341 92.5027C69.2354 92.988 68.8294 93.338 68.3161 93.5527C67.8121 93.7674 67.2521 93.8747 66.6361 93.8747ZM74.348 93.9307C73.7413 93.9307 73.1813 93.842 72.668 93.6647C72.1547 93.4874 71.744 93.2634 71.436 92.9927C71.128 92.7127 70.974 92.4187 70.974 92.1107C70.974 91.952 71.016 91.784 71.1 91.6067C71.184 91.42 71.296 91.2614 71.436 91.1307C71.5853 91 71.7487 90.9347 71.926 90.9347C72.094 90.9347 72.248 90.986 72.388 91.0887C72.5373 91.1914 72.696 91.3127 72.864 91.4527C73.0413 91.5927 73.242 91.714 73.466 91.8167C73.6993 91.9194 73.9793 91.9707 74.306 91.9707C74.5207 91.9707 74.7307 91.9427 74.936 91.8867C75.1507 91.8214 75.3233 91.7234 75.454 91.5927C75.594 91.4527 75.664 91.2707 75.664 91.0467C75.664 90.7667 75.5567 90.5334 75.342 90.3467C75.1273 90.1507 74.852 89.9734 74.516 89.8147C74.18 89.6467 73.8207 89.474 73.438 89.2967C73.0647 89.1194 72.71 88.9094 72.374 88.6667C72.038 88.4147 71.7627 88.1067 71.548 87.7427C71.3333 87.3694 71.226 86.912 71.226 86.3707C71.226 85.848 71.3287 85.4047 71.534 85.0407C71.7393 84.6674 72.0147 84.3687 72.36 84.1447C72.7053 83.9114 73.088 83.7434 73.508 83.6407C73.9373 83.5287 74.3713 83.4727 74.81 83.4727C74.9967 83.4727 75.244 83.4867 75.552 83.5147C75.86 83.5427 76.168 83.5987 76.476 83.6827C76.7933 83.7667 77.0593 83.8927 77.274 84.0607C77.4887 84.2194 77.596 84.434 77.596 84.7047C77.596 84.826 77.5633 84.98 77.498 85.1667C77.442 85.344 77.3487 85.5027 77.218 85.6427C77.0967 85.7827 76.9333 85.8527 76.728 85.8527C76.56 85.8527 76.4013 85.8107 76.252 85.7267C76.112 85.6334 75.93 85.5447 75.706 85.4607C75.4913 85.3674 75.1927 85.3207 74.81 85.3207C74.3153 85.3207 73.956 85.4094 73.732 85.5867C73.5173 85.7547 73.41 85.946 73.41 86.1607C73.41 86.394 73.5173 86.59 73.732 86.7487C73.9467 86.9074 74.222 87.0614 74.558 87.2107C74.894 87.3507 75.2487 87.514 75.622 87.7007C76.0047 87.878 76.364 88.0974 76.7 88.3587C77.036 88.62 77.3113 88.9514 77.526 89.3527C77.7407 89.7447 77.848 90.2347 77.848 90.8227C77.848 91.4947 77.694 92.064 77.386 92.5307C77.0873 92.988 76.6767 93.338 76.154 93.5807C75.6313 93.814 75.0293 93.9307 74.348 93.9307Z" fill="#202020"/>
<g filter="url(#filter2_i)">
<circle cx="298" cy="183" r="35" fill="#F1502F"/>
</g>
<g filter="url(#filter3_i)">
<circle cx="263" cy="84" r="35" transform="rotate(37.744 263 84)" fill="#007ACC"/>
</g>
<path d="M292.074 189.084C291.43 189.084 290.847 188.977 290.324 188.762C289.811 188.547 289.4 188.197 289.092 187.712C288.793 187.227 288.644 186.583 288.644 185.78V182.07C288.644 181.267 288.793 180.623 289.092 180.138C289.4 179.653 289.811 179.303 290.324 179.088C290.837 178.873 291.397 178.766 292.004 178.766C292.676 178.766 293.273 178.878 293.796 179.102C294.328 179.317 294.748 179.629 295.056 180.04C295.364 180.451 295.518 180.955 295.518 181.552C295.518 181.972 295.429 182.252 295.252 182.392C295.075 182.523 294.799 182.588 294.426 182.588C294.137 182.588 293.885 182.541 293.67 182.448C293.455 182.355 293.343 182.182 293.334 181.93C293.334 181.762 293.311 181.58 293.264 181.384C293.227 181.188 293.119 181.02 292.942 180.88C292.774 180.74 292.489 180.67 292.088 180.67C291.687 180.67 291.374 180.787 291.15 181.02C290.935 181.244 290.828 181.594 290.828 182.07V185.78C290.828 186.256 290.935 186.611 291.15 186.844C291.374 187.068 291.682 187.18 292.074 187.18C292.466 187.18 292.774 187.068 292.998 186.844C293.222 186.611 293.334 186.256 293.334 185.78V185.304H292.508C292.303 185.304 292.139 185.22 292.018 185.052C291.906 184.875 291.85 184.679 291.85 184.464C291.85 184.259 291.906 184.067 292.018 183.89C292.139 183.713 292.303 183.624 292.508 183.624H294.86C295.075 183.624 295.238 183.694 295.35 183.834C295.462 183.965 295.518 184.123 295.518 184.31V185.78C295.518 186.583 295.364 187.227 295.056 187.712C294.757 188.197 294.347 188.547 293.824 188.762C293.301 188.977 292.718 189.084 292.074 189.084ZM297.873 189C297.603 189 297.351 188.944 297.117 188.832C296.893 188.72 296.781 188.552 296.781 188.328V179.424C296.781 179.191 296.893 179.023 297.117 178.92C297.351 178.817 297.603 178.766 297.873 178.766C298.144 178.766 298.391 178.817 298.615 178.92C298.849 179.023 298.965 179.191 298.965 179.424V188.328C298.965 188.552 298.849 188.72 298.615 188.832C298.391 188.944 298.144 189 297.873 189ZM303.511 189C303.24 189 302.988 188.944 302.755 188.832C302.531 188.72 302.419 188.552 302.419 188.328V180.726H300.487C300.281 180.726 300.118 180.628 299.997 180.432C299.885 180.227 299.829 179.993 299.829 179.732C299.829 179.499 299.88 179.279 299.983 179.074C300.085 178.869 300.253 178.766 300.487 178.766H306.535C306.768 178.766 306.936 178.869 307.039 179.074C307.141 179.279 307.193 179.499 307.193 179.732C307.193 179.993 307.137 180.227 307.025 180.432C306.913 180.628 306.749 180.726 306.535 180.726H304.603V188.328C304.603 188.552 304.486 188.72 304.253 188.832C304.029 188.944 303.781 189 303.511 189Z" fill="#202020"/>
<path d="M234.899 89.6939C234.628 89.6939 234.376 89.6379 234.143 89.5259C233.919 89.4139 233.807 89.2459 233.807 89.0219V81.4199H231.875C231.669 81.4199 231.506 81.3219 231.385 81.1259C231.273 80.9206 231.217 80.6873 231.217 80.4259C231.217 80.1926 231.268 79.9733 231.371 79.7679C231.473 79.5626 231.641 79.4599 231.875 79.4599H237.923C238.156 79.4599 238.324 79.5626 238.427 79.7679C238.529 79.9733 238.581 80.1926 238.581 80.4259C238.581 80.6873 238.525 80.9206 238.413 81.1259C238.301 81.3219 238.137 81.4199 237.923 81.4199H235.991V89.0219C235.991 89.2459 235.874 89.4139 235.641 89.5259C235.417 89.6379 235.169 89.6939 234.899 89.6939ZM238.47 92.7319C238.19 92.7319 237.952 92.6806 237.756 92.5779C237.569 92.4753 237.476 92.2186 237.476 91.8079C237.476 91.5653 237.513 91.3553 237.588 91.1779C237.672 91.0006 237.812 90.9119 238.008 90.9119C238.139 90.9119 238.311 90.8979 238.526 90.8699C238.741 90.8513 238.96 90.7859 239.184 90.6739C239.417 90.5713 239.609 90.3939 239.758 90.1419C239.917 89.8993 239.996 89.5586 239.996 89.1199L237.546 84.2479C237.499 84.1546 237.476 84.0613 237.476 83.9679C237.476 83.7813 237.56 83.6086 237.728 83.4499C237.896 83.2913 238.092 83.1653 238.316 83.0719C238.549 82.9786 238.759 82.9319 238.946 82.9319C239.077 82.9319 239.198 82.9599 239.31 83.0159C239.422 83.0626 239.501 83.1513 239.548 83.2819L241.13 87.0759L242.292 83.2819C242.339 83.1513 242.413 83.0626 242.516 83.0159C242.628 82.9599 242.74 82.9319 242.852 82.9319C243.02 82.9319 243.221 82.9833 243.454 83.0859C243.697 83.1793 243.907 83.3053 244.084 83.4639C244.261 83.6226 244.35 83.8046 244.35 84.0099C244.35 84.1033 244.331 84.1826 244.294 84.2479L242.306 89.2039C242.129 89.6426 241.961 90.0719 241.802 90.4919C241.643 90.9119 241.438 91.2899 241.186 91.6259C240.943 91.9619 240.607 92.2279 240.178 92.4239C239.749 92.6293 239.179 92.7319 238.47 92.7319ZM246.115 92.7319C245.807 92.7319 245.551 92.6619 245.345 92.5219C245.149 92.3819 245.051 92.2279 245.051 92.0599V83.6879C245.051 83.4919 245.149 83.3333 245.345 83.2119C245.551 83.0906 245.798 83.0299 246.087 83.0299C246.377 83.0299 246.615 83.0906 246.801 83.2119C246.988 83.3333 247.081 83.4919 247.081 83.6879V84.0099C247.24 83.7393 247.483 83.4966 247.809 83.2819C248.145 83.0579 248.533 82.9459 248.971 82.9459C249.447 82.9459 249.872 83.0813 250.245 83.3519C250.628 83.6133 250.927 83.9679 251.141 84.4159C251.365 84.8546 251.477 85.3446 251.477 85.8859V86.8659C251.477 87.3793 251.365 87.8646 251.141 88.3219C250.917 88.7699 250.619 89.1339 250.245 89.4139C249.881 89.6939 249.48 89.8339 249.041 89.8339C248.631 89.8339 248.257 89.7219 247.921 89.4979C247.585 89.2646 247.352 89.0033 247.221 88.7139V92.0599C247.221 92.2279 247.114 92.3819 246.899 92.5219C246.685 92.6619 246.423 92.7319 246.115 92.7319ZM248.271 87.9439C248.542 87.9439 248.78 87.8319 248.985 87.6079C249.2 87.3839 249.307 87.1366 249.307 86.8659V85.8859C249.307 85.6153 249.205 85.3726 248.999 85.1579C248.794 84.9433 248.542 84.8359 248.243 84.8359C247.991 84.8359 247.758 84.9293 247.543 85.1159C247.329 85.3026 247.221 85.5593 247.221 85.8859V87.0479C247.221 87.1226 247.263 87.2346 247.347 87.3839C247.441 87.5239 247.567 87.6546 247.725 87.7759C247.884 87.8879 248.066 87.9439 248.271 87.9439ZM255.792 89.8339C255.102 89.8339 254.49 89.7126 253.958 89.4699C253.426 89.2179 253.006 88.8679 252.698 88.4199C252.4 87.9719 252.25 87.4539 252.25 86.8659V85.8439C252.25 85.3213 252.395 84.8406 252.684 84.4019C252.974 83.9633 253.361 83.6133 253.846 83.3519C254.332 83.0813 254.873 82.9459 255.47 82.9459C256.012 82.9459 256.506 83.0579 256.954 83.2819C257.412 83.5059 257.78 83.8186 258.06 84.2199C258.34 84.6119 258.48 85.0739 258.48 85.6059C258.48 86.0259 258.41 86.3293 258.27 86.5159C258.14 86.6933 257.967 86.8053 257.752 86.8519C257.547 86.8893 257.337 86.9079 257.122 86.9079H254.42V86.9919C254.42 87.3373 254.551 87.6173 254.812 87.8319C255.074 88.0373 255.419 88.1399 255.848 88.1399C256.138 88.1399 256.385 88.0979 256.59 88.0139C256.796 87.9206 256.978 87.8319 257.136 87.7479C257.295 87.6639 257.449 87.6219 257.598 87.6219C257.766 87.6219 257.911 87.6779 258.032 87.7899C258.154 87.9019 258.242 88.0326 258.298 88.1819C258.364 88.3313 258.396 88.4619 258.396 88.5739C258.396 88.7513 258.289 88.9379 258.074 89.1339C257.86 89.3299 257.556 89.4979 257.164 89.6379C256.782 89.7686 256.324 89.8339 255.792 89.8339ZM254.42 85.6899H256.156C256.259 85.6899 256.334 85.6666 256.38 85.6199C256.427 85.5733 256.45 85.4846 256.45 85.3539C256.45 85.0739 256.343 84.8639 256.128 84.7239C255.923 84.5839 255.69 84.5139 255.428 84.5139C255.176 84.5139 254.943 84.5839 254.728 84.7239C254.523 84.8639 254.42 85.0739 254.42 85.3539V85.6899ZM262.458 89.8339C261.851 89.8339 261.291 89.7453 260.778 89.5679C260.264 89.3906 259.854 89.1666 259.546 88.8959C259.238 88.6159 259.084 88.3219 259.084 88.0139C259.084 87.8553 259.126 87.6873 259.21 87.5099C259.294 87.3233 259.406 87.1646 259.546 87.0339C259.695 86.9033 259.858 86.8379 260.036 86.8379C260.204 86.8379 260.358 86.8893 260.498 86.9919C260.647 87.0946 260.806 87.2159 260.974 87.3559C261.151 87.4959 261.352 87.6173 261.576 87.7199C261.809 87.8226 262.089 87.8739 262.416 87.8739C262.63 87.8739 262.84 87.8459 263.046 87.7899C263.26 87.7246 263.433 87.6266 263.564 87.4959C263.704 87.3559 263.774 87.1739 263.774 86.9499C263.774 86.6699 263.666 86.4366 263.452 86.2499C263.237 86.0539 262.962 85.8766 262.626 85.7179C262.29 85.5499 261.93 85.3773 261.548 85.1999C261.174 85.0226 260.82 84.8126 260.484 84.5699C260.148 84.3179 259.872 84.0099 259.658 83.6459C259.443 83.2726 259.336 82.8153 259.336 82.2739C259.336 81.7513 259.438 81.3079 259.644 80.9439C259.849 80.5706 260.124 80.2719 260.47 80.0479C260.815 79.8146 261.198 79.6466 261.618 79.5439C262.047 79.4319 262.481 79.3759 262.92 79.3759C263.106 79.3759 263.354 79.3899 263.662 79.4179C263.97 79.4459 264.278 79.5019 264.586 79.5859C264.903 79.6699 265.169 79.7959 265.384 79.9639C265.598 80.1226 265.706 80.3373 265.706 80.6079C265.706 80.7293 265.673 80.8833 265.608 81.0699C265.552 81.2473 265.458 81.4059 265.328 81.5459C265.206 81.6859 265.043 81.7559 264.838 81.7559C264.67 81.7559 264.511 81.7139 264.362 81.6299C264.222 81.5366 264.04 81.4479 263.816 81.3639C263.601 81.2706 263.302 81.2239 262.92 81.2239C262.425 81.2239 262.066 81.3126 261.842 81.4899C261.627 81.6579 261.52 81.8493 261.52 82.0639C261.52 82.2973 261.627 82.4933 261.842 82.6519C262.056 82.8106 262.332 82.9646 262.668 83.1139C263.004 83.2539 263.358 83.4173 263.732 83.6039C264.114 83.7813 264.474 84.0006 264.81 84.2619C265.146 84.5233 265.421 84.8546 265.636 85.2559C265.85 85.6479 265.958 86.1379 265.958 86.7259C265.958 87.3979 265.804 87.9673 265.496 88.4339C265.197 88.8913 264.786 89.2413 264.264 89.4839C263.741 89.7173 263.139 89.8339 262.458 89.8339ZM269.852 89.8339C269.115 89.8339 268.508 89.7033 268.032 89.4419C267.566 89.1806 267.22 88.8259 266.996 88.3779C266.782 87.9299 266.674 87.4259 266.674 86.8659V85.9139C266.674 85.3539 266.782 84.8499 266.996 84.4019C267.22 83.9539 267.566 83.5993 268.032 83.3379C268.499 83.0766 269.096 82.9459 269.824 82.9459C270.282 82.9459 270.688 83.0019 271.042 83.1139C271.397 83.2166 271.677 83.3566 271.882 83.5339C272.088 83.7113 272.19 83.9026 272.19 84.1079C272.19 84.2386 272.153 84.3879 272.078 84.5559C272.013 84.7239 271.915 84.8686 271.784 84.9899C271.663 85.1113 271.518 85.1719 271.35 85.1719C271.238 85.1719 271.126 85.1439 271.014 85.0879C270.912 85.0319 270.781 84.9759 270.622 84.9199C270.464 84.8639 270.258 84.8359 270.006 84.8359C269.586 84.8359 269.288 84.9293 269.11 85.1159C268.933 85.3026 268.844 85.5686 268.844 85.9139V86.8659C268.844 87.2113 268.933 87.4773 269.11 87.6639C269.288 87.8506 269.591 87.9439 270.02 87.9439C270.272 87.9439 270.473 87.9113 270.622 87.8459C270.772 87.7806 270.898 87.7199 271 87.6639C271.112 87.5986 271.229 87.5659 271.35 87.5659C271.546 87.5659 271.714 87.6219 271.854 87.7339C271.994 87.8459 272.097 87.9859 272.162 88.1539C272.237 88.3126 272.274 88.4619 272.274 88.6019C272.274 88.8073 272.167 89.0079 271.952 89.2039C271.738 89.3906 271.448 89.5446 271.084 89.6659C270.72 89.7779 270.31 89.8339 269.852 89.8339ZM274.17 89.6939C273.862 89.6939 273.605 89.6239 273.4 89.4839C273.204 89.3439 273.106 89.1899 273.106 89.0219V83.6879C273.106 83.4919 273.204 83.3333 273.4 83.2119C273.605 83.0906 273.862 83.0299 274.17 83.0299C274.44 83.0299 274.669 83.0906 274.856 83.2119C275.042 83.3333 275.136 83.4919 275.136 83.6879V84.2059C275.229 84.0006 275.36 83.8046 275.528 83.6179C275.705 83.4219 275.901 83.2633 276.116 83.1419C276.34 83.0113 276.568 82.9459 276.802 82.9459H277.208C277.413 82.9459 277.59 83.0393 277.74 83.2259C277.898 83.4126 277.978 83.6319 277.978 83.8839C277.978 84.1453 277.898 84.3693 277.74 84.5559C277.59 84.7426 277.413 84.8359 277.208 84.8359H276.802C276.55 84.8359 276.307 84.9246 276.074 85.1019C275.84 85.2699 275.649 85.5079 275.5 85.8159C275.35 86.1239 275.276 86.4926 275.276 86.9219V89.0219C275.276 89.1899 275.168 89.3439 274.954 89.4839C274.739 89.6239 274.478 89.6939 274.17 89.6939ZM279.693 89.6939C279.376 89.6939 279.115 89.6239 278.909 89.4839C278.713 89.3439 278.615 89.1899 278.615 89.0219V83.6879C278.615 83.4919 278.713 83.3333 278.909 83.2119C279.115 83.0906 279.376 83.0299 279.693 83.0299C279.992 83.0299 280.249 83.0906 280.463 83.2119C280.678 83.3333 280.785 83.4919 280.785 83.6879V89.0219C280.785 89.1899 280.678 89.3439 280.463 89.4839C280.249 89.6239 279.992 89.6939 279.693 89.6939ZM279.693 81.7419C279.376 81.7419 279.105 81.6393 278.881 81.4339C278.657 81.2286 278.545 80.9953 278.545 80.7339C278.545 80.4633 278.657 80.2299 278.881 80.0339C279.105 79.8379 279.376 79.7399 279.693 79.7399C280.011 79.7399 280.277 79.8379 280.491 80.0339C280.715 80.2299 280.827 80.4633 280.827 80.7339C280.827 80.9953 280.715 81.2286 280.491 81.4339C280.277 81.6393 280.011 81.7419 279.693 81.7419ZM283.111 92.7319C282.803 92.7319 282.547 92.6619 282.341 92.5219C282.145 92.3819 282.047 92.2279 282.047 92.0599V83.6879C282.047 83.4919 282.145 83.3333 282.341 83.2119C282.547 83.0906 282.794 83.0299 283.083 83.0299C283.373 83.0299 283.611 83.0906 283.797 83.2119C283.984 83.3333 284.077 83.4919 284.077 83.6879V84.0099C284.236 83.7393 284.479 83.4966 284.805 83.2819C285.141 83.0579 285.529 82.9459 285.967 82.9459C286.443 82.9459 286.868 83.0813 287.241 83.3519C287.624 83.6133 287.923 83.9679 288.137 84.4159C288.361 84.8546 288.473 85.3446 288.473 85.8859V86.8659C288.473 87.3793 288.361 87.8646 288.137 88.3219C287.913 88.7699 287.615 89.1339 287.241 89.4139C286.877 89.6939 286.476 89.8339 286.037 89.8339C285.627 89.8339 285.253 89.7219 284.917 89.4979C284.581 89.2646 284.348 89.0033 284.217 88.7139V92.0599C284.217 92.2279 284.11 92.3819 283.895 92.5219C283.681 92.6619 283.419 92.7319 283.111 92.7319ZM285.267 87.9439C285.538 87.9439 285.776 87.8319 285.981 87.6079C286.196 87.3839 286.303 87.1366 286.303 86.8659V85.8859C286.303 85.6153 286.201 85.3726 285.995 85.1579C285.79 84.9433 285.538 84.8359 285.239 84.8359C284.987 84.8359 284.754 84.9293 284.539 85.1159C284.325 85.3026 284.217 85.5593 284.217 85.8859V87.0479C284.217 87.1226 284.259 87.2346 284.343 87.3839C284.437 87.5239 284.563 87.6546 284.721 87.7759C284.88 87.8879 285.062 87.9439 285.267 87.9439ZM292.214 89.6939C291.328 89.6939 290.646 89.5073 290.17 89.1339C289.704 88.7513 289.47 88.1493 289.47 87.3279V80.7899C289.47 80.5939 289.587 80.4353 289.82 80.3139C290.054 80.1926 290.296 80.1319 290.548 80.1319C290.819 80.1319 291.066 80.1926 291.29 80.3139C291.524 80.4353 291.64 80.5939 291.64 80.7899V83.0299H293.222C293.4 83.0299 293.53 83.1139 293.614 83.2819C293.708 83.4406 293.754 83.6133 293.754 83.7999C293.754 83.9959 293.708 84.1733 293.614 84.3319C293.53 84.4906 293.4 84.5699 293.222 84.5699H291.64V87.3279C291.64 87.5333 291.682 87.6779 291.766 87.7619C291.85 87.8366 292 87.8739 292.214 87.8739H292.816C293.134 87.8739 293.367 87.9719 293.516 88.1679C293.666 88.3546 293.74 88.5599 293.74 88.7839C293.74 89.0173 293.666 89.2273 293.516 89.4139C293.367 89.6006 293.134 89.6939 292.816 89.6939H292.214Z" fill="#202020"/>
<g filter="url(#filter4_i)">
<circle cx="158.017" cy="35.0172" r="35" fill="#F0DB4F"/>
</g>
<path d="M129.615 41.1012C128.953 41.1012 128.355 40.9892 127.823 40.7652C127.291 40.5319 126.871 40.1959 126.563 39.7572C126.255 39.3185 126.101 38.7912 126.101 38.1752C126.101 37.7552 126.19 37.4799 126.367 37.3492C126.554 37.2092 126.834 37.1392 127.207 37.1392C127.487 37.1392 127.73 37.1859 127.935 37.2792C128.15 37.3632 128.267 37.5359 128.285 37.7972C128.304 37.9745 128.337 38.1752 128.383 38.3992C128.43 38.6139 128.537 38.8005 128.705 38.9592C128.873 39.1179 129.144 39.1972 129.517 39.1972C129.928 39.1972 130.241 39.0852 130.455 38.8612C130.679 38.6279 130.791 38.2732 130.791 37.7972V32.6872H129.573C129.368 32.6872 129.205 32.5939 129.083 32.4072C128.971 32.2112 128.915 31.9825 128.915 31.7212C128.915 31.4972 128.967 31.2872 129.069 31.0912C129.172 30.8859 129.34 30.7832 129.573 30.7832H132.023C132.266 30.7832 132.485 30.8392 132.681 30.9512C132.877 31.0632 132.975 31.2312 132.975 31.4552V37.7972C132.975 38.5999 132.821 39.2439 132.513 39.7292C132.215 40.2145 131.809 40.5645 131.295 40.7792C130.791 40.9939 130.231 41.1012 129.615 41.1012ZM135.649 41.1572C135.164 41.1572 134.744 41.0079 134.389 40.7092C134.034 40.4012 133.857 39.9299 133.857 39.2952C133.857 38.7445 133.997 38.3152 134.277 38.0072C134.557 37.6992 134.94 37.4845 135.425 37.3632C135.92 37.2419 136.489 37.1812 137.133 37.1812H137.637V37.0412C137.637 36.7985 137.562 36.5652 137.413 36.3412C137.264 36.1172 136.988 36.0052 136.587 36.0052C136.204 36.0052 135.92 36.0425 135.733 36.1172C135.546 36.1919 135.402 36.2712 135.299 36.3552C135.196 36.4299 135.08 36.4672 134.949 36.4672C134.716 36.4672 134.534 36.3505 134.403 36.1172C134.282 35.8839 134.221 35.6412 134.221 35.3892C134.221 35.1652 134.347 34.9692 134.599 34.8012C134.86 34.6332 135.173 34.5025 135.537 34.4092C135.91 34.3159 136.27 34.2692 136.615 34.2692C137.38 34.2692 137.996 34.3999 138.463 34.6612C138.93 34.9225 139.27 35.2632 139.485 35.6832C139.7 36.0939 139.807 36.5372 139.807 37.0132V40.3452C139.807 40.5319 139.704 40.6905 139.499 40.8212C139.303 40.9519 139.051 41.0172 138.743 41.0172C138.472 41.0172 138.244 40.9519 138.057 40.8212C137.87 40.6905 137.777 40.5319 137.777 40.3452V40.0372C137.525 40.3265 137.231 40.5879 136.895 40.8212C136.559 41.0452 136.144 41.1572 135.649 41.1572ZM136.587 39.5752C136.736 39.5752 136.89 39.5192 137.049 39.4072C137.208 39.2859 137.343 39.1272 137.455 38.9312C137.576 38.7352 137.637 38.5205 137.637 38.2872V38.2312H137.581C137.32 38.2312 137.068 38.2499 136.825 38.2872C136.592 38.3152 136.4 38.3852 136.251 38.4972C136.111 38.5999 136.041 38.7632 136.041 38.9872C136.041 39.1925 136.092 39.3419 136.195 39.4352C136.298 39.5285 136.428 39.5752 136.587 39.5752ZM143.819 41.1992C143.604 41.1992 143.399 41.1665 143.203 41.1012C143.016 41.0359 142.895 40.9425 142.839 40.8212L140.375 35.4312C140.328 35.3565 140.305 35.2679 140.305 35.1652C140.305 34.9972 140.389 34.8432 140.557 34.7032C140.725 34.5632 140.921 34.4559 141.145 34.3812C141.378 34.2972 141.588 34.2552 141.775 34.2552C141.905 34.2552 142.027 34.2832 142.139 34.3392C142.251 34.3859 142.33 34.4745 142.377 34.6052L143.819 38.2592L145.261 34.6052C145.307 34.4745 145.382 34.3859 145.485 34.3392C145.597 34.2832 145.718 34.2552 145.849 34.2552C145.998 34.2552 146.189 34.2972 146.423 34.3812C146.656 34.4652 146.861 34.5772 147.039 34.7172C147.225 34.8572 147.319 35.0112 147.319 35.1792C147.319 35.2632 147.3 35.3472 147.263 35.4312L144.799 40.8212C144.743 40.9425 144.617 41.0359 144.421 41.1012C144.234 41.1665 144.033 41.1992 143.819 41.1992ZM149.376 41.1572C148.89 41.1572 148.47 41.0079 148.116 40.7092C147.761 40.4012 147.584 39.9299 147.584 39.2952C147.584 38.7445 147.724 38.3152 148.004 38.0072C148.284 37.6992 148.666 37.4845 149.152 37.3632C149.646 37.2419 150.216 37.1812 150.86 37.1812H151.364V37.0412C151.364 36.7985 151.289 36.5652 151.14 36.3412C150.99 36.1172 150.715 36.0052 150.314 36.0052C149.931 36.0052 149.646 36.0425 149.46 36.1172C149.273 36.1919 149.128 36.2712 149.026 36.3552C148.923 36.4299 148.806 36.4672 148.676 36.4672C148.442 36.4672 148.26 36.3505 148.13 36.1172C148.008 35.8839 147.948 35.6412 147.948 35.3892C147.948 35.1652 148.074 34.9692 148.326 34.8012C148.587 34.6332 148.9 34.5025 149.264 34.4092C149.637 34.3159 149.996 34.2692 150.342 34.2692C151.107 34.2692 151.723 34.3999 152.19 34.6612C152.656 34.9225 152.997 35.2632 153.212 35.6832C153.426 36.0939 153.534 36.5372 153.534 37.0132V40.3452C153.534 40.5319 153.431 40.6905 153.226 40.8212C153.03 40.9519 152.778 41.0172 152.47 41.0172C152.199 41.0172 151.97 40.9519 151.784 40.8212C151.597 40.6905 151.504 40.5319 151.504 40.3452V40.0372C151.252 40.3265 150.958 40.5879 150.622 40.8212C150.286 41.0452 149.87 41.1572 149.376 41.1572ZM150.314 39.5752C150.463 39.5752 150.617 39.5192 150.776 39.4072C150.934 39.2859 151.07 39.1272 151.182 38.9312C151.303 38.7352 151.364 38.5205 151.364 38.2872V38.2312H151.308C151.046 38.2312 150.794 38.2499 150.552 38.2872C150.318 38.3152 150.127 38.3852 149.978 38.4972C149.838 38.5999 149.768 38.7632 149.768 38.9872C149.768 39.1925 149.819 39.3419 149.922 39.4352C150.024 39.5285 150.155 39.5752 150.314 39.5752ZM157.753 41.1572C157.146 41.1572 156.586 41.0685 156.073 40.8912C155.56 40.7139 155.149 40.4899 154.841 40.2192C154.533 39.9392 154.379 39.6452 154.379 39.3372C154.379 39.1785 154.421 39.0105 154.505 38.8332C154.589 38.6465 154.701 38.4879 154.841 38.3572C154.99 38.2265 155.154 38.1612 155.331 38.1612C155.499 38.1612 155.653 38.2125 155.793 38.3152C155.942 38.4179 156.101 38.5392 156.269 38.6792C156.446 38.8192 156.647 38.9405 156.871 39.0432C157.104 39.1459 157.384 39.1972 157.711 39.1972C157.926 39.1972 158.136 39.1692 158.341 39.1132C158.556 39.0479 158.728 38.9499 158.859 38.8192C158.999 38.6792 159.069 38.4972 159.069 38.2732C159.069 37.9932 158.962 37.7599 158.747 37.5732C158.532 37.3772 158.257 37.1999 157.921 37.0412C157.585 36.8732 157.226 36.7005 156.843 36.5232C156.47 36.3459 156.115 36.1359 155.779 35.8932C155.443 35.6412 155.168 35.3332 154.953 34.9692C154.738 34.5959 154.631 34.1385 154.631 33.5972C154.631 33.0745 154.734 32.6312 154.939 32.2672C155.144 31.8939 155.42 31.5952 155.765 31.3712C156.11 31.1379 156.493 30.9699 156.913 30.8672C157.342 30.7552 157.776 30.6992 158.215 30.6992C158.402 30.6992 158.649 30.7132 158.957 30.7412C159.265 30.7692 159.573 30.8252 159.881 30.9092C160.198 30.9932 160.464 31.1192 160.679 31.2872C160.894 31.4459 161.001 31.6605 161.001 31.9312C161.001 32.0525 160.968 32.2065 160.903 32.3932C160.847 32.5705 160.754 32.7292 160.623 32.8692C160.502 33.0092 160.338 33.0792 160.133 33.0792C159.965 33.0792 159.806 33.0372 159.657 32.9532C159.517 32.8599 159.335 32.7712 159.111 32.6872C158.896 32.5939 158.598 32.5472 158.215 32.5472C157.72 32.5472 157.361 32.6359 157.137 32.8132C156.922 32.9812 156.815 33.1725 156.815 33.3872C156.815 33.6205 156.922 33.8165 157.137 33.9752C157.352 34.1339 157.627 34.2879 157.963 34.4372C158.299 34.5772 158.654 34.7405 159.027 34.9272C159.41 35.1045 159.769 35.3239 160.105 35.5852C160.441 35.8465 160.716 36.1779 160.931 36.5792C161.146 36.9712 161.253 37.4612 161.253 38.0492C161.253 38.7212 161.099 39.2905 160.791 39.7572C160.492 40.2145 160.082 40.5645 159.559 40.8072C159.036 41.0405 158.434 41.1572 157.753 41.1572ZM165.148 41.1572C164.41 41.1572 163.804 41.0265 163.328 40.7652C162.861 40.5039 162.516 40.1492 162.292 39.7012C162.077 39.2532 161.97 38.7492 161.97 38.1892V37.2372C161.97 36.6772 162.077 36.1732 162.292 35.7252C162.516 35.2772 162.861 34.9225 163.328 34.6612C163.794 34.3999 164.392 34.2692 165.12 34.2692C165.577 34.2692 165.983 34.3252 166.338 34.4372C166.692 34.5399 166.972 34.6799 167.178 34.8572C167.383 35.0345 167.486 35.2259 167.486 35.4312C167.486 35.5619 167.448 35.7112 167.374 35.8792C167.308 36.0472 167.21 36.1919 167.08 36.3132C166.958 36.4345 166.814 36.4952 166.646 36.4952C166.534 36.4952 166.422 36.4672 166.31 36.4112C166.207 36.3552 166.076 36.2992 165.918 36.2432C165.759 36.1872 165.554 36.1592 165.302 36.1592C164.882 36.1592 164.583 36.2525 164.406 36.4392C164.228 36.6259 164.14 36.8919 164.14 37.2372V38.1892C164.14 38.5345 164.228 38.8005 164.406 38.9872C164.583 39.1739 164.886 39.2672 165.316 39.2672C165.568 39.2672 165.768 39.2345 165.918 39.1692C166.067 39.1039 166.193 39.0432 166.296 38.9872C166.408 38.9219 166.524 38.8892 166.646 38.8892C166.842 38.8892 167.01 38.9452 167.15 39.0572C167.29 39.1692 167.392 39.3092 167.458 39.4772C167.532 39.6359 167.57 39.7852 167.57 39.9252C167.57 40.1305 167.462 40.3312 167.248 40.5272C167.033 40.7139 166.744 40.8679 166.38 40.9892C166.016 41.1012 165.605 41.1572 165.148 41.1572ZM169.465 41.0172C169.157 41.0172 168.9 40.9472 168.695 40.8072C168.499 40.6672 168.401 40.5132 168.401 40.3452V35.0112C168.401 34.8152 168.499 34.6565 168.695 34.5352C168.9 34.4139 169.157 34.3532 169.465 34.3532C169.736 34.3532 169.964 34.4139 170.151 34.5352C170.338 34.6565 170.431 34.8152 170.431 35.0112V35.5292C170.524 35.3239 170.655 35.1279 170.823 34.9412C171 34.7452 171.196 34.5865 171.411 34.4652C171.635 34.3345 171.864 34.2692 172.097 34.2692H172.503C172.708 34.2692 172.886 34.3625 173.035 34.5492C173.194 34.7359 173.273 34.9552 173.273 35.2072C173.273 35.4685 173.194 35.6925 173.035 35.8792C172.886 36.0659 172.708 36.1592 172.503 36.1592H172.097C171.845 36.1592 171.602 36.2479 171.369 36.4252C171.136 36.5932 170.944 36.8312 170.795 37.1392C170.646 37.4472 170.571 37.8159 170.571 38.2452V40.3452C170.571 40.5132 170.464 40.6672 170.249 40.8072C170.034 40.9472 169.773 41.0172 169.465 41.0172ZM174.989 41.0172C174.672 41.0172 174.41 40.9472 174.205 40.8072C174.009 40.6672 173.911 40.5132 173.911 40.3452V35.0112C173.911 34.8152 174.009 34.6565 174.205 34.5352C174.41 34.4139 174.672 34.3532 174.989 34.3532C175.288 34.3532 175.544 34.4139 175.759 34.5352C175.974 34.6565 176.081 34.8152 176.081 35.0112V40.3452C176.081 40.5132 175.974 40.6672 175.759 40.8072C175.544 40.9472 175.288 41.0172 174.989 41.0172ZM174.989 33.0652C174.672 33.0652 174.401 32.9625 174.177 32.7572C173.953 32.5519 173.841 32.3185 173.841 32.0572C173.841 31.7865 173.953 31.5532 174.177 31.3572C174.401 31.1612 174.672 31.0632 174.989 31.0632C175.306 31.0632 175.572 31.1612 175.787 31.3572C176.011 31.5532 176.123 31.7865 176.123 32.0572C176.123 32.3185 176.011 32.5519 175.787 32.7572C175.572 32.9625 175.306 33.0652 174.989 33.0652ZM178.407 44.0552C178.099 44.0552 177.842 43.9852 177.637 43.8452C177.441 43.7052 177.343 43.5512 177.343 43.3832V35.0112C177.343 34.8152 177.441 34.6565 177.637 34.5352C177.842 34.4139 178.09 34.3532 178.379 34.3532C178.668 34.3532 178.906 34.4139 179.093 34.5352C179.28 34.6565 179.373 34.8152 179.373 35.0112V35.3332C179.532 35.0625 179.774 34.8199 180.101 34.6052C180.437 34.3812 180.824 34.2692 181.263 34.2692C181.739 34.2692 182.164 34.4045 182.537 34.6752C182.92 34.9365 183.218 35.2912 183.433 35.7392C183.657 36.1779 183.769 36.6679 183.769 37.2092V38.1892C183.769 38.7025 183.657 39.1879 183.433 39.6452C183.209 40.0932 182.91 40.4572 182.537 40.7372C182.173 41.0172 181.772 41.1572 181.333 41.1572C180.922 41.1572 180.549 41.0452 180.213 40.8212C179.877 40.5879 179.644 40.3265 179.513 40.0372V43.3832C179.513 43.5512 179.406 43.7052 179.191 43.8452C178.976 43.9852 178.715 44.0552 178.407 44.0552ZM180.563 39.2672C180.834 39.2672 181.072 39.1552 181.277 38.9312C181.492 38.7072 181.599 38.4599 181.599 38.1892V37.2092C181.599 36.9385 181.496 36.6959 181.291 36.4812C181.086 36.2665 180.834 36.1592 180.535 36.1592C180.283 36.1592 180.05 36.2525 179.835 36.4392C179.62 36.6259 179.513 36.8825 179.513 37.2092V38.3712C179.513 38.4459 179.555 38.5579 179.639 38.7072C179.732 38.8472 179.858 38.9779 180.017 39.0992C180.176 39.2112 180.358 39.2672 180.563 39.2672ZM187.51 41.0172C186.623 41.0172 185.942 40.8305 185.466 40.4572C184.999 40.0745 184.766 39.4725 184.766 38.6512V32.1132C184.766 31.9172 184.882 31.7585 185.116 31.6372C185.349 31.5159 185.592 31.4552 185.844 31.4552C186.114 31.4552 186.362 31.5159 186.586 31.6372C186.819 31.7585 186.936 31.9172 186.936 32.1132V34.3532H188.518C188.695 34.3532 188.826 34.4372 188.91 34.6052C189.003 34.7639 189.05 34.9365 189.05 35.1232C189.05 35.3192 189.003 35.4965 188.91 35.6552C188.826 35.8139 188.695 35.8932 188.518 35.8932H186.936V38.6512C186.936 38.8565 186.978 39.0012 187.062 39.0852C187.146 39.1599 187.295 39.1972 187.51 39.1972H188.112C188.429 39.1972 188.662 39.2952 188.812 39.4912C188.961 39.6779 189.036 39.8832 189.036 40.1072C189.036 40.3405 188.961 40.5505 188.812 40.7372C188.662 40.9239 188.429 41.0172 188.112 41.0172H187.51Z" fill="#202020"/>
<defs>
<filter id="filter0_i" x="5" y="145" width="70" height="74" filterUnits="userSpaceOnUse" color-interpolation-filters="sRGB">
<feFlood flood-opacity="0" result="BackgroundImageFix"/>
<feBlend mode="normal" in="SourceGraphic" in2="BackgroundImageFix" result="shape"/>
<feColorMatrix in="SourceAlpha" type="matrix" values="0 0 0 0 0 0 0 0 0 0 0 0 0 0 0 0 0 0 127 0" result="hardAlpha"/>
<feOffset dy="4"/>
<feGaussianBlur stdDeviation="2"/>
<feComposite in2="hardAlpha" operator="arithmetic" k2="-1" k3="1"/>
<feColorMatrix type="matrix" values="0 0 0 0 0 0 0 0 0 0 0 0 0 0 0 0 0 0 0.25 0"/>
<feBlend mode="normal" in2="shape" result="effect1_innerShadow"/>
</filter>
<filter id="filter1_i" x="6" y="40" width="96.4301" height="100.43" filterUnits="userSpaceOnUse" color-interpolation-filters="sRGB">
<feFlood flood-opacity="0" result="BackgroundImageFix"/>
<feBlend mode="normal" in="SourceGraphic" in2="BackgroundImageFix" result="shape"/>
<feColorMatrix in="SourceAlpha" type="matrix" values="0 0 0 0 0 0 0 0 0 0 0 0 0 0 0 0 0 0 127 0" result="hardAlpha"/>
<feOffset dy="4"/>
<feGaussianBlur stdDeviation="2"/>
<feComposite in2="hardAlpha" operator="arithmetic" k2="-1" k3="1"/>
<feColorMatrix type="matrix" values="0 0 0 0 0 0 0 0 0 0 0 0 0 0 0 0 0 0 0.25 0"/>
<feBlend mode="normal" in2="shape" result="effect1_innerShadow"/>
</filter>
<filter id="filter2_i" x="263" y="148" width="70" height="74" filterUnits="userSpaceOnUse" color-interpolation-filters="sRGB">
<feFlood flood-opacity="0" result="BackgroundImageFix"/>
<feBlend mode="normal" in="SourceGraphic" in2="BackgroundImageFix" result="shape"/>
<feColorMatrix in="SourceAlpha" type="matrix" values="0 0 0 0 0 0 0 0 0 0 0 0 0 0 0 0 0 0 127 0" result="hardAlpha"/>
<feOffset dy="4"/>
<feGaussianBlur stdDeviation="2"/>
<feComposite in2="hardAlpha" operator="arithmetic" k2="-1" k3="1"/>
<feColorMatrix type="matrix" values="0 0 0 0 0 0 0 0 0 0 0 0 0 0 0 0 0 0 0.25 0"/>
<feBlend mode="normal" in2="shape" result="effect1_innerShadow"/>
</filter>
<filter id="filter3_i" x="213.899" y="34.8989" width="98.2022" height="102.202" filterUnits="userSpaceOnUse" color-interpolation-filters="sRGB">
<feFlood flood-opacity="0" result="BackgroundImageFix"/>
<feBlend mode="normal" in="SourceGraphic" in2="BackgroundImageFix" result="shape"/>
<feColorMatrix in="SourceAlpha" type="matrix" values="0 0 0 0 0 0 0 0 0 0 0 0 0 0 0 0 0 0 127 0" result="hardAlpha"/>
<feOffset dy="4"/>
<feGaussianBlur stdDeviation="2"/>
<feComposite in2="hardAlpha" operator="arithmetic" k2="-1" k3="1"/>
<feColorMatrix type="matrix" values="0 0 0 0 0 0 0 0 0 0 0 0 0 0 0 0 0 0 0.25 0"/>
<feBlend mode="normal" in2="shape" result="effect1_innerShadow"/>
</filter>
<filter id="filter4_i" x="123.017" y="0.0172119" width="70" height="74" filterUnits="userSpaceOnUse" color-interpolation-filters="sRGB">
<feFlood flood-opacity="0" result="BackgroundImageFix"/>
<feBlend mode="normal" in="SourceGraphic" in2="BackgroundImageFix" result="shape"/>
<feColorMatrix in="SourceAlpha" type="matrix" values="0 0 0 0 0 0 0 0 0 0 0 0 0 0 0 0 0 0 127 0" result="hardAlpha"/>
<feOffset dy="4"/>
<feGaussianBlur stdDeviation="2"/>
<feComposite in2="hardAlpha" operator="arithmetic" k2="-1" k3="1"/>
<feColorMatrix type="matrix" values="0 0 0 0 0 0 0 0 0 0 0 0 0 0 0 0 0 0 0.25 0"/>
<feBlend mode="normal" in2="shape" result="effect1_innerShadow"/>
</filter>
</defs>
</svg>
