<svg width="1100" height="377" viewBox="0 0 481 77" fill="none" xmlns="http://www.w3.org/2000/svg">
<path d="M54.1637 56.15C54.5637 56.15 54.9637 56.2333 55.3637 56.4C55.7637 56.5333 56.147 56.7833 56.5137 57.15L63.2137 64.2C60.2803 68.0333 56.597 70.9333 52.1637 72.9C47.7637 74.8333 42.547 75.8 36.5137 75.8C30.9803 75.8 26.0137 74.8667 21.6137 73C17.247 71.1 13.5303 68.5 10.4637 65.2C7.43034 61.8667 5.09701 57.9333 3.46367 53.4C1.83034 48.8333 1.01367 43.8833 1.01367 38.55C1.01367 33.1167 1.89701 28.1333 3.66367 23.6C5.43034 19.0333 7.91367 15.1 11.1137 11.8C14.3137 8.5 18.147 5.93333 22.6137 4.09999C27.0803 2.26666 31.997 1.35 37.3637 1.35C40.097 1.35 42.6637 1.6 45.0637 2.1C47.497 2.56666 49.7637 3.23333 51.8637 4.09999C53.9637 4.93333 55.897 5.95 57.6637 7.14999C59.4303 8.34999 60.997 9.65 62.3637 11.05L56.6637 18.7C56.297 19.1667 55.8637 19.6 55.3637 20C54.8637 20.3667 54.1637 20.55 53.2637 20.55C52.6637 20.55 52.097 20.4167 51.5637 20.15C51.0303 19.8833 50.4637 19.5667 49.8637 19.2C49.2637 18.8 48.597 18.3833 47.8637 17.95C47.1637 17.4833 46.3137 17.0667 45.3137 16.7C44.347 16.3 43.197 15.9667 41.8637 15.7C40.5637 15.4333 39.0303 15.3 37.2637 15.3C34.4637 15.3 31.897 15.8167 29.5637 16.85C27.2637 17.8833 25.2637 19.4 23.5637 21.4C21.897 23.3667 20.597 25.8 19.6637 28.7C18.7637 31.5667 18.3137 34.85 18.3137 38.55C18.3137 42.2833 18.8137 45.6 19.8137 48.5C20.847 51.4 22.2303 53.85 23.9637 55.85C25.7303 57.8167 27.7803 59.3167 30.1137 60.35C32.447 61.3833 34.947 61.9 37.6137 61.9C39.147 61.9 40.547 61.8333 41.8137 61.7C43.0803 61.5333 44.2637 61.2833 45.3637 60.95C46.4637 60.5833 47.497 60.1167 48.4637 59.55C49.4303 58.95 50.4137 58.2 51.4137 57.3C51.8137 56.9667 52.247 56.7 52.7137 56.5C53.1803 56.2667 53.6637 56.15 54.1637 56.15ZM140.431 38.55C140.431 43.8167 139.514 48.7167 137.681 53.25C135.881 57.7833 133.331 61.7333 130.031 65.1C126.731 68.4333 122.748 71.05 118.081 72.95C113.448 74.85 108.298 75.8 102.631 75.8C96.9642 75.8 91.7975 74.85 87.1309 72.95C82.4642 71.05 78.4642 68.4333 75.1309 65.1C71.8309 61.7333 69.2642 57.7833 67.4309 53.25C65.6309 48.7167 64.7309 43.8167 64.7309 38.55C64.7309 33.2833 65.6309 28.3833 67.4309 23.85C69.2642 19.3167 71.8309 15.3833 75.1309 12.05C78.4642 8.71666 82.4642 6.1 87.1309 4.2C91.7975 2.3 96.9642 1.35 102.631 1.35C108.298 1.35 113.448 2.31666 118.081 4.25C122.748 6.15 126.731 8.76667 130.031 12.1C133.331 15.4333 135.881 19.3667 137.681 23.9C139.514 28.4333 140.431 33.3167 140.431 38.55ZM123.131 38.55C123.131 34.95 122.664 31.7167 121.731 28.85C120.798 25.95 119.448 23.5 117.681 21.5C115.948 19.5 113.814 17.9667 111.281 16.9C108.748 15.8333 105.864 15.3 102.631 15.3C99.3642 15.3 96.4475 15.8333 93.8809 16.9C91.3475 17.9667 89.1975 19.5 87.4309 21.5C85.6975 23.5 84.3642 25.95 83.4309 28.85C82.4975 31.7167 82.0309 34.95 82.0309 38.55C82.0309 42.1833 82.4975 45.45 83.4309 48.35C84.3642 51.2167 85.6975 53.65 87.4309 55.65C89.1975 57.65 91.3475 59.1833 93.8809 60.25C96.4475 61.2833 99.3642 61.8 102.631 61.8C105.864 61.8 108.748 61.2833 111.281 60.25C113.814 59.1833 115.948 57.65 117.681 55.65C119.448 53.65 120.798 51.2167 121.731 48.35C122.664 45.45 123.131 42.1833 123.131 38.55ZM213.976 2.15V75H205.176C203.876 75 202.776 74.8 201.876 74.4C201.01 73.9667 200.143 73.2333 199.276 72.2L164.926 28.75C165.06 30.05 165.143 31.3167 165.176 32.55C165.243 33.75 165.276 34.8833 165.276 35.95V75H150.376V2.15H159.276C160.01 2.15 160.626 2.18333 161.126 2.25C161.626 2.31666 162.076 2.45 162.476 2.65C162.876 2.81667 163.26 3.06666 163.626 3.4C163.993 3.73333 164.41 4.18333 164.876 4.75L199.526 48.5C199.36 47.1 199.243 45.75 199.176 44.45C199.11 43.1167 199.076 41.8667 199.076 40.7V2.15H213.976ZM280.461 15.55H259.961V75H243.061V15.55H222.561V2.15H280.461V15.55ZM320.419 47.15L313.669 27.2C313.169 25.9333 312.636 24.45 312.069 22.75C311.502 21.0167 310.936 19.15 310.369 17.15C309.869 19.1833 309.336 21.0667 308.769 22.8C308.202 24.5333 307.669 26.0333 307.169 27.3L300.469 47.15H320.419ZM347.269 75H334.169C332.702 75 331.519 74.6667 330.619 74C329.719 73.3 329.036 72.4167 328.569 71.35L324.269 58.65H296.569L292.269 71.35C291.902 72.2833 291.236 73.1333 290.269 73.9C289.336 74.6333 288.169 75 286.769 75H273.569L301.769 2.15H319.069L347.269 75ZM399.671 56.15C400.071 56.15 400.471 56.2333 400.871 56.4C401.271 56.5333 401.655 56.7833 402.021 57.15L408.721 64.2C405.788 68.0333 402.105 70.9333 397.671 72.9C393.271 74.8333 388.055 75.8 382.021 75.8C376.488 75.8 371.521 74.8667 367.121 73C362.755 71.1 359.038 68.5 355.971 65.2C352.938 61.8667 350.605 57.9333 348.971 53.4C347.338 48.8333 346.521 43.8833 346.521 38.55C346.521 33.1167 347.405 28.1333 349.171 23.6C350.938 19.0333 353.421 15.1 356.621 11.8C359.821 8.5 363.655 5.93333 368.121 4.09999C372.588 2.26666 377.505 1.35 382.871 1.35C385.605 1.35 388.171 1.6 390.571 2.1C393.005 2.56666 395.271 3.23333 397.371 4.09999C399.471 4.93333 401.405 5.95 403.171 7.14999C404.938 8.34999 406.505 9.65 407.871 11.05L402.171 18.7C401.805 19.1667 401.371 19.6 400.871 20C400.371 20.3667 399.671 20.55 398.771 20.55C398.171 20.55 397.605 20.4167 397.071 20.15C396.538 19.8833 395.971 19.5667 395.371 19.2C394.771 18.8 394.105 18.3833 393.371 17.95C392.671 17.4833 391.821 17.0667 390.821 16.7C389.855 16.3 388.705 15.9667 387.371 15.7C386.071 15.4333 384.538 15.3 382.771 15.3C379.971 15.3 377.405 15.8167 375.071 16.85C372.771 17.8833 370.771 19.4 369.071 21.4C367.405 23.3667 366.105 25.8 365.171 28.7C364.271 31.5667 363.821 34.85 363.821 38.55C363.821 42.2833 364.321 45.6 365.321 48.5C366.355 51.4 367.738 53.85 369.471 55.85C371.238 57.8167 373.288 59.3167 375.621 60.35C377.955 61.3833 380.455 61.9 383.121 61.9C384.655 61.9 386.055 61.8333 387.321 61.7C388.588 61.5333 389.771 61.2833 390.871 60.95C391.971 60.5833 393.005 60.1167 393.971 59.55C394.938 58.95 395.921 58.2 396.921 57.3C397.321 56.9667 397.755 56.7 398.221 56.5C398.688 56.2667 399.171 56.15 399.671 56.15ZM468.449 15.55H447.949V75H431.049V15.55H410.549V2.15H468.449V15.55Z" fill="" fill-opacity="0.05"/>
<path d="M55.3637 56.4L54.9791 57.3231L55.0128 57.3371L55.0474 57.3487L55.3637 56.4ZM56.5137 57.15L57.2385 56.4611L57.2298 56.4519L57.2208 56.4429L56.5137 57.15ZM63.2137 64.2L64.0078 64.8077L64.5266 64.1298L63.9385 63.5111L63.2137 64.2ZM52.1637 72.9L52.566 73.8155L52.5692 73.8141L52.1637 72.9ZM21.6137 73L21.2147 73.917L21.2231 73.9206L21.6137 73ZM10.4637 65.2L9.72403 65.8731L9.73114 65.8807L10.4637 65.2ZM3.46367 53.4L2.52208 53.7368L2.52287 53.739L3.46367 53.4ZM3.66367 23.6L4.59542 23.9631L4.59631 23.9608L3.66367 23.6ZM11.1137 11.8L11.8316 12.4961L11.8316 12.4961L11.1137 11.8ZM22.6137 4.09999L22.234 3.17489L22.234 3.17489L22.6137 4.09999ZM45.0637 2.1L44.8597 3.07898L44.8675 3.0806L44.8753 3.0821L45.0637 2.1ZM51.8637 4.09999L51.4821 5.02445L51.4948 5.02949L51.8637 4.09999ZM57.6637 7.14999L58.2256 6.32278L58.2256 6.32278L57.6637 7.14999ZM62.3637 11.05L63.1656 11.6475L63.6758 10.9626L63.0792 10.3515L62.3637 11.05ZM56.6637 18.7L57.45 19.3178L57.4579 19.3078L57.4656 19.2975L56.6637 18.7ZM55.3637 20L55.955 20.8064L55.972 20.794L55.9884 20.7809L55.3637 20ZM51.5637 20.15L51.1165 21.0444L51.1165 21.0444L51.5637 20.15ZM49.8637 19.2L49.309 20.032L49.3254 20.043L49.3422 20.0533L49.8637 19.2ZM47.8637 17.95L47.309 18.782L47.3316 18.7971L47.3549 18.8109L47.8637 17.95ZM45.3137 16.7L44.9313 17.624L44.9502 17.6318L44.9694 17.6389L45.3137 16.7ZM41.8637 15.7L41.6627 16.6796L41.6676 16.6806L41.8637 15.7ZM29.5637 16.85L29.1587 15.9356L29.1539 15.9378L29.5637 16.85ZM23.5637 21.4L22.8017 20.7523L22.8008 20.7535L23.5637 21.4ZM19.6637 28.7L18.7117 28.3936L18.7096 28.4005L19.6637 28.7ZM19.8137 48.5L18.8683 48.826L18.8717 48.8356L19.8137 48.5ZM23.9637 55.85L23.208 56.5049L23.2138 56.5117L23.2198 56.5183L23.9637 55.85ZM41.8137 61.7L41.9184 62.6945L41.9313 62.6931L41.9441 62.6915L41.8137 61.7ZM45.3637 60.95L45.6537 61.907L45.6668 61.903L45.6799 61.8987L45.3637 60.95ZM48.4637 59.55L48.9694 60.4127L48.9803 60.4063L48.991 60.3996L48.4637 59.55ZM51.4137 57.3L50.7735 56.5318L50.7589 56.544L50.7447 56.5567L51.4137 57.3ZM52.7137 56.5L53.1076 57.4191L53.1346 57.4076L53.1609 57.3944L52.7137 56.5ZM54.1637 57.15C54.421 57.15 54.6907 57.2029 54.9791 57.3231L55.7483 55.4769C55.2367 55.2637 54.7064 55.15 54.1637 55.15V57.15ZM55.0474 57.3487C55.2702 57.4229 55.5249 57.5754 55.8066 57.8571L57.2208 56.4429C56.7691 55.9912 56.2572 55.6437 55.6799 55.4513L55.0474 57.3487ZM55.7888 57.8389L62.4888 64.8889L63.9385 63.5111L57.2385 56.4611L55.7888 57.8389ZM62.4195 63.5923C59.5885 67.2919 56.0391 70.0868 51.7582 71.9859L52.5692 73.8141C57.1549 71.7798 60.9722 68.7748 64.0078 64.8077L62.4195 63.5923ZM51.7614 71.9845C47.5162 73.8498 42.4427 74.8 36.5137 74.8V76.8C42.6513 76.8 48.0112 75.8169 52.5659 73.8155L51.7614 71.9845ZM36.5137 74.8C31.0936 74.8 26.2628 73.8861 22.0042 72.0794L21.2231 73.9206C25.7646 75.8473 30.8671 76.8 36.5137 76.8V74.8ZM22.0127 72.083C17.7649 70.2348 14.1638 67.7127 11.1962 64.5193L9.73114 65.8807C12.8968 69.2873 16.7291 71.9652 21.2147 73.917L22.0127 72.083ZM11.2033 64.527C8.26426 61.2973 5.99643 57.4795 4.40447 53.061L2.52287 53.739C4.19758 58.3871 6.59642 62.4361 9.72407 65.873L11.2033 64.527ZM4.40526 53.0632C2.81424 48.6149 2.01367 43.78 2.01367 38.55H0.013672C0.013672 43.9867 0.846436 49.0518 2.52209 53.7368L4.40526 53.0632ZM2.01367 38.55C2.01367 33.2264 2.87882 28.368 4.59542 23.9631L2.73192 23.2369C0.915186 27.8987 0.013672 33.0069 0.013672 38.55H2.01367ZM4.59631 23.9608C6.3178 19.5109 8.73089 15.6937 11.8316 12.4961L10.3958 11.1039C7.09645 14.5063 4.54287 18.5557 2.73103 23.2392L4.59631 23.9608ZM11.8316 12.4961C14.931 9.29987 18.6475 6.80888 22.9934 5.0251L22.234 3.17489C17.6466 5.05778 13.6964 7.70013 10.3958 11.1039L11.8316 12.4961ZM22.9934 5.0251C27.3268 3.24646 32.1127 2.35 37.3637 2.35V0.349998C31.8813 0.349998 26.8339 1.28687 22.234 3.17489L22.9934 5.0251ZM37.3637 2.35C40.0362 2.35 42.534 2.59444 44.8597 3.07898L45.2676 1.12102C42.7934 0.605551 40.1578 0.349998 37.3637 0.349998V2.35ZM44.8753 3.0821C47.2484 3.53721 49.4498 4.1856 51.4822 5.02437L52.2452 3.17562C50.0776 2.28106 47.7456 1.59611 45.252 1.11789L44.8753 3.0821ZM51.4948 5.02949C53.5309 5.83743 55.3989 6.82055 57.1018 7.97721L58.2256 6.32278C56.3951 5.07945 54.3965 4.02923 52.2325 3.1705L51.4948 5.02949ZM57.1018 7.97721C58.818 9.14297 60.3323 10.4006 61.6481 11.7485L63.0792 10.3515C61.6618 8.89939 60.0426 7.55702 58.2256 6.32278L57.1018 7.97721ZM61.5618 10.4525L55.8618 18.1025L57.4656 19.2975L63.1656 11.6475L61.5618 10.4525ZM55.8774 18.0822C55.5617 18.4839 55.1837 18.8633 54.739 19.2191L55.9884 20.7809C56.5436 20.3366 57.0323 19.8494 57.45 19.3178L55.8774 18.0822ZM54.7723 19.1936C54.5057 19.3891 54.0432 19.55 53.2637 19.55V21.55C54.2842 21.55 55.2217 21.3442 55.955 20.8064L54.7723 19.1936ZM53.2637 19.55C52.8179 19.55 52.4045 19.4524 52.0109 19.2556L51.1165 21.0444C51.7895 21.381 52.5094 21.55 53.2637 21.55V19.55ZM52.0109 19.2556C51.5069 19.0036 50.9651 18.7012 50.3851 18.3467L49.3422 20.0533C49.9622 20.4322 50.5538 20.7631 51.1165 21.0444L52.0109 19.2556ZM50.4184 18.3679C49.8009 17.9563 49.1186 17.53 48.3724 17.0891L47.3549 18.8109C48.0754 19.2366 48.7264 19.6437 49.309 20.032L50.4184 18.3679ZM48.4184 17.1179C47.638 16.5977 46.7134 16.1481 45.6579 15.7611L44.9694 17.6389C45.9139 17.9852 46.6893 18.369 47.309 18.782L48.4184 17.1179ZM45.696 15.776C44.6545 15.345 43.4391 14.9953 42.0598 14.7194L41.6676 16.6806C42.955 16.9381 44.0395 17.255 44.9313 17.624L45.696 15.776ZM42.0646 14.7204C40.6809 14.4366 39.0771 14.3 37.2637 14.3V16.3C38.9835 16.3 40.4464 16.4301 41.6627 16.6796L42.0646 14.7204ZM37.2637 14.3C34.3379 14.3 31.6315 14.8406 29.1587 15.9356L29.9686 17.7643C32.1625 16.7928 34.5895 16.3 37.2637 16.3V14.3ZM29.1539 15.9378C26.7127 17.0346 24.5939 18.6439 22.8017 20.7524L24.3256 22.0476C25.9334 20.1561 27.8147 18.7321 29.9735 17.7622L29.1539 15.9378ZM22.8008 20.7535C21.0355 22.8365 19.678 25.3912 18.7118 28.3936L20.6156 29.0064C21.516 26.2088 22.7585 23.8969 24.3266 22.0465L22.8008 20.7535ZM18.7096 28.4005C17.7731 31.3835 17.3137 34.771 17.3137 38.55H19.3137C19.3137 34.929 19.7543 31.7499 20.6178 28.9995L18.7096 28.4005ZM17.3137 38.55C17.3137 42.371 17.8253 45.8012 18.8683 48.826L20.759 48.174C19.8021 45.3988 19.3137 42.1956 19.3137 38.55H17.3137ZM18.8717 48.8356C19.94 51.8339 21.3811 54.397 23.208 56.5049L24.7194 55.1951C23.0796 53.303 21.754 50.9661 20.7557 48.1643L18.8717 48.8356ZM23.2198 56.5183C25.0773 58.5861 27.2416 60.1718 29.7087 61.2643L30.5186 59.4356C28.319 58.4616 26.3834 57.0472 24.7076 55.1817L23.2198 56.5183ZM29.7087 61.2643C32.1753 62.3567 34.8139 62.9 37.6137 62.9V60.9C35.0801 60.9 32.7187 60.41 30.5186 59.4356L29.7087 61.2643ZM37.6137 62.9C39.1752 62.9 40.6108 62.8321 41.9184 62.6945L41.709 60.7055C40.4832 60.8345 39.1188 60.9 37.6137 60.9V62.9ZM41.9441 62.6915C43.2589 62.5185 44.4961 62.2578 45.6537 61.907L45.0737 59.993C44.0312 60.3089 42.9017 60.5482 41.6832 60.7085L41.9441 62.6915ZM45.6799 61.8987C46.8436 61.5108 47.9407 61.0157 48.9694 60.4127L47.958 58.6873C47.0533 59.2176 46.0838 59.6559 45.0474 60.0013L45.6799 61.8987ZM48.991 60.3996C50.0161 59.7634 51.0464 58.9759 52.0826 58.0433L50.7447 56.5567C49.781 57.4241 48.8446 58.1366 47.9363 58.7004L48.991 60.3996ZM52.0539 58.0682C52.3814 57.7953 52.7322 57.58 53.1076 57.4191L52.3198 55.5809C51.7619 55.8199 51.2459 56.1381 50.7735 56.5318L52.0539 58.0682ZM53.1609 57.3944C53.4949 57.2274 53.8257 57.15 54.1637 57.15V55.15C53.5016 55.15 52.8658 55.3059 52.2665 55.6056L53.1609 57.3944ZM137.681 53.25L136.754 52.8751L136.751 52.881L137.681 53.25ZM130.031 65.1L130.742 65.8036L130.745 65.8L130.031 65.1ZM118.081 72.95L117.704 72.0238L117.701 72.0248L118.081 72.95ZM87.1309 72.95L86.7538 73.8762L86.7538 73.8762L87.1309 72.95ZM75.1309 65.1L74.4167 65.8L74.4238 65.8071L75.1309 65.1ZM67.4309 53.25L66.5014 53.619L66.5038 53.6249L67.4309 53.25ZM67.4309 23.85L66.5038 23.4751L66.5014 23.481L67.4309 23.85ZM75.1309 12.05L74.4237 11.3429L74.4202 11.3465L75.1309 12.05ZM87.1309 4.2L87.5079 5.12618L87.5079 5.12618L87.1309 4.2ZM118.081 4.25L117.696 5.17291L117.704 5.17617L118.081 4.25ZM130.031 12.1L129.32 12.8035L129.32 12.8035L130.031 12.1ZM137.681 23.9L136.751 24.269L136.754 24.2749L137.681 23.9ZM121.731 28.85L120.779 29.1564L120.78 29.1596L121.731 28.85ZM117.681 21.5L116.925 22.155L116.931 22.162L117.681 21.5ZM111.281 16.9L111.669 15.9784L111.669 15.9784L111.281 16.9ZM93.8809 16.9L93.4971 15.9766L93.4928 15.9784L93.8809 16.9ZM87.4309 21.5L86.6814 20.8379L86.6752 20.8451L87.4309 21.5ZM83.4309 28.85L84.3817 29.1596L84.3828 29.1564L83.4309 28.85ZM83.4309 48.35L82.4789 48.6564L82.48 48.6596L83.4309 48.35ZM87.4309 55.65L86.6751 56.305L86.6814 56.312L87.4309 55.65ZM93.8809 60.25L93.4928 61.1716L93.5001 61.1747L93.5074 61.1776L93.8809 60.25ZM111.281 60.25L111.659 61.176L111.669 61.1716L111.281 60.25ZM117.681 55.65L116.931 54.9879L116.925 54.9951L117.681 55.65ZM121.731 48.35L122.682 48.6596L122.683 48.6564L121.731 48.35ZM139.431 38.55C139.431 43.6981 138.535 48.4698 136.754 52.8751L138.608 53.6249C140.493 48.9635 141.431 43.9352 141.431 38.55H139.431ZM136.751 52.881C134.999 57.2951 132.52 61.1316 129.317 64.4L130.745 65.8C134.141 62.3351 136.763 58.2715 138.61 53.619L136.751 52.881ZM129.32 64.3965C126.122 67.6269 122.255 70.1709 117.704 72.0238L118.458 73.8762C123.24 71.9291 127.34 69.2398 130.742 65.8035L129.32 64.3965ZM117.701 72.0248C113.203 73.8693 108.184 74.8 102.631 74.8V76.8C108.411 76.8 113.692 75.8307 118.46 73.8752L117.701 72.0248ZM102.631 74.8C97.0774 74.8 92.0408 73.8694 87.5079 72.0238L86.7538 73.8762C91.5542 75.8306 96.851 76.8 102.631 76.8V74.8ZM87.5079 72.0238C82.9562 70.1706 79.0706 67.6256 75.838 64.3929L74.4238 65.8071C77.8577 69.2411 81.9722 71.9294 86.7538 73.8762L87.5079 72.0238ZM75.845 64.4C72.64 61.1302 70.1441 57.2918 68.3579 52.8751L66.5038 53.6249C68.3843 58.2749 71.0218 62.3365 74.4167 65.8L75.845 64.4ZM68.3603 52.881C66.6105 48.4742 65.7309 43.7004 65.7309 38.55H63.7309C63.7309 43.9329 64.6512 48.9592 66.5014 53.619L68.3603 52.881ZM65.7309 38.55C65.7309 33.3995 66.6105 28.6258 68.3603 24.219L66.5014 23.481C64.6512 28.1408 63.7309 33.1671 63.7309 38.55H65.7309ZM68.3579 24.2249C70.1437 19.8091 72.6387 15.9887 75.8415 12.7535L74.4202 11.3465C71.0231 14.7779 68.3846 18.8243 66.5038 23.4751L68.3579 24.2249ZM75.838 12.7571C79.0706 9.52443 82.9562 6.97939 87.5079 5.12618L86.7538 3.27382C81.9722 5.2206 77.8577 7.9089 74.4238 11.3429L75.838 12.7571ZM87.5079 5.12618C92.0408 3.28064 97.0774 2.35 102.631 2.35V0.349998C96.851 0.349998 91.5542 1.31936 86.7538 3.27382L87.5079 5.12618ZM102.631 2.35C108.182 2.35 113.199 3.2966 117.696 5.17288L118.466 3.32712C113.696 1.33673 108.413 0.349998 102.631 0.349998V2.35ZM117.704 5.17617C122.255 7.02907 126.122 9.57314 129.32 12.8035L130.742 11.3965C127.34 7.96019 123.24 5.27092 118.458 3.32382L117.704 5.17617ZM129.32 12.8035C132.522 16.0374 134.999 19.8557 136.751 24.269L138.61 23.531C136.763 18.8776 134.14 14.8292 130.742 11.3965L129.32 12.8035ZM136.754 24.2749C138.536 28.681 139.431 33.436 139.431 38.55H141.431C141.431 33.1973 140.493 28.1857 138.608 23.5251L136.754 24.2749ZM124.131 38.55C124.131 34.8647 123.653 31.5243 122.682 28.5404L120.78 29.1596C121.675 31.9091 122.131 35.0353 122.131 38.55H124.131ZM122.683 28.5436C121.713 25.5309 120.3 22.9549 118.43 20.838L116.931 22.162C118.595 24.0451 119.882 26.3691 120.779 29.1564L122.683 28.5436ZM118.437 20.8451C116.599 18.7246 114.338 17.1022 111.669 15.9784L110.893 17.8216C113.29 18.8311 115.296 20.2754 116.925 22.1549L118.437 20.8451ZM111.669 15.9784C108.993 14.8517 105.974 14.3 102.631 14.3V16.3C105.754 16.3 108.502 16.815 110.893 17.8216L111.669 15.9784ZM102.631 14.3C99.2552 14.3 96.2048 14.8513 93.4971 15.9766L94.2646 17.8234C96.6903 16.8154 99.4732 16.3 102.631 16.3V14.3ZM93.4928 15.9784C90.8253 17.1015 88.5505 18.7219 86.6814 20.838L88.1803 22.162C89.8445 20.2781 91.8697 18.8318 94.2689 17.8216L93.4928 15.9784ZM86.6752 20.8451C84.8413 22.9611 83.4474 25.5346 82.4789 28.5436L84.3828 29.1564C85.281 26.3654 86.5538 24.0389 88.1866 22.1549L86.6752 20.8451ZM82.48 28.5404C81.5085 31.5243 81.0309 34.8647 81.0309 38.55H83.0309C83.0309 35.0353 83.4866 31.9091 84.3817 29.1596L82.48 28.5404ZM81.0309 38.55C81.0309 42.2679 81.5083 45.6404 82.4789 48.6564L84.3828 48.0436C83.4868 45.2596 83.0309 42.0988 83.0309 38.55H81.0309ZM82.48 48.6596C83.4489 51.6357 84.843 54.1909 86.6752 56.3049L88.1866 54.9951C86.552 53.1091 85.2794 50.7977 84.3817 48.0404L82.48 48.6596ZM86.6814 56.312C88.5505 58.4281 90.8253 60.0485 93.4928 61.1716L94.2689 59.3284C91.8697 58.3182 89.8445 56.8719 88.1803 54.988L86.6814 56.312ZM93.5074 61.1776C96.2122 62.2666 99.2589 62.8 102.631 62.8V60.8C99.4695 60.8 96.6829 60.3001 94.2543 59.3224L93.5074 61.1776ZM102.631 62.8C105.971 62.8 108.986 62.2662 111.659 61.1759L110.903 59.3241C108.509 60.3005 105.758 60.8 102.631 60.8V62.8ZM111.669 61.1716C114.338 60.0478 116.599 58.4254 118.437 56.3049L116.925 54.9951C115.296 56.8746 113.29 58.3189 110.893 59.3284L111.669 61.1716ZM118.43 56.312C120.299 54.1971 121.712 51.6394 122.682 48.6596L120.78 48.0404C119.884 50.7939 118.596 53.1029 116.931 54.988L118.43 56.312ZM122.683 48.6564C123.653 45.6404 124.131 42.2679 124.131 38.55H122.131C122.131 42.0988 121.675 45.2596 120.779 48.0436L122.683 48.6564ZM213.976 2.15H214.976V1.15H213.976V2.15ZM213.976 75V76H214.976V75H213.976ZM201.876 74.4L201.429 75.2944L201.449 75.3046L201.47 75.3138L201.876 74.4ZM199.276 72.2L198.492 72.8202L198.501 72.8315L198.51 72.8426L199.276 72.2ZM164.926 28.75L165.711 28.1298L163.581 25.436L163.931 28.852L164.926 28.75ZM165.176 32.55L164.177 32.577L164.177 32.5912L164.178 32.6055L165.176 32.55ZM165.276 75V76H166.276V75H165.276ZM150.376 75H149.376V76H150.376V75ZM150.376 2.15V1.15H149.376V2.15H150.376ZM161.126 2.25L160.994 3.24123L160.994 3.24123L161.126 2.25ZM162.476 2.65L162.029 3.54442L162.06 3.55983L162.092 3.57308L162.476 2.65ZM164.876 4.75L165.66 4.12913L165.654 4.12165L165.648 4.11429L164.876 4.75ZM199.526 48.5L198.742 49.1209L200.937 51.8921L200.519 48.3818L199.526 48.5ZM199.176 44.45L198.177 44.4999L198.177 44.5012L199.176 44.45ZM199.076 2.15V1.15H198.076V2.15H199.076ZM212.976 2.15V75H214.976V2.15H212.976ZM213.976 74H205.176V76H213.976V74ZM205.176 74C203.973 74 203.021 73.8143 202.282 73.4862L201.47 75.3138C202.532 75.7857 203.779 76 205.176 76V74ZM202.323 73.5056C201.617 73.1525 200.853 72.5242 200.042 71.5574L198.51 72.8426C199.432 73.9425 200.402 74.7809 201.429 75.2944L202.323 73.5056ZM200.061 71.5798L165.711 28.1298L164.142 29.3702L198.492 72.8202L200.061 71.5798ZM163.931 28.852C164.062 30.1285 164.144 31.3702 164.177 32.577L166.176 32.523C166.142 31.2632 166.057 29.9714 165.921 28.648L163.931 28.852ZM164.178 32.6055C164.243 33.7893 164.276 34.904 164.276 35.95H166.276C166.276 34.8627 166.242 33.7107 166.175 32.4945L164.178 32.6055ZM164.276 35.95V75H166.276V35.95H164.276ZM165.276 74H150.376V76H165.276V74ZM151.376 75V2.15H149.376V75H151.376ZM150.376 3.15H159.276V1.15H150.376V3.15ZM159.276 3.15C159.983 3.15 160.553 3.18237 160.994 3.24123L161.258 1.25877C160.7 1.1843 160.036 1.15 159.276 1.15V3.15ZM160.994 3.24123C161.398 3.29512 161.74 3.39978 162.029 3.54442L162.923 1.75557C162.413 1.50021 161.854 1.33821 161.258 1.25877L160.994 3.24123ZM162.092 3.57308C162.372 3.68982 162.66 3.8728 162.954 4.13994L164.299 2.66006C163.859 2.26053 163.381 1.94351 162.861 1.72692L162.092 3.57308ZM162.954 4.13994C163.272 4.42959 163.655 4.84028 164.104 5.3857L165.648 4.11429C165.164 3.52638 164.714 3.03707 164.299 2.66006L162.954 4.13994ZM164.092 5.37086L198.742 49.1209L200.31 47.8791L165.66 4.12913L164.092 5.37086ZM200.519 48.3818C200.355 47.0022 200.24 45.6746 200.175 44.3988L198.177 44.5012C198.245 45.8254 198.364 47.1978 198.533 48.6182L200.519 48.3818ZM200.175 44.4001C200.109 43.081 200.076 41.8478 200.076 40.7H198.076C198.076 41.8855 198.11 43.1523 198.177 44.4999L200.175 44.4001ZM200.076 40.7V2.15H198.076V40.7H200.076ZM199.076 3.15H213.976V1.15H199.076V3.15ZM280.461 15.55V16.55H281.461V15.55H280.461ZM259.961 15.55V14.55H258.961V15.55H259.961ZM259.961 75V76H260.961V75H259.961ZM243.061 75H242.061V76H243.061V75ZM243.061 15.55H244.061V14.55H243.061V15.55ZM222.561 15.55H221.561V16.55H222.561V15.55ZM222.561 2.15V1.15H221.561V2.15H222.561ZM280.461 2.15H281.461V1.15H280.461V2.15ZM280.461 14.55H259.961V16.55H280.461V14.55ZM258.961 15.55V75H260.961V15.55H258.961ZM259.961 74H243.061V76H259.961V74ZM244.061 75V15.55H242.061V75H244.061ZM243.061 14.55H222.561V16.55H243.061V14.55ZM223.561 15.55V2.15H221.561V15.55H223.561ZM222.561 3.15H280.461V1.15H222.561V3.15ZM279.461 2.15V15.55H281.461V2.15H279.461ZM320.419 47.15V48.15H321.813L321.366 46.8295L320.419 47.15ZM313.669 27.2L314.616 26.8795L314.608 26.856L314.599 26.8328L313.669 27.2ZM312.069 22.75L311.119 23.0607L311.12 23.0662L312.069 22.75ZM310.369 17.15L311.331 16.8774L310.301 13.2403L309.398 16.9112L310.369 17.15ZM308.769 22.8L309.72 23.1107L309.72 23.1107L308.769 22.8ZM307.169 27.3L306.239 26.9328L306.23 26.9563L306.222 26.9802L307.169 27.3ZM300.469 47.15L299.522 46.8302L299.076 48.15H300.469V47.15ZM347.269 75V76H348.729L348.202 74.639L347.269 75ZM330.619 74L330.005 74.7894L330.014 74.7966L330.024 74.8036L330.619 74ZM328.569 71.35L327.622 71.6707L327.636 71.7114L327.653 71.7508L328.569 71.35ZM324.269 58.65L325.216 58.3293L324.986 57.65H324.269V58.65ZM296.569 58.65V57.65H295.852L295.622 58.3293L296.569 58.65ZM292.269 71.35L293.2 71.7157L293.209 71.6934L293.216 71.6707L292.269 71.35ZM290.269 73.9L290.887 74.6863L290.891 74.6835L290.269 73.9ZM273.569 75L272.637 74.639L272.11 76H273.569V75ZM301.769 2.15V1.15H301.084L300.837 1.78901L301.769 2.15ZM319.069 2.15L320.002 1.78901L319.754 1.15H319.069V2.15ZM321.366 46.8295L314.616 26.8795L312.722 27.5205L319.472 47.4705L321.366 46.8295ZM314.599 26.8328C314.108 25.5873 313.58 24.1216 313.018 22.4338L311.12 23.0662C311.691 24.7784 312.231 26.2794 312.739 27.5672L314.599 26.8328ZM313.02 22.4393C312.458 20.7202 311.895 18.8663 311.331 16.8774L309.407 17.4226C309.977 19.4337 310.547 21.3132 311.119 23.0607L313.02 22.4393ZM309.398 16.9112C308.903 18.9238 308.377 20.7828 307.819 22.4893L309.72 23.1107C310.295 21.3505 310.835 19.4429 311.34 17.3888L309.398 16.9112ZM307.819 22.4893C307.256 24.2095 306.73 25.6898 306.239 26.9328L308.099 27.6672C308.609 26.3769 309.149 24.8572 309.72 23.1107L307.819 22.4893ZM306.222 26.9802L299.522 46.8302L301.417 47.4698L308.117 27.6198L306.222 26.9802ZM300.469 48.15H320.419V46.15H300.469V48.15ZM347.269 74H334.169V76H347.269V74ZM334.169 74C332.851 74 331.896 73.7011 331.214 73.1964L330.024 74.8036C331.143 75.6323 332.554 76 334.169 76V74ZM331.233 73.2106C330.467 72.6152 329.887 71.8665 329.485 70.9492L327.653 71.7508C328.185 72.9668 328.971 73.9848 330.005 74.7894L331.233 73.2106ZM329.516 71.0293L325.216 58.3293L323.322 58.9707L327.622 71.6707L329.516 71.0293ZM324.269 57.65H296.569V59.65H324.269V57.65ZM295.622 58.3293L291.322 71.0293L293.216 71.6707L297.516 58.9707L295.622 58.3293ZM291.338 70.9843C291.05 71.7197 290.508 72.4343 289.648 73.1165L290.891 74.6835C291.964 73.8323 292.755 72.847 293.2 71.7157L291.338 70.9843ZM289.651 73.1137C288.924 73.6848 287.987 74 286.769 74V76C288.351 76 289.747 75.5819 290.887 74.6863L289.651 73.1137ZM286.769 74H273.569V76H286.769V74ZM274.502 75.361L302.702 2.51099L300.837 1.78901L272.637 74.639L274.502 75.361ZM301.769 3.15H319.069V1.15H301.769V3.15ZM318.137 2.51099L346.337 75.361L348.202 74.639L320.002 1.78901L318.137 2.51099ZM400.871 56.4L400.487 57.3231L400.521 57.3371L400.555 57.3487L400.871 56.4ZM402.021 57.15L402.746 56.4611L402.738 56.4519L402.729 56.4429L402.021 57.15ZM408.721 64.2L409.516 64.8077L410.034 64.1298L409.446 63.5111L408.721 64.2ZM397.671 72.9L398.074 73.8155L398.077 73.8141L397.671 72.9ZM367.121 73L366.722 73.917L366.731 73.9206L367.121 73ZM355.971 65.2L355.232 65.8731L355.239 65.8807L355.971 65.2ZM348.971 53.4L348.03 53.7368L348.031 53.739L348.971 53.4ZM349.171 23.6L350.103 23.9631L350.104 23.9608L349.171 23.6ZM356.621 11.8L357.339 12.4961L357.339 12.4961L356.621 11.8ZM368.121 4.09999L367.742 3.17489L367.742 3.17489L368.121 4.09999ZM390.571 2.1L390.368 3.07898L390.375 3.0806L390.383 3.0821L390.571 2.1ZM397.371 4.09999L396.99 5.02445L397.003 5.02949L397.371 4.09999ZM403.171 7.14999L403.733 6.32278L403.733 6.32278L403.171 7.14999ZM407.871 11.05L408.673 11.6475L409.184 10.9626L408.587 10.3515L407.871 11.05ZM402.171 18.7L402.958 19.3178L402.966 19.3078L402.973 19.2975L402.171 18.7ZM400.871 20L401.463 20.8064L401.48 20.794L401.496 20.7809L400.871 20ZM397.071 20.15L396.624 21.0444L396.624 21.0444L397.071 20.15ZM395.371 19.2L394.817 20.032L394.833 20.043L394.85 20.0533L395.371 19.2ZM393.371 17.95L392.817 18.782L392.839 18.7971L392.863 18.8109L393.371 17.95ZM390.821 16.7L390.439 17.624L390.458 17.6318L390.477 17.6389L390.821 16.7ZM387.371 15.7L387.171 16.6796L387.175 16.6806L387.371 15.7ZM375.071 16.85L374.667 15.9356L374.662 15.9378L375.071 16.85ZM369.071 21.4L368.31 20.7523L368.309 20.7535L369.071 21.4ZM365.171 28.7L364.22 28.3936L364.217 28.4005L365.171 28.7ZM365.321 48.5L364.376 48.826L364.379 48.8356L365.321 48.5ZM369.471 55.85L368.716 56.5049L368.722 56.5117L368.728 56.5183L369.471 55.85ZM387.321 61.7L387.426 62.6945L387.439 62.6931L387.452 62.6915L387.321 61.7ZM390.871 60.95L391.161 61.907L391.175 61.903L391.188 61.8987L390.871 60.95ZM393.971 59.55L394.477 60.4127L394.488 60.4063L394.499 60.3996L393.971 59.55ZM396.921 57.3L396.281 56.5318L396.267 56.544L396.253 56.5567L396.921 57.3ZM398.221 56.5L398.615 57.4191L398.642 57.4076L398.669 57.3944L398.221 56.5ZM399.671 57.15C399.929 57.15 400.199 57.2029 400.487 57.3231L401.256 55.4769C400.744 55.2637 400.214 55.15 399.671 55.15V57.15ZM400.555 57.3487C400.778 57.4229 401.033 57.5754 401.314 57.8571L402.729 56.4429C402.277 55.9912 401.765 55.6437 401.188 55.4513L400.555 57.3487ZM401.297 57.8389L407.997 64.8889L409.446 63.5111L402.746 56.4611L401.297 57.8389ZM407.927 63.5923C405.096 67.2919 401.547 70.0868 397.266 71.9859L398.077 73.8141C402.663 71.7798 406.48 68.7748 409.516 64.8077L407.927 63.5923ZM397.269 71.9845C393.024 73.8498 387.951 74.8 382.021 74.8V76.8C388.159 76.8 393.519 75.8169 398.074 73.8155L397.269 71.9845ZM382.021 74.8C376.601 74.8 371.771 73.8861 367.512 72.0794L366.731 73.9206C371.272 75.8473 376.375 76.8 382.021 76.8V74.8ZM367.52 72.083C363.273 70.2348 359.672 67.7127 356.704 64.5193L355.239 65.8807C358.405 69.2873 362.237 71.9652 366.723 73.917L367.52 72.083ZM356.711 64.527C353.772 61.2973 351.504 57.4795 349.912 53.061L348.031 53.739C349.705 58.3871 352.104 62.4361 355.232 65.873L356.711 64.527ZM349.913 53.0632C348.322 48.6149 347.521 43.78 347.521 38.55H345.521C345.521 43.9867 346.354 49.0518 348.03 53.7368L349.913 53.0632ZM347.521 38.55C347.521 33.2264 348.387 28.368 350.103 23.9631L348.24 23.2369C346.423 27.8987 345.521 33.0069 345.521 38.55H347.521ZM350.104 23.9608C351.826 19.5109 354.239 15.6937 357.339 12.4961L355.904 11.1039C352.604 14.5063 350.051 18.5557 348.239 23.2392L350.104 23.9608ZM357.339 12.4961C360.439 9.29987 364.155 6.80888 368.501 5.0251L367.742 3.17489C363.154 5.05778 359.204 7.70013 355.904 11.1039L357.339 12.4961ZM368.501 5.0251C372.835 3.24646 377.621 2.35 382.871 2.35V0.349998C377.389 0.349998 372.342 1.28687 367.742 3.17489L368.501 5.0251ZM382.871 2.35C385.544 2.35 388.042 2.59444 390.368 3.07898L390.775 1.12102C388.301 0.605551 385.666 0.349998 382.871 0.349998V2.35ZM390.383 3.0821C392.756 3.53721 394.958 4.1856 396.99 5.02437L397.753 3.17562C395.585 2.28106 393.253 1.59611 390.76 1.11789L390.383 3.0821ZM397.003 5.02949C399.039 5.83743 400.907 6.82055 402.61 7.97721L403.733 6.32278C401.903 5.07945 399.904 4.02923 397.74 3.1705L397.003 5.02949ZM402.61 7.97721C404.326 9.14297 405.84 10.4006 407.156 11.7485L408.587 10.3515C407.17 8.89939 405.55 7.55702 403.733 6.32278L402.61 7.97721ZM407.07 10.4525L401.37 18.1025L402.973 19.2975L408.673 11.6475L407.07 10.4525ZM401.385 18.0822C401.07 18.4839 400.692 18.8633 400.247 19.2191L401.496 20.7809C402.051 20.3366 402.54 19.8494 402.958 19.3178L401.385 18.0822ZM400.28 19.1936C400.013 19.3891 399.551 19.55 398.771 19.55V21.55C399.792 21.55 400.73 21.3442 401.463 20.8064L400.28 19.1936ZM398.771 19.55C398.326 19.55 397.912 19.4524 397.519 19.2556L396.624 21.0444C397.297 21.381 398.017 21.55 398.771 21.55V19.55ZM397.519 19.2556C397.015 19.0036 396.473 18.7012 395.893 18.3467L394.85 20.0533C395.47 20.4322 396.062 20.7631 396.624 21.0444L397.519 19.2556ZM395.926 18.3679C395.309 17.9563 394.626 17.53 393.88 17.0891L392.863 18.8109C393.583 19.2366 394.234 19.6437 394.817 20.032L395.926 18.3679ZM393.926 17.1179C393.146 16.5977 392.221 16.1481 391.166 15.7611L390.477 17.6389C391.422 17.9852 392.197 18.369 392.817 18.782L393.926 17.1179ZM391.204 15.776C390.162 15.345 388.947 14.9953 387.568 14.7194L387.175 16.6806C388.463 16.9381 389.547 17.255 390.439 17.624L391.204 15.776ZM387.572 14.7204C386.189 14.4366 384.585 14.3 382.771 14.3V16.3C384.491 16.3 385.954 16.4301 387.171 16.6796L387.572 14.7204ZM382.771 14.3C379.846 14.3 377.139 14.8406 374.667 15.9356L375.476 17.7643C377.67 16.7928 380.097 16.3 382.771 16.3V14.3ZM374.662 15.9378C372.22 17.0346 370.102 18.6439 368.31 20.7524L369.833 22.0476C371.441 20.1561 373.322 18.7321 375.481 17.7622L374.662 15.9378ZM368.309 20.7535C366.543 22.8365 365.186 25.3912 364.22 28.3936L366.123 29.0064C367.024 26.2088 368.266 23.8969 369.834 22.0465L368.309 20.7535ZM364.217 28.4005C363.281 31.3835 362.821 34.771 362.821 38.55H364.821C364.821 34.929 365.262 31.7499 366.126 28.9995L364.217 28.4005ZM362.821 38.55C362.821 42.371 363.333 45.8012 364.376 48.826L366.267 48.174C365.31 45.3988 364.821 42.1956 364.821 38.55H362.821ZM364.379 48.8356C365.448 51.8339 366.889 54.397 368.716 56.5049L370.227 55.1951C368.587 53.303 367.262 50.9661 366.263 48.1643L364.379 48.8356ZM368.728 56.5183C370.585 58.5861 372.749 60.1718 375.217 61.2643L376.026 59.4356C373.827 58.4616 371.891 57.0472 370.215 55.1817L368.728 56.5183ZM375.217 61.2643C377.683 62.3567 380.322 62.9 383.121 62.9V60.9C380.588 60.9 378.226 60.41 376.026 59.4356L375.217 61.2643ZM383.121 62.9C384.683 62.9 386.119 62.8321 387.426 62.6945L387.217 60.7055C385.991 60.8345 384.627 60.9 383.121 60.9V62.9ZM387.452 62.6915C388.767 62.5185 390.004 62.2578 391.161 61.907L390.581 59.993C389.539 60.3089 388.41 60.5482 387.191 60.7085L387.452 62.6915ZM391.188 61.8987C392.351 61.5108 393.448 61.0157 394.477 60.4127L393.466 58.6873C392.561 59.2176 391.592 59.6559 390.555 60.0013L391.188 61.8987ZM394.499 60.3996C395.524 59.7634 396.554 58.9759 397.59 58.0433L396.253 56.5567C395.289 57.4241 394.352 58.1366 393.444 58.7004L394.499 60.3996ZM397.562 58.0682C397.889 57.7953 398.24 57.58 398.615 57.4191L397.828 55.5809C397.27 55.8199 396.754 56.1381 396.281 56.5318L397.562 58.0682ZM398.669 57.3944C399.003 57.2274 399.334 57.15 399.671 57.15V55.15C399.009 55.15 398.374 55.3059 397.774 55.6056L398.669 57.3944ZM468.449 15.55V16.55H469.449V15.55H468.449ZM447.949 15.55V14.55H446.949V15.55H447.949ZM447.949 75V76H448.949V75H447.949ZM431.049 75H430.049V76H431.049V75ZM431.049 15.55H432.049V14.55H431.049V15.55ZM410.549 15.55H409.549V16.55H410.549V15.55ZM410.549 2.15V1.15H409.549V2.15H410.549ZM468.449 2.15H469.449V1.15H468.449V2.15ZM468.449 14.55H447.949V16.55H468.449V14.55ZM446.949 15.55V75H448.949V15.55H446.949ZM447.949 74H431.049V76H447.949V74ZM432.049 75V15.55H430.049V75H432.049ZM431.049 14.55H410.549V16.55H431.049V14.55ZM411.549 15.55V2.15H409.549V15.55H411.549ZM410.549 3.15H468.449V1.15H410.549V3.15ZM467.449 2.15V15.55H469.449V2.15H467.449Z" fill="black" fill-opacity="0.1"/>
</svg>
