<svg width="50" height="53" viewBox="0 0 80 83" fill="none" xmlns="http://www.w3.org/2000/svg">
<path d="M63.5854 0H2.41463C1.10671 0 0 1.10533 0 2.41162V80.5884C0 81.8947 1.10671 83 2.41463 83H63.5854C64.8933 83 66 81.8947 66 80.5884V2.41162C66 1.10533 64.8933 0 63.5854 0Z" fill="white"/>
<path d="M2.41463 0.5H63.5854C64.6177 0.5 65.5 1.38206 65.5 2.41162V80.5884C65.5 81.6179 64.6177 82.5 63.5854 82.5H2.41463C1.38226 82.5 0.5 81.6179 0.5 80.5884V2.41162C0.5 1.38206 1.38226 0.5 2.41463 0.5Z" stroke="#141E30" stroke-opacity="0.8"/>
<path d="M54.6973 9.36755H38.3797V12.3893H54.6973V9.36755Z" fill="#E6E9EE"/>
<path d="M54.6973 18.7351H28.0048V21.7569H54.6973V18.7351Z" fill="#E6E9EE"/>
<path d="M54.6973 28.2034H38.3797V31.2252H54.6973V28.2034Z" fill="#E6E9EE"/>
<path d="M54.6973 37.571H33.4441V40.5927H54.6973V37.571Z" fill="#E6E9EE"/>
<path d="M54.6973 46.9385H27.199V49.9603H54.6973V46.9385Z" fill="#E6E9EE"/>
<path d="M36.8688 9.36755H10.5792V12.3893H36.8688V9.36755Z" fill="#E6E9EE"/>
<path d="M26.494 18.7351H10.5792V21.7569H26.494V18.7351Z" fill="#E6E9EE"/>
<path d="M36.8688 28.2034H10.5792V31.2252H36.8688V28.2034Z" fill="#E6E9EE"/>
<path d="M31.8325 37.571H10.5792V40.5927H31.8325V37.571Z" fill="#E6E9EE"/>
<path d="M25.6881 46.9385H10.5792V49.9603H25.6881V46.9385Z" fill="#E6E9EE"/>
<path d="M33.7437 55.9108L46.4925 68.6597L73.5573 41.5949L60.8085 28.846L33.7437 55.9108Z" fill="#FA7564"/>
<path d="M69.8266 45.3192L73.5302 41.6156L60.7814 28.8667L57.0778 32.5703L69.8266 45.3192Z" fill="#E6E9EE"/>
<path d="M73.9037 42L79.3904 36.5134C80.2032 35.7005 80.2032 34.3797 79.3904 33.4652L69.5348 23.6096C68.7219 22.7968 67.4011 22.7968 66.4866 23.6096L61 29.0963L73.9037 42Z" fill="#F1543F"/>
<path d="M33.5202 56L29 73L46 68.4798L33.5202 56Z" fill="#FFD05B"/>
<path d="M30.6071 68L29 73L35 71.6607L30.6071 68Z" fill="#324A5E"/>
</svg>
