<svg width="56" height="56" viewBox="0 0 56 56" fill="none" xmlns="http://www.w3.org/2000/svg">
<path d="M36.985 0H7.963C7.155 0 6.5 0.655 6.5 1.926V55C6.5 55.345 7.155 56 7.963 56H48.037C48.845 56 49.5 55.345 49.5 55V12.978C49.5 12.282 49.407 12.058 49.243 11.893L37.607 0.257C37.442 0.093 37.218 0 36.985 0Z" fill="#E9E9E0"/>
<path d="M37.5 0.151001V12H49.349L37.5 0.151001Z" fill="#D9D7CA"/>
<path d="M48.037 56H7.963C7.155 56 6.5 55.345 6.5 54.537V39H49.5V54.537C49.5 55.345 48.845 56 48.037 56Z" fill="#F1502F"/>
<path d="M26.4062 51.8926C26.0977 52.2949 25.6699 52.5996 25.123 52.8066C24.5762 53.0137 23.9551 53.1172 23.2598 53.1172C22.5449 53.1172 21.9121 52.9551 21.3613 52.6309C20.8105 52.3066 20.3848 51.8438 20.084 51.2422C19.7871 50.6367 19.6328 49.9316 19.6211 49.127V48.459C19.6211 47.1699 19.9297 46.1641 20.5469 45.4414C21.1641 44.7148 22.0254 44.3516 23.1309 44.3516C24.0801 44.3516 24.834 44.5859 25.3926 45.0547C25.9512 45.5234 26.2871 46.1992 26.4004 47.082H24.9473C24.7832 46.0547 24.1875 45.541 23.1602 45.541C22.4961 45.541 21.9902 45.7812 21.6426 46.2617C21.2988 46.7383 21.1211 47.4395 21.1094 48.3652V49.0215C21.1094 49.9434 21.3027 50.6602 21.6895 51.1719C22.0801 51.6797 22.6211 51.9336 23.3125 51.9336C24.0703 51.9336 24.6094 51.7617 24.9297 51.418V49.748H23.1719V48.623H26.4062V51.8926ZM29.5996 53H28.123V44.4688H29.5996V53ZM37.4102 45.6641H34.75V53H33.2793V45.6641H30.6426V44.4688H37.4102V45.6641Z" fill="white"/>
<path d="M38.5368 18.9L29.1 9.46316C28.8105 9.17368 28.4053 9 28 9C27.5947 9 27.1895 9.17368 26.9 9.46316L24.8737 11.4895L27.2474 13.8632C27.4789 13.7474 27.7105 13.6895 28 13.6895C28.9842 13.6895 29.7368 14.4421 29.7368 15.4263C29.7368 15.7158 29.6789 15.9474 29.5632 16.1789L31.8789 18.4947C32.1105 18.3789 32.3421 18.3211 32.6316 18.3211C33.6158 18.3211 34.3684 19.0737 34.3684 20.0579C34.3684 21.0421 33.6158 21.7947 32.6316 21.7947C31.6474 21.7947 30.8947 21.0421 30.8947 20.0579C30.8947 19.7684 30.9526 19.5368 31.0684 19.3053L28.7526 16.9895C28.6947 16.9895 28.6368 17.0474 28.5789 17.0474V23.0684C29.2737 23.3 29.7368 23.9368 29.7368 24.6895C29.7368 25.6737 28.9842 26.4263 28 26.4263C27.0158 26.4263 26.2632 25.6737 26.2632 24.6895C26.2632 23.9368 26.7263 23.3 27.4211 23.0684V16.9895C26.7263 16.7579 26.2632 16.1211 26.2632 15.3684C26.2632 15.0789 26.3211 14.8474 26.4368 14.6158L24.0632 12.2421L17.4632 18.9C17.1737 19.1895 17 19.5947 17 20C17 20.4053 17.1737 20.8105 17.4632 21.1L26.9 30.5368C27.1895 30.8263 27.5947 31 28 31C28.4053 31 28.8105 30.8263 29.1 30.5368L38.5368 21.1C38.8263 20.8105 39 20.4053 39 20C39 19.5947 38.8263 19.1895 38.5368 18.9Z" fill="#F4511E"/>
</svg>
