<svg width="56" height="56" viewBox="0 0 56 56" fill="none" xmlns="http://www.w3.org/2000/svg">
<path d="M36.985 0H7.963C7.155 0 6.5 0.655 6.5 1.926V55C6.5 55.345 7.155 56 7.963 56H48.037C48.845 56 49.5 55.345 49.5 55V12.978C49.5 12.282 49.407 12.058 49.243 11.893L37.607 0.257C37.442 0.093 37.218 0 36.985 0Z" fill="#E9E9E0"/>
<path d="M37.5 0.151001V12H49.349L37.5 0.151001Z" fill="#D9D7CA"/>
<path d="M48.037 56H7.963C7.155 56 6.5 55.345 6.5 54.537V39H49.5V54.537C49.5 55.345 48.845 56 48.037 56Z" fill="#61DBFB"/>
<path d="M13.002 47.7129H11.3496V51H9.86719V42.4688H12.8672C13.8516 42.4688 14.6113 42.6895 15.1465 43.1309C15.6816 43.5723 15.9492 44.2109 15.9492 45.0469C15.9492 45.6172 15.8105 46.0957 15.5332 46.4824C15.2598 46.8652 14.877 47.1602 14.3848 47.3672L16.3008 50.9238V51H14.7129L13.002 47.7129ZM11.3496 46.5234H12.873C13.373 46.5234 13.7637 46.3984 14.0449 46.1484C14.3262 45.8945 14.4668 45.5488 14.4668 45.1113C14.4668 44.6543 14.3359 44.3008 14.0742 44.0508C13.8164 43.8008 13.4297 43.6719 12.9141 43.6641H11.3496V46.5234ZM22.3418 47.1914H18.8379V49.8164H22.9336V51H17.3555V42.4688H22.8926V43.6641H18.8379V46.0195H22.3418V47.1914ZM28.916 49.0137H25.6113L24.9199 51H23.3789L26.6016 42.4688H27.9316L31.1602 51H29.6133L28.916 49.0137ZM26.0273 47.8184H28.5L27.2637 44.2793L26.0273 47.8184ZM38.5137 48.2227C38.4277 49.1328 38.0918 49.8438 37.5059 50.3555C36.9199 50.8633 36.1406 51.1172 35.168 51.1172C34.4883 51.1172 33.8887 50.957 33.3691 50.6367C32.8535 50.3125 32.4551 49.8535 32.1738 49.2598C31.8926 48.666 31.7461 47.9766 31.7344 47.1914V46.3945C31.7344 45.5898 31.877 44.8809 32.1621 44.2676C32.4473 43.6543 32.8555 43.1816 33.3867 42.8496C33.9219 42.5176 34.5391 42.3516 35.2383 42.3516C36.1797 42.3516 36.9375 42.6074 37.5117 43.1191C38.0859 43.6309 38.4199 44.3535 38.5137 45.2871H37.0371C36.9668 44.6738 36.7871 44.2324 36.498 43.9629C36.2129 43.6895 35.793 43.5527 35.2383 43.5527C34.5938 43.5527 34.0977 43.7891 33.75 44.2617C33.4062 44.7305 33.2305 45.4199 33.2227 46.3301V47.0859C33.2227 48.0078 33.3867 48.7109 33.7148 49.1953C34.0469 49.6797 34.5312 49.9219 35.168 49.9219C35.75 49.9219 36.1875 49.791 36.4805 49.5293C36.7734 49.2676 36.959 48.832 37.0371 48.2227H38.5137ZM45.832 43.6641H43.1719V51H41.7012V43.6641H39.0645V42.4688H45.832V43.6641Z" fill="white"/>
<path d="M24.3114 12.0052C23.9183 12.0287 23.533 12.1325 23.1786 12.3327C22.4698 12.7329 22.0401 13.4353 21.8672 14.202C21.6943 14.9688 21.7369 15.8225 21.909 16.7373C21.9323 16.8609 21.9758 16.9936 22.0039 17.1194C21.7253 17.2038 21.4334 17.2825 21.178 17.3786C20.281 17.7161 19.5283 18.1199 18.9626 18.6231C18.3969 19.1262 18 19.7729 18 20.5006C18 21.2283 18.3969 21.875 18.9626 22.3782C19.5283 22.8813 20.281 23.2852 21.178 23.6226C21.4558 23.7271 21.7714 23.8131 22.0765 23.9037C22.0352 24.1065 21.9769 24.3198 21.9481 24.515C21.8151 25.418 21.8157 26.234 21.99 26.9493C22.1642 27.6646 22.5426 28.3094 23.1786 28.6686C23.8146 29.0277 24.5731 29.026 25.2935 28.8159C26.014 28.6059 26.7396 28.1984 27.4727 27.6343C27.6302 27.5131 27.789 27.3576 27.947 27.2222C28.0611 27.325 28.1727 27.4459 28.2874 27.5415C29.0113 28.1447 29.7458 28.6063 30.5112 28.8432C31.2765 29.0802 32.1126 29.0688 32.8214 28.6686C33.5302 28.2683 33.9599 27.5659 34.1328 26.7992C34.3057 26.0325 34.2631 25.1788 34.091 24.2639C34.0677 24.1404 34.0242 24.0076 33.9961 23.8819C34.2747 23.7975 34.5666 23.7187 34.822 23.6226C35.719 23.2852 36.4717 22.8813 37.0374 22.3782C37.6031 21.875 38 21.2283 38 20.5006C38 19.7729 37.6031 19.1262 37.0374 18.6231C36.4717 18.1199 35.719 17.7161 34.822 17.3786C34.5442 17.2741 34.2286 17.1882 33.9235 17.0975C33.9648 16.8947 34.0231 16.6814 34.0519 16.4862C34.1849 15.5832 34.1843 14.7672 34.01 14.0519C33.8358 13.3367 33.4574 12.6918 32.8214 12.3327C32.1854 11.9735 31.4269 11.9752 30.7065 12.1853C29.986 12.3953 29.2604 12.8028 28.5273 13.367C28.3698 13.4882 28.211 13.6436 28.053 13.779C27.9389 13.6763 27.8273 13.5553 27.7126 13.4597C26.9887 12.8565 26.2542 12.3949 25.4888 12.158C25.1062 12.0395 24.7044 11.9816 24.3114 12.0052ZM24.409 13.3915C24.5978 13.3819 24.8083 13.413 25.0564 13.4898C25.5525 13.6434 26.1605 14.0003 26.7891 14.5241C26.8687 14.5904 26.9516 14.6791 27.0318 14.7506C26.55 15.255 26.0775 15.8157 25.6172 16.4316C24.8293 16.5076 24.0874 16.6236 23.385 16.77C23.3649 16.678 23.3294 16.5758 23.3125 16.4862C23.1631 15.6919 23.153 14.9993 23.2651 14.5022C23.3771 14.0051 23.5707 13.7235 23.8929 13.5416C24.0539 13.4506 24.2203 13.4011 24.409 13.3915ZM31.7054 13.4352C31.8673 13.4424 31.9981 13.48 32.1071 13.5416C32.3252 13.6648 32.5093 13.9059 32.6233 14.374C32.7373 14.842 32.7525 15.5053 32.6373 16.287C32.6157 16.4335 32.5673 16.6022 32.5368 16.7564C31.8628 16.6189 31.1541 16.5075 30.4023 16.4344C29.9701 15.842 29.5219 15.2843 29.0575 14.7751C29.175 14.6758 29.2966 14.5554 29.4118 14.4668C30.0464 13.9784 30.6424 13.66 31.1138 13.5225C31.3496 13.4538 31.5434 13.428 31.7054 13.4352ZM28.0335 15.7549C28.2009 15.9405 28.3672 16.1269 28.5329 16.3279C28.3531 16.3242 28.1823 16.3088 28 16.3088C27.8301 16.3088 27.6711 16.3247 27.5033 16.3279C27.6803 16.1212 27.8563 15.9422 28.0335 15.7549ZM28 17.7061C28.5565 17.7061 29.0962 17.7322 29.6239 17.7689C29.9201 18.2 30.2055 18.647 30.4749 19.1034C30.7439 19.5591 30.9977 20.0239 31.231 20.4897C31.0027 20.9561 30.7535 21.4258 30.4749 21.8979C30.1985 22.3661 29.909 22.8089 29.6127 23.2324C29.0884 23.2685 28.5527 23.2951 28 23.2951C27.4435 23.2951 26.9038 23.269 26.3761 23.2324C26.0799 22.8012 25.7945 22.3543 25.5251 21.8979C25.2561 21.4422 25.0023 20.9773 24.769 20.5115C24.9973 20.0452 25.2465 19.5754 25.5251 19.1034C25.8015 18.6351 26.091 18.1924 26.3873 17.7689C26.9116 17.7327 27.4473 17.7061 28 17.7061ZM24.5737 17.9654C24.4805 18.1153 24.38 18.2507 24.2891 18.4047C24.198 18.559 24.127 18.7118 24.0407 18.8659C23.9408 18.613 23.854 18.3669 23.7701 18.1209C24.0365 18.067 24.2904 18.0094 24.5737 17.9654ZM31.4319 17.9654C31.6966 18.0066 31.9325 18.0628 32.1825 18.1127C32.1064 18.3518 32.0379 18.585 31.9453 18.8332C31.865 18.691 31.7941 18.5455 31.7109 18.4047C31.6224 18.2548 31.5234 18.1133 31.4319 17.9654ZM33.572 18.4566C33.8206 18.5315 34.0863 18.5995 34.3086 18.6831C35.092 18.9778 35.7007 19.3247 36.0748 19.6574C36.4488 19.99 36.5714 20.2637 36.5714 20.5006C36.5714 20.7375 36.4488 21.0112 36.0748 21.3439C35.7007 21.6766 35.092 22.0234 34.3086 22.3181C34.1013 22.3961 33.8524 22.4605 33.6222 22.531C33.3982 21.8579 33.115 21.1733 32.7935 20.4842C33.107 19.7903 33.3668 19.1135 33.572 18.4566ZM22.3778 18.4702C22.6018 19.1434 22.885 19.828 23.2065 20.517C22.893 21.211 22.6332 21.8877 22.428 22.5447C22.1794 22.4697 21.9137 22.4018 21.6914 22.3181C20.908 22.0234 20.2993 21.6766 19.9252 21.3439C19.5512 21.0112 19.4286 20.7375 19.4286 20.5006C19.4286 20.2637 19.5512 19.99 19.9252 19.6574C20.2993 19.3247 20.908 18.9778 21.6914 18.6831C21.8987 18.6051 22.1476 18.5407 22.3778 18.4702ZM28 19.1034C27.6211 19.1034 27.2578 19.2506 26.9898 19.5126C26.7219 19.7746 26.5714 20.13 26.5714 20.5006C26.5714 20.8712 26.7219 21.2266 26.9898 21.4886C27.2578 21.7507 27.6211 21.8979 28 21.8979C28.3789 21.8979 28.7422 21.7507 29.0102 21.4886C29.2781 21.2266 29.4286 20.8712 29.4286 20.5006C29.4286 20.13 29.2781 19.7746 29.0102 19.5126C28.7422 19.2506 28.3789 19.1034 28 19.1034V19.1034ZM31.9593 22.1353C32.0592 22.3883 32.146 22.6344 32.2299 22.8803C31.9635 22.9343 31.7096 22.9918 31.4263 23.0359C31.5195 22.886 31.62 22.7506 31.7109 22.5965C31.802 22.4422 31.873 22.2894 31.9593 22.1353ZM24.0547 22.1681C24.135 22.3102 24.2059 22.4557 24.2891 22.5965C24.3776 22.7465 24.4766 22.8879 24.5681 23.0359C24.3034 22.9946 24.0675 22.9384 23.8175 22.8885C23.8936 22.6495 23.9621 22.4162 24.0547 22.1681ZM32.615 24.2312C32.6351 24.3232 32.6706 24.4254 32.6875 24.515C32.8369 25.3093 32.847 26.0019 32.7349 26.499C32.6229 26.9961 32.4293 27.2777 32.1071 27.4596C31.785 27.6416 31.4398 27.6651 30.9436 27.5115C30.4475 27.3579 29.8395 27.0009 29.2109 26.4772C29.1313 26.4108 29.0484 26.3221 28.9682 26.2507C29.45 25.7462 29.9225 25.1855 30.3828 24.5696C31.1707 24.4936 31.9126 24.3776 32.615 24.2312ZM23.4632 24.2448C24.1372 24.3823 24.8459 24.4937 25.5977 24.5669C26.0299 25.1593 26.4781 25.7169 26.9425 26.2261C26.825 26.3255 26.7034 26.4458 26.5882 26.5345C25.9536 27.0229 25.3576 27.3413 24.8862 27.4787C24.4147 27.6162 24.111 27.5828 23.8929 27.4596C23.6748 27.3365 23.4907 27.0953 23.3767 26.6273C23.2627 26.1592 23.2476 25.4959 23.3627 24.7142C23.3843 24.5678 23.4327 24.399 23.4632 24.2448ZM27.4671 24.6733C27.6469 24.677 27.8177 24.6924 28 24.6924C28.1699 24.6924 28.3289 24.6765 28.4967 24.6733C28.3197 24.88 28.1437 25.059 27.9665 25.2464C27.7991 25.0608 27.6328 24.8744 27.4671 24.6733Z" fill="#61DBFB"/>
</svg>
