<svg width="50" height="50" viewBox="0 0 111 111" fill="none" xmlns="http://www.w3.org/2000/svg">
<circle cx="55.5" cy="55.5" r="55" stroke="#FA7564"/>
<path d="M56.4675 87.9284C56.1938 87.9267 55.9215 87.8869 55.6587 87.8102L34.9979 81.9073C33.9838 81.6187 33.2007 80.8107 32.9437 79.788L29.9921 67.9818C29.5609 66.4098 30.486 64.7859 32.0579 64.3548C33.6299 63.9236 35.2539 64.8487 35.685 66.4206C35.6972 66.4646 35.708 66.5086 35.7179 66.5532L38.2561 76.7063L56.4669 81.9128L74.4121 76.783L79.7248 28.9033H26.9516C25.3215 28.9033 24 27.5817 24 25.9517C24 24.3216 25.3215 23.0001 26.9516 23.0001H83.0306C84.6607 22.9901 85.99 24.3036 86 25.9337C86.0005 26.0482 85.9947 26.1625 85.982 26.2762L80.079 79.4036C79.9451 80.5935 79.1056 81.5846 77.9539 81.9125L57.2932 87.8155C57.025 87.8924 56.7467 87.9303 56.4675 87.9284Z" fill="#FA7564"/>
<path d="M80.0796 52.5101H29.9038C28.2737 52.5101 26.9521 51.1886 26.9521 49.5585C26.9521 47.9284 28.2737 46.6069 29.9038 46.6069H80.0796C81.7096 46.6069 83.0312 47.9284 83.0312 49.5585C83.0312 51.1886 81.7096 52.5101 80.0796 52.5101Z" fill="#FA7564"/>
</svg>
