<svg width="50" height="50" viewBox="0 0 111 111" fill="none" xmlns="http://www.w3.org/2000/svg">
<circle cx="55.5" cy="55.5" r="55" stroke="#FA7564"/>
<path d="M48.7188 52.8478C48.0463 54.0212 47.7368 55.3707 47.8296 56.7255C47.9223 58.0803 48.4131 59.3797 49.2398 60.4592C50.0666 61.5387 51.1922 62.35 52.4743 62.7904C53.7564 63.2308 55.1374 63.2805 56.4427 62.9333C57.7479 62.5861 58.9189 61.8575 59.8074 60.8397C60.6958 59.822 61.262 58.5607 61.4342 57.2154C61.6064 55.8701 61.377 54.5013 60.7749 53.282C60.1728 52.0626 59.2251 51.0476 58.0516 50.3652C56.4781 49.4503 54.6109 49.1979 52.8607 49.6634C51.1105 50.129 49.6206 51.2744 48.7188 52.8478V52.8478ZM78.9432 44.0118C78.2972 43.7891 77.6291 43.5776 76.9388 43.3772C77.0558 42.8847 77.1633 42.3981 77.2611 41.9175C79.103 32.833 77.8631 25.5049 73.6904 23.0779C69.6896 20.7511 63.1624 23.1378 56.5794 28.8769C55.9315 29.443 55.2983 30.0253 54.6797 30.6238C54.2638 30.223 53.8407 29.8301 53.4104 29.445C46.4792 23.2551 39.5412 20.6315 35.3854 23.0343C31.4 25.3377 30.2355 32.2185 31.9364 40.8408C32.1048 41.691 32.2948 42.5367 32.5063 43.3778C31.9539 43.5375 31.4048 43.7074 30.8588 43.8876C22.0926 46.7892 16.401 51.4976 16.4217 56.3244C16.4417 60.9529 21.8062 65.4402 30.0896 68.3143C30.9104 68.598 31.7377 68.861 32.5716 69.1031C32.3256 70.0942 32.1119 71.0662 31.9356 72.0118C30.3567 80.472 31.6257 87.1998 35.6123 89.5182C39.7298 91.9132 46.624 89.4927 53.3269 83.6222C53.8696 83.1456 54.4001 82.6556 54.9183 82.1522C55.5917 82.8053 56.2827 83.4392 56.9914 84.0539C63.5137 89.6998 69.9468 91.9942 73.9183 89.6993C78.0192 87.3284 79.3363 80.1123 77.5817 71.3189C77.4429 70.6241 77.2807 69.913 77.0985 69.1896C77.9955 68.9335 78.8848 68.6524 79.7663 68.3463C87.8616 65.5257 93.0199 61.09 93.0003 56.4779C92.9795 51.7142 87.4004 46.9254 78.9431 44.0119L78.9432 44.0118ZM19.693 56.331C19.6804 53.3597 24.3319 49.5121 31.9007 47.0067C32.3846 46.8467 32.8818 46.693 33.3926 46.5455C34.4308 49.8682 35.6869 53.1197 37.1528 56.2783C35.7113 59.4158 34.4742 62.645 33.4493 65.9455C32.6739 65.7206 31.9042 65.4761 31.1405 65.2118L31.1408 65.2119C24.0434 62.7492 19.7049 59.1202 19.693 56.331ZM43.5838 68.0023C41.1497 67.689 38.8168 67.2752 36.6246 66.77C37.287 64.6277 38.0986 62.4043 39.0429 60.1451C39.7383 61.4896 40.465 62.8175 41.2227 64.1288C41.9798 65.4379 42.7668 66.7291 43.5838 68.0023V68.0023ZM51.1674 81.1422C48.6696 83.4411 45.7687 85.2563 42.6097 86.4971C41.7768 86.8946 40.8704 87.116 39.9467 87.1475C39.0229 87.179 38.1012 87.02 37.2387 86.6803C34.8197 85.2733 33.801 79.8717 35.1513 72.6361C35.3221 71.7284 35.5192 70.8266 35.7426 69.9308C39.1199 70.704 42.543 71.2525 45.9895 71.5726C48.0179 74.4576 50.2332 77.2062 52.6208 79.8005C52.1475 80.2597 51.6631 80.7069 51.1674 81.1422ZM59.1955 40.7676C57.6785 40.7039 56.161 40.6707 54.6427 40.6681C53.1486 40.6653 51.6551 40.6947 50.1622 40.7562C51.645 38.7917 53.1644 36.9677 54.6929 35.3138C56.2837 37.0551 57.7865 38.8754 59.1955 40.7676V40.7676ZM35.1453 40.2227C33.6877 32.8348 34.6296 27.2703 37.0316 25.8821C39.5896 24.4035 45.2601 26.5472 51.2443 31.8917C51.6339 32.2404 52.0172 32.596 52.3941 32.9584C50.0533 35.4997 47.8835 38.1947 45.8991 41.0259C42.4578 41.3075 39.0408 41.8219 35.6714 42.5656C35.4769 41.7889 35.3016 41.008 35.1453 40.2227ZM36.561 45.7349C38.8595 45.2294 41.1827 44.8406 43.5218 44.5702C41.899 47.1143 40.3982 49.7315 39.0195 52.4216C38.057 50.141 37.2338 47.8988 36.561 45.7349ZM50.261 71.8814C51.7659 71.9554 53.2716 71.9941 54.7783 71.9973C56.3151 72.0003 57.851 71.9665 59.386 71.8957C57.9841 73.8225 56.4842 75.6751 54.8921 77.4463C53.3342 75.758 51.7795 73.8904 50.261 71.8814ZM74.3737 71.9436C75.1239 75.2764 75.2573 78.7155 74.7673 82.089L74.7672 82.0893C74.6988 83.0141 74.442 83.9138 74.0128 84.7328C73.5835 85.5518 72.991 86.2727 72.2717 86.8509C69.8622 88.2439 64.6965 86.401 59.1187 81.5729C58.4602 81.0015 57.8176 80.4122 57.1911 79.805C59.5167 77.2219 61.6641 74.4824 63.6186 71.6054C67.0897 71.2977 70.5355 70.7614 73.9337 70C74.096 70.6442 74.2427 71.292 74.3737 71.9436ZM73.0236 66.8362C70.8007 67.3371 68.4266 67.7452 65.9485 68.0513C66.7274 66.8082 67.4951 65.527 68.2517 64.2078C69.0278 62.8535 69.7643 61.4993 70.4611 60.1454C71.4284 62.3309 72.2837 64.5642 73.0236 66.8363L73.0236 66.8362ZM65.3711 50.1703C66.5426 52.1938 67.6479 54.2532 68.6871 56.3487C67.6983 58.4019 66.6034 60.4814 65.4136 62.5573C64.2288 64.6246 63.0118 66.5984 61.7762 68.4623C59.4433 68.6349 57.106 68.7188 54.7645 68.714C52.4364 68.7096 50.1104 68.6166 47.7865 68.435C46.4676 66.5018 45.222 64.5214 44.0498 62.4937L44.0506 62.4941C42.8789 60.468 41.7849 58.4 40.7684 56.29C41.7512 54.2272 42.834 52.1558 44.0077 50.1079C45.1867 48.0505 46.4282 46.0679 47.7111 44.18C50.0224 44.0218 52.3377 43.9456 54.657 43.9514C56.9827 43.9542 59.3068 44.033 61.6294 44.1878C62.9468 46.1373 64.1941 48.1314 65.3713 50.1702L65.3711 50.1703ZM58.734 31.3616C64.374 26.444 69.6528 24.5139 72.0639 25.9161C74.6325 27.4099 75.6454 33.3996 74.0557 41.243L74.0556 41.2434C73.9675 41.6763 73.8706 42.1159 73.7649 42.5622C70.3536 41.8171 66.8971 41.3057 63.4196 41.0316C61.4531 38.2057 59.3012 35.514 56.9784 32.9743C57.5651 32.4093 58.1504 31.8717 58.734 31.3616V31.3616ZM65.7822 44.5621C68.1744 44.8277 70.5521 45.2175 72.9057 45.73C72.1929 48.0437 71.3599 50.3176 70.4101 52.5425C69.6992 51.1927 68.9619 49.8573 68.1982 48.5363C67.4224 47.1941 66.6171 45.8694 65.7822 44.5621V44.5621ZM89.7284 56.4712C89.7404 59.2702 85.5986 62.8315 78.6754 65.2437C77.8822 65.5204 77.0554 65.782 76.195 66.0286C75.1199 62.7186 73.8236 59.484 72.315 56.3467C73.795 53.1705 75.0547 49.8944 76.0854 46.5418C76.7099 46.7244 77.3144 46.9161 77.8987 47.1169L77.8985 47.1167C81.1461 48.1471 84.1806 49.7676 86.8505 51.8971C87.6151 52.4235 88.2649 53.1011 88.7599 53.8878C89.2549 54.6745 89.5845 55.5538 89.7284 56.4712V56.4712Z" fill="#FA7564"/>
</svg>
