<svg width="50" height="50" viewBox="0 0 111 111" fill="none" xmlns="http://www.w3.org/2000/svg">
<circle cx="55.5" cy="55.5" r="55" stroke="#FA7564"/>
<path d="M41.3867 28.8125H48.1719V65.0586C48.1719 69.957 46.6953 73.7891 43.7422 76.5547C40.8125 79.3203 36.8984 80.7031 32 80.7031C26.9141 80.7031 22.9531 79.4023 20.1172 76.8008C17.2812 74.1992 15.8633 70.5547 15.8633 65.8672H22.6133C22.6133 68.7969 23.4102 71.082 25.0039 72.7227C26.6211 74.3633 28.9531 75.1836 32 75.1836C34.7891 75.1836 37.0391 74.3047 38.75 72.5469C40.4844 70.7891 41.3633 68.3281 41.3867 65.1641V28.8125ZM74.75 57.1836C68.9609 55.5195 64.7422 53.4805 62.0938 51.0664C59.4688 48.6289 58.1562 45.6289 58.1562 42.0664C58.1562 38.0352 59.7617 34.707 62.9727 32.082C66.207 29.4336 70.4023 28.1094 75.5586 28.1094C79.0742 28.1094 82.2031 28.7891 84.9453 30.1484C87.7109 31.5078 89.8438 33.3828 91.3438 35.7734C92.8672 38.1641 93.6289 40.7773 93.6289 43.6133H86.8438C86.8438 40.5195 85.8594 38.0938 83.8906 36.3359C81.9219 34.5547 79.1445 33.6641 75.5586 33.6641C72.2305 33.6641 69.6289 34.4023 67.7539 35.8789C65.9023 37.332 64.9766 39.3594 64.9766 41.9609C64.9766 44.0469 65.8555 45.8164 67.6133 47.2695C69.3945 48.6992 72.4062 50.0117 76.6484 51.207C80.9141 52.4023 84.2422 53.7266 86.6328 55.1797C89.0469 56.6094 90.8281 58.2852 91.9766 60.207C93.1484 62.1289 93.7344 64.3906 93.7344 66.9922C93.7344 71.1406 92.1172 74.4688 88.8828 76.9766C85.6484 79.4609 81.3242 80.7031 75.9102 80.7031C72.3945 80.7031 69.1133 80.0352 66.0664 78.6992C63.0195 77.3398 60.6641 75.4883 59 73.1445C57.3594 70.8008 56.5391 68.1406 56.5391 65.1641H63.3242C63.3242 68.2578 64.4609 70.707 66.7344 72.5117C69.0312 74.293 72.0898 75.1836 75.9102 75.1836C79.4727 75.1836 82.2031 74.457 84.1016 73.0039C86 71.5508 86.9492 69.5703 86.9492 67.0625C86.9492 64.5547 86.0703 62.6211 84.3125 61.2617C82.5547 59.8789 79.3672 58.5195 74.75 57.1836Z" fill="#FA7564"/>
</svg>
