<svg width="50" height="50" viewBox="0 0 111 111" fill="none" xmlns="http://www.w3.org/2000/svg">
<circle cx="55.5" cy="55.5" r="55" stroke="#FA7564"/>
<g clip-path="url(#clip0)">
<path d="M90.6233 52.2479L58.7508 20.3771C56.9164 18.5416 53.9393 18.5416 52.1026 20.3771L45.4842 26.9956L53.88 35.3914C55.8311 34.7322 58.0684 35.1744 59.6236 36.7297C61.1863 38.2949 61.6254 40.5513 60.9502 42.5087L69.0415 50.6003C70.9991 49.9259 73.2578 50.3621 74.8213 51.9282C77.0065 54.1125 77.0065 57.6527 74.8213 59.8385C72.6356 62.0245 69.0954 62.0245 66.9085 59.8385C65.2649 58.1931 64.8588 55.7793 65.6909 53.7544L58.1451 46.2086L58.1442 66.066C58.6913 66.3365 59.1909 66.6937 59.6236 67.1239C61.8088 69.3082 61.8088 72.8487 59.6236 75.0362C57.4379 77.221 53.896 77.221 51.7134 75.0362C49.5283 72.8487 49.5283 69.3085 51.7134 67.1242C52.2371 66.6003 52.8594 66.1854 53.5444 65.9035V45.861C52.8584 45.5809 52.2357 45.1658 51.7134 44.6402C50.0578 42.9869 49.6597 40.5576 50.5081 38.5247L42.2317 30.2475L20.3773 52.1005C18.5409 53.9377 18.5409 56.915 20.3773 58.7509L52.2504 90.6222C54.0853 92.4581 57.0618 92.4581 58.8991 90.6222L90.623 58.8989C92.4588 57.0625 92.4588 54.0834 90.623 52.2479" fill="#FA7564"/>
</g>
<defs>
<clipPath id="clip0">
<rect width="73" height="73" fill="white" transform="translate(19 19)"/>
</clipPath>
</defs>
</svg>
