<svg width="50" height="50" viewBox="0 0 111 111" fill="none" xmlns="http://www.w3.org/2000/svg">
<path d="M55 93.931C34.0833 93.931 17.069 76.9167 17.069 56C17.069 35.0833 34.0833 18.069 55 18.069C75.9167 18.069 92.931 35.0833 92.931 56C92.931 76.9167 75.9167 93.931 55 93.931ZM55 24.1379C37.4303 24.1379 23.1379 38.4303 23.1379 56C23.1379 73.5697 37.4303 87.8621 55 87.8621C72.5697 87.8621 86.8621 73.5697 86.8621 56C86.8621 38.4303 72.5697 24.1379 55 24.1379Z" fill="#FA7564"/>
<path d="M55 62.069C58.3518 62.069 61.069 59.3518 61.069 56C61.069 52.6482 58.3518 49.931 55 49.931C51.6482 49.931 48.931 52.6482 48.931 56C48.931 59.3518 51.6482 62.069 55 62.069Z" fill="#FA7564"/>
<path d="M36.7931 62.069C40.1449 62.069 42.8621 59.3518 42.8621 56C42.8621 52.6482 40.1449 49.931 36.7931 49.931C33.4413 49.931 30.7241 52.6482 30.7241 56C30.7241 59.3518 33.4413 62.069 36.7931 62.069Z" fill="#FA7564"/>
<path d="M73.2069 62.069C76.5587 62.069 79.2759 59.3518 79.2759 56C79.2759 52.6482 76.5587 49.931 73.2069 49.931C69.8551 49.931 67.1379 52.6482 67.1379 56C67.1379 59.3518 69.8551 62.069 73.2069 62.069Z" fill="#FA7564"/>
<circle cx="55.5" cy="55.5" r="55" stroke="#FA7564"/>
</svg>
