<svg width="1100" height="377" viewBox="0 0 481 77" fill="none" xmlns="http://www.w3.org/2000/svg">
<path d="M48.8645 47.15L42.1145 27.2C41.6145 25.9333 41.0811 24.45 40.5145 22.75C39.9478 21.0167 39.3811 19.15 38.8145 17.15C38.3145 19.1833 37.7811 21.0667 37.2145 22.8C36.6478 24.5333 36.1145 26.0333 35.6145 27.3L28.9145 47.15H48.8645ZM75.7145 75H62.6145C61.1478 75 59.9645 74.6667 59.0645 74C58.1645 73.3 57.4811 72.4167 57.0145 71.35L52.7145 58.65H25.0145L20.7145 71.35C20.3478 72.2833 19.6811 73.1333 18.7145 73.9C17.7811 74.6333 16.6145 75 15.2145 75H2.01445L30.2145 2.15H47.5145L75.7145 75ZM110.258 62.25C112.492 62.25 114.308 61.9667 115.708 61.4C117.142 60.8333 118.258 60.1 119.058 59.2C119.858 58.3 120.408 57.2833 120.708 56.15C121.008 55.0167 121.158 53.8667 121.158 52.7C121.158 51.3667 120.975 50.1667 120.608 49.1C120.275 48.0333 119.675 47.1333 118.808 46.4C117.975 45.6667 116.858 45.1 115.458 44.7C114.058 44.3 112.292 44.1 110.158 44.1H98.3582V62.25H110.258ZM98.3582 14.8V32.8H107.158C109.025 32.8 110.708 32.6667 112.208 32.4C113.708 32.1333 114.975 31.6667 116.008 31C117.075 30.3333 117.875 29.4167 118.408 28.25C118.975 27.0833 119.258 25.6167 119.258 23.85C119.258 22.1167 119.042 20.6833 118.608 19.55C118.175 18.3833 117.508 17.45 116.608 16.75C115.708 16.05 114.558 15.55 113.158 15.25C111.792 14.95 110.158 14.8 108.258 14.8H98.3582ZM108.258 2.15C113.292 2.15 117.575 2.61667 121.108 3.55C124.642 4.48333 127.525 5.8 129.758 7.5C131.992 9.2 133.608 11.2667 134.608 13.7C135.642 16.1333 136.158 18.85 136.158 21.85C136.158 23.4833 135.925 25.0667 135.458 26.6C134.992 28.1 134.258 29.5167 133.258 30.85C132.258 32.15 130.975 33.35 129.408 34.45C127.842 35.55 125.958 36.5 123.758 37.3C128.558 38.4667 132.108 40.35 134.408 42.95C136.708 45.55 137.858 48.9167 137.858 53.05C137.858 56.15 137.258 59.0333 136.058 61.7C134.858 64.3667 133.092 66.7 130.758 68.7C128.458 70.6667 125.608 72.2167 122.208 73.35C118.808 74.45 114.925 75 110.558 75H81.4582V2.15H108.258ZM219.95 38.55C219.95 43.8167 219.034 48.7167 217.2 53.25C215.4 57.7833 212.85 61.7333 209.55 65.1C206.25 68.4333 202.267 71.05 197.6 72.95C192.967 74.85 187.817 75.8 182.15 75.8C176.484 75.8 171.317 74.85 166.65 72.95C161.984 71.05 157.984 68.4333 154.65 65.1C151.35 61.7333 148.784 57.7833 146.95 53.25C145.15 48.7167 144.25 43.8167 144.25 38.55C144.25 33.2833 145.15 28.3833 146.95 23.85C148.784 19.3167 151.35 15.3833 154.65 12.05C157.984 8.71666 161.984 6.1 166.65 4.2C171.317 2.3 176.484 1.35 182.15 1.35C187.817 1.35 192.967 2.31666 197.6 4.25C202.267 6.15 206.25 8.76667 209.55 12.1C212.85 15.4333 215.4 19.3667 217.2 23.9C219.034 28.4333 219.95 33.3167 219.95 38.55ZM202.65 38.55C202.65 34.95 202.184 31.7167 201.25 28.85C200.317 25.95 198.967 23.5 197.2 21.5C195.467 19.5 193.334 17.9667 190.8 16.9C188.267 15.8333 185.384 15.3 182.15 15.3C178.884 15.3 175.967 15.8333 173.4 16.9C170.867 17.9667 168.717 19.5 166.95 21.5C165.217 23.5 163.884 25.95 162.95 28.85C162.017 31.7167 161.55 34.95 161.55 38.55C161.55 42.1833 162.017 45.45 162.95 48.35C163.884 51.2167 165.217 53.65 166.95 55.65C168.717 57.65 170.867 59.1833 173.4 60.25C175.967 61.2833 178.884 61.8 182.15 61.8C185.384 61.8 188.267 61.2833 190.8 60.25C193.334 59.1833 195.467 57.65 197.2 55.65C198.967 53.65 200.317 51.2167 201.25 48.35C202.184 45.45 202.65 42.1833 202.65 38.55ZM260.296 61.65C262.562 61.65 264.579 61.2833 266.346 60.55C268.146 59.7833 269.662 58.7 270.896 57.3C272.129 55.9 273.062 54.2 273.696 52.2C274.362 50.1667 274.696 47.8667 274.696 45.3V2.15H291.596V45.3C291.596 49.7667 290.862 53.8667 289.396 57.6C287.962 61.3333 285.896 64.55 283.196 67.25C280.496 69.95 277.212 72.05 273.346 73.55C269.479 75.05 265.129 75.8 260.296 75.8C255.429 75.8 251.062 75.05 247.196 73.55C243.329 72.05 240.046 69.95 237.346 67.25C234.646 64.55 232.579 61.3333 231.146 57.6C229.712 53.8667 228.996 49.7667 228.996 45.3V2.15H245.896V45.25C245.896 47.8167 246.212 50.1167 246.846 52.15C247.512 54.15 248.462 55.8667 249.696 57.3C250.929 58.7 252.429 59.7833 254.196 60.55C255.996 61.2833 258.029 61.65 260.296 61.65ZM357.148 15.55H336.648V75H319.748V15.55H299.248V2.15H357.148V15.55Z" fill="" fill-opacity="0.05"/>
<path d="M48.8645 47.15V48.15H50.2585L49.8117 46.8295L48.8645 47.15ZM42.1145 27.2L43.0617 26.8795L43.0537 26.856L43.0446 26.8328L42.1145 27.2ZM40.5145 22.75L39.5639 23.0607L39.5658 23.0662L40.5145 22.75ZM38.8145 17.15L39.7766 16.8774L38.7461 13.2403L37.8434 16.9112L38.8145 17.15ZM37.2145 22.8L38.1649 23.1107L38.165 23.1107L37.2145 22.8ZM35.6145 27.3L34.6843 26.9328L34.675 26.9563L34.667 26.9802L35.6145 27.3ZM28.9145 47.15L27.967 46.8302L27.5215 48.15H28.9145V47.15ZM75.7145 75V76H77.1739L76.647 74.639L75.7145 75ZM59.0645 74L58.4505 74.7894L58.4598 74.7966L58.4692 74.8036L59.0645 74ZM57.0145 71.35L56.0673 71.6707L56.0811 71.7114L56.0983 71.7508L57.0145 71.35ZM52.7145 58.65L53.6616 58.3293L53.4316 57.65H52.7145V58.65ZM25.0145 58.65V57.65H24.2973L24.0673 58.3293L25.0145 58.65ZM20.7145 71.35L21.6452 71.7157L21.654 71.6934L21.6616 71.6707L20.7145 71.35ZM18.7145 73.9L19.3323 74.6863L19.3358 74.6835L18.7145 73.9ZM2.01445 75L1.08189 74.639L0.555049 76H2.01445V75ZM30.2145 2.15V1.15H29.5292L29.2819 1.78901L30.2145 2.15ZM47.5145 2.15L48.447 1.78901L48.1997 1.15H47.5145V2.15ZM49.8117 46.8295L43.0617 26.8795L41.1672 27.5205L47.9172 47.4705L49.8117 46.8295ZM43.0446 26.8328C42.5529 25.5873 42.0258 24.1216 41.4631 22.4338L39.5658 23.0662C40.1365 24.7784 40.676 26.2794 41.1843 27.5672L43.0446 26.8328ZM41.4649 22.4393C40.9029 20.7202 40.3401 18.8663 39.7766 16.8774L37.8523 17.4226C38.4221 19.4337 38.9926 21.3132 39.564 23.0607L41.4649 22.4393ZM37.8434 16.9112C37.3485 18.9238 36.8218 20.7828 36.264 22.4893L38.165 23.1107C38.7404 21.3505 39.2804 19.4429 39.7855 17.3888L37.8434 16.9112ZM36.264 22.4893C35.7016 24.2095 35.175 25.6898 34.6843 26.9328L36.5446 27.6672C37.0539 26.3769 37.594 24.8572 38.1649 23.1107L36.264 22.4893ZM34.667 26.9802L27.967 46.8302L29.8619 47.4698L36.5619 27.6198L34.667 26.9802ZM28.9145 48.15H48.8645V46.15H28.9145V48.15ZM75.7145 74H62.6145V76H75.7145V74ZM62.6145 74C61.2959 74 60.3409 73.7011 59.6597 73.1964L58.4692 74.8036C59.588 75.6323 60.9996 76 62.6145 76V74ZM59.6784 73.2106C58.9128 72.6152 58.332 71.8665 57.9306 70.9492L56.0983 71.7508C56.6303 72.9668 57.4161 73.9848 58.4505 74.7894L59.6784 73.2106ZM57.9616 71.0293L53.6616 58.3293L51.7673 58.9707L56.0673 71.6707L57.9616 71.0293ZM52.7145 57.65H25.0145V59.65H52.7145V57.65ZM24.0673 58.3293L19.7673 71.0293L21.6616 71.6707L25.9616 58.9707L24.0673 58.3293ZM19.7837 70.9843C19.4948 71.7197 18.9532 72.4343 18.0931 73.1165L19.3358 74.6835C20.409 73.8323 21.2008 72.847 21.6452 71.7157L19.7837 70.9843ZM18.0966 73.1137C17.3698 73.6848 16.4322 74 15.2145 74V76C16.7967 76 18.1925 75.5819 19.3323 74.6863L18.0966 73.1137ZM15.2145 74H2.01445V76H15.2145V74ZM2.94702 75.361L31.147 2.51099L29.2819 1.78901L1.08189 74.639L2.94702 75.361ZM30.2145 3.15H47.5145V1.15H30.2145V3.15ZM46.5819 2.51099L74.7819 75.361L76.647 74.639L48.447 1.78901L46.5819 2.51099ZM115.708 61.4L115.341 60.47L115.333 60.4731L115.708 61.4ZM119.058 59.2L119.806 59.8644L119.806 59.8644L119.058 59.2ZM120.708 56.15L121.675 56.4059L121.675 56.4059L120.708 56.15ZM120.608 49.1L119.654 49.3983L119.658 49.4117L119.663 49.4251L120.608 49.1ZM118.808 46.4L118.148 47.1507L118.155 47.1571L118.162 47.1634L118.808 46.4ZM115.458 44.7L115.183 45.6615L115.183 45.6615L115.458 44.7ZM98.3582 44.1V43.1H97.3582V44.1H98.3582ZM98.3582 62.25H97.3582V63.25H98.3582V62.25ZM98.3582 14.8V13.8H97.3582V14.8H98.3582ZM98.3582 32.8H97.3582V33.8H98.3582V32.8ZM112.208 32.4L112.033 31.4154L112.033 31.4154L112.208 32.4ZM116.008 31L115.478 30.152L115.472 30.1558L115.466 30.1597L116.008 31ZM118.408 28.25L117.509 27.8131L117.504 27.8236L117.499 27.8342L118.408 28.25ZM118.608 19.55L117.671 19.8982L117.674 19.9071L118.608 19.55ZM113.158 15.25L112.944 16.2268L112.949 16.2278L113.158 15.25ZM121.108 3.55L120.853 4.51684L120.853 4.51684L121.108 3.55ZM129.758 7.5L129.153 8.2957L129.153 8.2957L129.758 7.5ZM134.608 13.7L133.683 14.0801L133.688 14.0909L134.608 13.7ZM135.458 26.6L136.413 26.8971L136.415 26.8912L135.458 26.6ZM133.258 30.85L134.051 31.4598L134.058 31.45L133.258 30.85ZM129.408 34.45L128.834 33.6316L128.834 33.6316L129.408 34.45ZM123.758 37.3L123.416 36.3602L120.308 37.4905L123.522 38.2717L123.758 37.3ZM134.408 42.95L133.659 43.6126L134.408 42.95ZM136.058 61.7L136.97 62.1104L136.97 62.1104L136.058 61.7ZM130.758 68.7L131.408 69.46L131.409 69.4593L130.758 68.7ZM122.208 73.35L122.516 74.3015L122.524 74.2987L122.208 73.35ZM81.4582 75H80.4582V76H81.4582V75ZM81.4582 2.15V1.15H80.4582V2.15H81.4582ZM110.258 63.25C112.564 63.25 114.521 62.9592 116.083 62.3269L115.333 60.4731C114.095 60.9742 112.419 61.25 110.258 61.25V63.25ZM116.076 62.33C117.615 61.7214 118.877 60.9095 119.806 59.8644L118.311 58.5356C117.64 59.2905 116.668 59.9453 115.341 60.47L116.076 62.33ZM119.806 59.8644C120.707 58.8506 121.334 57.6949 121.675 56.4059L119.742 55.8941C119.483 56.8718 119.01 57.7494 118.311 58.5356L119.806 59.8644ZM121.675 56.4059C121.997 55.1895 122.158 53.9535 122.158 52.7H120.158C120.158 53.7799 120.02 54.8439 119.742 55.8941L121.675 56.4059ZM122.158 52.7C122.158 51.2757 121.962 49.9633 121.554 48.7749L119.663 49.4251C119.987 50.3701 120.158 51.4577 120.158 52.7H122.158ZM121.563 48.8017C121.172 47.5509 120.463 46.4905 119.454 45.6366L118.162 47.1634C118.886 47.7762 119.378 48.5158 119.654 49.3983L121.563 48.8017ZM119.469 45.6493C118.495 44.7923 117.233 44.1671 115.733 43.7385L115.183 45.6615C116.483 46.0329 117.455 46.541 118.148 47.1507L119.469 45.6493ZM115.733 43.7385C114.213 43.3041 112.346 43.1 110.158 43.1V45.1C112.238 45.1 113.904 45.2959 115.183 45.6615L115.733 43.7385ZM110.158 43.1H98.3582V45.1H110.158V43.1ZM97.3582 44.1V62.25H99.3582V44.1H97.3582ZM98.3582 63.25H110.258V61.25H98.3582V63.25ZM97.3582 14.8V32.8H99.3582V14.8H97.3582ZM98.3582 33.8H107.158V31.8H98.3582V33.8ZM107.158 33.8C109.071 33.8 110.814 33.6635 112.383 33.3846L112.033 31.4154C110.602 31.6698 108.979 31.8 107.158 31.8V33.8ZM112.383 33.3846C113.984 33.1 115.382 32.5939 116.55 31.8403L115.466 30.1597C114.568 30.7394 113.433 31.1666 112.033 31.4154L112.383 33.3846ZM116.538 31.848C117.774 31.0754 118.705 30.0068 119.318 28.6658L117.499 27.8342C117.045 28.8265 116.375 29.5913 115.478 30.152L116.538 31.848ZM119.308 28.6869C119.96 27.344 120.258 25.7161 120.258 23.85H118.258C118.258 25.5172 117.99 26.8226 117.509 27.8131L119.308 28.6869ZM120.258 23.85C120.258 22.0426 120.034 20.4778 119.542 19.1929L117.674 19.9071C118.05 20.8888 118.258 22.1907 118.258 23.85H120.258ZM119.546 19.2018C119.054 17.8774 118.282 16.7851 117.222 15.9606L115.994 17.5393C116.734 18.1149 117.296 18.8893 117.671 19.8982L119.546 19.2018ZM117.222 15.9606C116.177 15.1476 114.878 14.5959 113.368 14.2722L112.949 16.2278C114.238 16.5041 115.24 16.9524 115.994 17.5393L117.222 15.9606ZM113.373 14.2733C111.916 13.9534 110.207 13.8 108.258 13.8V15.8C110.11 15.8 111.667 15.9466 112.944 16.2267L113.373 14.2733ZM108.258 13.8H98.3582V15.8H108.258V13.8ZM108.258 3.15C113.235 3.15 117.427 3.61203 120.853 4.51684L121.364 2.58316C117.722 1.6213 113.348 1.15 108.258 1.15V3.15ZM120.853 4.51684C124.296 5.4263 127.05 6.69523 129.153 8.2957L130.364 6.70429C128 4.90476 124.987 3.54036 121.364 2.58316L120.853 4.51684ZM129.153 8.2957C131.254 9.89549 132.755 11.8223 133.683 14.0801L135.533 13.3199C134.461 10.7111 132.729 8.50451 130.364 6.70429L129.153 8.2957ZM133.688 14.0909C134.662 16.385 135.158 18.9663 135.158 21.85H137.158C137.158 18.7337 136.621 15.8817 135.529 13.3091L133.688 14.0909ZM135.158 21.85C135.158 23.3866 134.939 24.8717 134.502 26.3088L136.415 26.8912C136.911 25.2616 137.158 23.5801 137.158 21.85H135.158ZM134.503 26.3029C134.073 27.6874 133.394 29.0024 132.458 30.25L134.058 31.45C135.123 30.0309 135.91 28.5126 136.413 26.8971L134.503 26.3029ZM132.466 30.2403C131.537 31.448 130.331 32.5802 128.834 33.6316L129.983 35.2684C131.619 34.1197 132.98 32.852 134.051 31.4597L132.466 30.2403ZM128.834 33.6316C127.353 34.6713 125.551 35.5838 123.416 36.3602L124.1 38.2398C126.365 37.4162 128.33 36.4287 129.983 35.2684L128.834 33.6316ZM123.522 38.2717C128.204 39.4098 131.541 41.2178 133.659 43.6126L135.157 42.2874C132.676 39.4822 128.912 37.5236 123.994 36.3283L123.522 38.2717ZM133.659 43.6126C135.768 45.9961 136.858 49.1117 136.858 53.05H138.858C138.858 48.7216 137.649 45.1039 135.157 42.2874L133.659 43.6126ZM136.858 53.05C136.858 56.0172 136.285 58.7597 135.146 61.2896L136.97 62.1104C138.232 59.307 138.858 56.2828 138.858 53.05H136.858ZM135.146 61.2896C134.01 63.8154 132.335 66.0314 130.107 67.9407L131.409 69.4593C133.848 67.3686 135.707 64.9179 136.97 62.1104L135.146 61.2896ZM130.108 67.94C127.923 69.8089 125.192 71.3014 121.892 72.4013L122.524 74.2987C126.025 73.1319 128.994 71.5244 131.408 69.46L130.108 67.94ZM121.9 72.3986C118.619 73.4602 114.843 74 110.558 74V76C115.007 76 118.997 75.4398 122.516 74.3014L121.9 72.3986ZM110.558 74H81.4582V76H110.558V74ZM82.4582 75V2.15H80.4582V75H82.4582ZM81.4582 3.15H108.258V1.15H81.4582V3.15ZM217.2 53.25L216.273 52.8751L216.271 52.881L217.2 53.25ZM209.55 65.1L210.261 65.8036L210.265 65.8L209.55 65.1ZM197.6 72.95L197.223 72.0238L197.221 72.0248L197.6 72.95ZM166.65 72.95L166.273 73.8762L166.273 73.8762L166.65 72.95ZM154.65 65.1L153.936 65.8L153.943 65.8071L154.65 65.1ZM146.95 53.25L146.021 53.619L146.023 53.6249L146.95 53.25ZM146.95 23.85L146.023 23.4751L146.021 23.481L146.95 23.85ZM154.65 12.05L153.943 11.3429L153.94 11.3465L154.65 12.05ZM166.65 4.2L167.027 5.12618L167.027 5.12618L166.65 4.2ZM197.6 4.25L197.215 5.17291L197.223 5.17617L197.6 4.25ZM209.55 12.1L208.84 12.8035L208.84 12.8035L209.55 12.1ZM217.2 23.9L216.271 24.269L216.273 24.2749L217.2 23.9ZM201.25 28.85L200.298 29.1564L200.3 29.1596L201.25 28.85ZM197.2 21.5L196.445 22.155L196.451 22.162L197.2 21.5ZM190.8 16.9L191.188 15.9784L191.188 15.9784L190.8 16.9ZM173.4 16.9L173.017 15.9766L173.012 15.9784L173.4 16.9ZM166.95 21.5L166.201 20.8379L166.195 20.8451L166.95 21.5ZM162.95 28.85L163.901 29.1596L163.902 29.1564L162.95 28.85ZM162.95 48.35L161.998 48.6564L162 48.6596L162.95 48.35ZM166.95 55.65L166.195 56.305L166.201 56.312L166.95 55.65ZM173.4 60.25L173.012 61.1716L173.02 61.1747L173.027 61.1776L173.4 60.25ZM190.8 60.25L191.178 61.176L191.188 61.1716L190.8 60.25ZM197.2 55.65L196.451 54.9879L196.445 54.9951L197.2 55.65ZM201.25 48.35L202.201 48.6596L202.202 48.6564L201.25 48.35ZM218.95 38.55C218.95 43.6981 218.055 48.4698 216.273 52.8751L218.127 53.6249C220.013 48.9635 220.95 43.9352 220.95 38.55H218.95ZM216.271 52.881C214.518 57.2951 212.04 61.1316 208.836 64.4L210.265 65.8C213.661 62.3351 216.282 58.2715 218.13 53.619L216.271 52.881ZM208.84 64.3965C205.642 67.6269 201.774 70.1709 197.223 72.0238L197.977 73.8762C202.76 71.9291 206.859 69.2398 210.261 65.8035L208.84 64.3965ZM197.221 72.0248C192.723 73.8693 187.704 74.8 182.15 74.8V76.8C187.93 76.8 193.211 75.8307 197.98 73.8752L197.221 72.0248ZM182.15 74.8C176.597 74.8 171.56 73.8694 167.027 72.0238L166.273 73.8762C171.074 75.8306 176.371 76.8 182.15 76.8V74.8ZM167.027 72.0238C162.476 70.1706 158.59 67.6256 155.357 64.3929L153.943 65.8071C157.377 69.2411 161.492 71.9294 166.273 73.8762L167.027 72.0238ZM155.365 64.4C152.159 61.1302 149.664 57.2918 147.877 52.8751L146.023 53.6249C147.904 58.2749 150.541 62.3365 153.936 65.8L155.365 64.4ZM147.88 52.881C146.13 48.4742 145.25 43.7004 145.25 38.55H143.25C143.25 43.9329 144.171 48.9592 146.021 53.619L147.88 52.881ZM145.25 38.55C145.25 33.3995 146.13 28.6258 147.88 24.219L146.021 23.481C144.171 28.1408 143.25 33.1671 143.25 38.55H145.25ZM147.877 24.2249C149.663 19.8091 152.158 15.9887 155.361 12.7535L153.94 11.3465C150.543 14.7779 147.904 18.8243 146.023 23.4751L147.877 24.2249ZM155.357 12.7571C158.59 9.52443 162.476 6.97939 167.027 5.12618L166.273 3.27382C161.492 5.2206 157.377 7.9089 153.943 11.3429L155.357 12.7571ZM167.027 5.12618C171.56 3.28064 176.597 2.35 182.15 2.35V0.349998C176.371 0.349998 171.074 1.31936 166.273 3.27382L167.027 5.12618ZM182.15 2.35C187.702 2.35 192.719 3.2966 197.215 5.17288L197.985 3.32712C193.215 1.33673 187.932 0.349998 182.15 0.349998V2.35ZM197.223 5.17617C201.774 7.02907 205.642 9.57314 208.84 12.8035L210.261 11.3965C206.859 7.96019 202.76 5.27092 197.977 3.32382L197.223 5.17617ZM208.84 12.8035C212.041 16.0374 214.519 19.8557 216.271 24.269L218.13 23.531C216.282 18.8776 213.66 14.8292 210.261 11.3965L208.84 12.8035ZM216.273 24.2749C218.055 28.681 218.95 33.436 218.95 38.55H220.95C220.95 33.1973 220.012 28.1857 218.127 23.5251L216.273 24.2749ZM203.65 38.55C203.65 34.8647 203.173 31.5243 202.201 28.5404L200.3 29.1596C201.195 31.9091 201.65 35.0353 201.65 38.55H203.65ZM202.202 28.5436C201.233 25.5309 199.82 22.9549 197.95 20.838L196.451 22.162C198.114 24.0451 199.401 26.3691 200.298 29.1564L202.202 28.5436ZM197.956 20.8451C196.118 18.7246 193.858 17.1022 191.188 15.9784L190.412 17.8216C192.81 18.8311 194.816 20.2754 196.445 22.1549L197.956 20.8451ZM191.188 15.9784C188.513 14.8517 185.494 14.3 182.15 14.3V16.3C185.274 16.3 188.022 16.815 190.412 17.8216L191.188 15.9784ZM182.15 14.3C178.775 14.3 175.724 14.8513 173.017 15.9766L173.784 17.8234C176.21 16.8154 178.993 16.3 182.15 16.3V14.3ZM173.012 15.9784C170.345 17.1015 168.07 18.7219 166.201 20.838L167.7 22.162C169.364 20.2781 171.389 18.8318 173.788 17.8216L173.012 15.9784ZM166.195 20.8451C164.361 22.9611 162.967 25.5346 161.998 28.5436L163.902 29.1564C164.801 26.3654 166.073 24.0389 167.706 22.1549L166.195 20.8451ZM162 28.5404C161.028 31.5243 160.55 34.8647 160.55 38.55H162.55C162.55 35.0353 163.006 31.9091 163.901 29.1596L162 28.5404ZM160.55 38.55C160.55 42.2679 161.028 45.6404 161.998 48.6564L163.902 48.0436C163.006 45.2596 162.55 42.0988 162.55 38.55H160.55ZM162 48.6596C162.968 51.6357 164.363 54.1909 166.195 56.3049L167.706 54.9951C166.072 53.1091 164.799 50.7977 163.901 48.0404L162 48.6596ZM166.201 56.312C168.07 58.4281 170.345 60.0485 173.012 61.1716L173.788 59.3284C171.389 58.3182 169.364 56.8719 167.7 54.988L166.201 56.312ZM173.027 61.1776C175.732 62.2666 178.778 62.8 182.15 62.8V60.8C178.989 60.8 176.202 60.3001 173.774 59.3224L173.027 61.1776ZM182.15 62.8C185.49 62.8 188.505 62.2662 191.178 61.1759L190.423 59.3241C188.029 60.3005 185.277 60.8 182.15 60.8V62.8ZM191.188 61.1716C193.858 60.0478 196.118 58.4254 197.956 56.3049L196.445 54.9951C194.816 56.8746 192.81 58.3189 190.412 59.3284L191.188 61.1716ZM197.95 56.312C199.818 54.1971 201.231 51.6394 202.201 48.6596L200.3 48.0404C199.403 50.7939 198.116 53.1029 196.451 54.988L197.95 56.312ZM202.202 48.6564C203.173 45.6404 203.65 42.2679 203.65 38.55H201.65C201.65 42.0988 201.194 45.2596 200.298 48.0436L202.202 48.6564ZM266.346 60.55L266.729 61.4736L266.738 61.47L266.346 60.55ZM270.896 57.3L271.646 57.961L271.646 57.961L270.896 57.3ZM273.696 52.2L272.745 51.8884L272.742 51.8981L273.696 52.2ZM274.696 2.15V1.15H273.696V2.15H274.696ZM291.596 2.15H292.596V1.15H291.596V2.15ZM289.396 57.6L288.465 57.2343L288.462 57.2416L289.396 57.6ZM283.196 67.25L282.489 66.5429L282.489 66.5429L283.196 67.25ZM273.346 73.55L272.984 72.6177L272.984 72.6177L273.346 73.55ZM247.196 73.55L246.834 74.4823L246.834 74.4823L247.196 73.55ZM237.346 67.25L236.639 67.9571L237.346 67.25ZM231.146 57.6L232.079 57.2416L232.079 57.2416L231.146 57.6ZM228.996 2.15V1.15H227.996V2.15H228.996ZM245.896 2.15H246.896V1.15H245.896V2.15ZM246.846 52.15L245.891 52.4474L245.894 52.4568L245.897 52.4662L246.846 52.15ZM249.696 57.3L248.938 57.9523L248.945 57.961L249.696 57.3ZM254.196 60.55L253.798 61.4673L253.808 61.4718L253.818 61.4761L254.196 60.55ZM260.296 62.65C262.67 62.65 264.821 62.2658 266.729 61.4736L265.962 59.6264C264.337 60.3009 262.455 60.65 260.296 60.65V62.65ZM266.738 61.47C268.668 60.6478 270.309 59.4785 271.646 57.961L270.145 56.639C269.015 57.9215 267.623 58.9189 265.954 59.63L266.738 61.47ZM271.646 57.961C272.982 56.4445 273.979 54.6179 274.649 52.5019L272.742 51.8981C272.146 53.7821 271.276 55.3555 270.145 56.639L271.646 57.961ZM274.646 52.5115C275.351 50.3599 275.696 47.952 275.696 45.3H273.696C273.696 47.7813 273.373 49.9734 272.745 51.8884L274.646 52.5115ZM275.696 45.3V2.15H273.696V45.3H275.696ZM274.696 3.15H291.596V1.15H274.696V3.15ZM290.596 2.15V45.3H292.596V2.15H290.596ZM290.596 45.3C290.596 49.6557 289.881 53.63 288.465 57.2343L290.326 57.9657C291.844 54.1033 292.596 49.8776 292.596 45.3H290.596ZM288.462 57.2416C287.077 60.8504 285.085 63.9467 282.489 66.5429L283.903 67.9571C286.707 65.1533 288.848 61.8162 290.329 57.9584L288.462 57.2416ZM282.489 66.5429C279.895 69.1364 276.732 71.1636 272.984 72.6177L273.707 74.4823C277.692 72.9364 281.096 70.7636 283.903 67.9571L282.489 66.5429ZM272.984 72.6177C269.25 74.0662 265.025 74.8 260.296 74.8V76.8C265.233 76.8 269.708 76.0338 273.707 74.4823L272.984 72.6177ZM260.296 74.8C255.532 74.8 251.291 74.0659 247.557 72.6177L246.834 74.4823C250.834 76.0341 255.326 76.8 260.296 76.8V74.8ZM247.557 72.6177C243.809 71.1636 240.646 69.1364 238.053 66.5429L236.639 67.9571C239.445 70.7636 242.849 72.9364 246.834 74.4823L247.557 72.6177ZM238.053 66.5429C235.457 63.9467 233.465 60.8504 232.079 57.2416L230.212 57.9584C231.693 61.8162 233.835 65.1533 236.639 67.9571L238.053 66.5429ZM232.079 57.2416C230.695 53.6352 229.996 49.6584 229.996 45.3H227.996C227.996 49.8749 228.73 54.0981 230.212 57.9584L232.079 57.2416ZM229.996 45.3V2.15H227.996V45.3H229.996ZM228.996 3.15H245.896V1.15H228.996V3.15ZM244.896 2.15V45.25H246.896V2.15H244.896ZM244.896 45.25C244.896 47.8975 245.222 50.3004 245.891 52.4474L247.8 51.8526C247.203 49.9329 246.896 47.7358 246.896 45.25H244.896ZM245.897 52.4662C246.6 54.5754 247.61 56.4096 248.938 57.9522L250.454 56.6478C249.314 55.3237 248.425 53.7246 247.794 51.8338L245.897 52.4662ZM248.945 57.961C250.279 59.4749 251.901 60.6441 253.798 61.4673L254.594 59.6327C252.957 58.9226 251.579 57.9251 250.446 56.639L248.945 57.961ZM253.818 61.4761C255.756 62.2656 257.921 62.65 260.296 62.65V60.65C258.137 60.65 256.235 60.301 254.573 59.6239L253.818 61.4761ZM357.148 15.55V16.55H358.148V15.55H357.148ZM336.648 15.55V14.55H335.648V15.55H336.648ZM336.648 75V76H337.648V75H336.648ZM319.748 75H318.748V76H319.748V75ZM319.748 15.55H320.748V14.55H319.748V15.55ZM299.248 15.55H298.248V16.55H299.248V15.55ZM299.248 2.15V1.15H298.248V2.15H299.248ZM357.148 2.15H358.148V1.15H357.148V2.15ZM357.148 14.55H336.648V16.55H357.148V14.55ZM335.648 15.55V75H337.648V15.55H335.648ZM336.648 74H319.748V76H336.648V74ZM320.748 75V15.55H318.748V75H320.748ZM319.748 14.55H299.248V16.55H319.748V14.55ZM300.248 15.55V2.15H298.248V15.55H300.248ZM299.248 3.15H357.148V1.15H299.248V3.15ZM356.148 2.15V15.55H358.148V2.15H356.148Z" fill="black" fill-opacity="0.1"/>
</svg>
