<svg width="492" height="492" viewBox="0 0 492 492" fill="none" xmlns="http://www.w3.org/2000/svg">
<g clip-path="url(#clip0)">
<path d="M326.95 0H62.336V491.52H429.184V102.234L326.95 0Z" fill="#3D6A85"/>
<path d="M326.95 102.234H429.184L326.95 0V102.234Z" fill="#4B82A3"/>
<path d="M157.6 124.931L157.643 124.959V124.921L157.662 124.947L157.685 124.932V124.931L157.693 124.921V124.926L173.801 114.162L173.803 114.163V96.323C172.584 97.162 171.415 98.071 170.317 99.063C163.249 105.453 156.317 104.358 156.317 104.358C152.089 104.47 146.066 100.138 143.497 98.121C142.844 97.607 142.173 97.117 141.484 96.652V114.163L141.485 114.162L157.6 124.931Z" fill="#F6C358"/>
<path d="M157.642 118.613L157.643 118.614V118.612L152.431 125.71L157.642 118.613Z" fill="#F6C358"/>
<path d="M184.576 77.31C184.576 77.31 185.507 71.021 188.728 65.856C189.51 64.602 189.938 63.16 189.938 61.682V45.427C189.938 45.427 188.923 37.456 181.098 35.572C181.098 35.572 184.286 28.785 176.026 27.179H145.593C134.469 27.179 125.45 36.198 125.45 47.322V59.264C125.45 61.851 126.316 64.369 127.936 66.387C129.211 67.974 130.535 70.47 130.739 74.082" fill="#64798A"/>
<path d="M156.316 107.742C156.316 107.742 163.248 108.837 170.316 102.447C171.414 101.455 172.583 100.546 173.802 99.707C173.922 99.624 174.04 99.538 174.16 99.457C177.29 97.355 183.301 91.527 184.575 77.31V58.47C184.575 58.47 183.85 51.803 176.749 49.195L166.195 45.49C164.227 44.799 162.08 44.826 160.13 45.567C157.943 46.397 155.056 47.471 153.24 48.054C152.369 48.333 151.462 48.471 150.547 48.471H140.52C140.52 48.471 132.694 49.485 130.738 58.252V74.082V77.744C130.738 77.744 131.078 93.141 141.273 99.889C141.344 99.936 141.412 99.987 141.484 100.036C142.172 100.501 142.843 100.991 143.497 101.505C146.064 103.522 152.088 107.854 156.316 107.742Z" fill="#FCD462"/>
<path d="M162.854 124.331L159.555 129.068L162.602 148.269L170.237 134.387L162.854 124.331Z" fill="#D5D6DB"/>
<path d="M152.936 149.451L156.276 128.402L152.644 123.186L144.552 134.206L152.936 149.451Z" fill="#D5D6DB"/>
<path d="M152.431 125.71L152.211 126.01L157.643 118.64V118.614L157.642 118.613L152.431 125.71Z" fill="#D5D6DB"/>
<path d="M162.946 146.473L160.357 130.154L163.16 126.128L157.643 118.612V118.614V118.64L152.211 126.01L152.151 126.091L152.15 126.092L154.979 130.154L152.378 146.545L157.643 156.117L162.946 146.475V146.473Z" fill="#E56353"/>
<path d="M157.675 156.176L158.177 155.672L157.659 156.147L157.675 156.176Z" fill="#E56353"/>
<path d="M157.626 156.147L157.108 155.672L157.611 156.176L157.626 156.147Z" fill="#E56353"/>
<path d="M157.619 156.184L157.643 156.208L157.666 156.184L157.643 156.162H157.642L157.619 156.184Z" fill="#E56353"/>
<path d="M157.693 118.572L157.685 118.582L157.693 118.578V118.572Z" fill="#E56353"/>
<path d="M157.643 118.572V118.611L157.662 118.598L157.643 118.572Z" fill="#E56353"/>
<path d="M157.693 118.578L157.685 118.582V118.583L157.662 118.598L157.643 118.611V118.612L163.16 126.128L169.437 134.675L182.496 110.931L173.802 107.814H173.801L157.693 118.578Z" fill="#E1E6E9"/>
<path d="M152.15 126.092L152.151 126.091L152.431 125.71L157.643 118.612V118.611L157.6 118.583L141.484 107.814L132.789 110.931L145.849 134.675L152.15 126.092Z" fill="#E1E6E9"/>
<path d="M157.675 156.176L157.693 156.208H164.49H216.41C220.127 156.208 222.955 152.873 222.348 149.206L219.423 131.543C218.634 126.779 215.334 122.812 210.793 121.169L182.496 110.931" fill="#3A556A"/>
<path d="M157.666 156.184L157.643 156.208H157.693L157.666 156.184Z" fill="#3A556A"/>
<path d="M162.946 146.475L157.643 156.117L157.659 156.147L158.177 155.672L183.8 132.234L180.612 126.147L190.012 126.002L182.496 110.931L169.437 134.675L162.946 146.475Z" fill="#2F4859"/>
<path d="M157.619 156.184L157.642 156.162H157.643L157.626 156.147L157.611 156.176L157.619 156.184Z" fill="#2F4859"/>
<path d="M157.619 156.183L157.611 156.176L132.789 110.931L104.492 121.169C99.951 122.812 96.651 126.778 95.862 131.542L92.937 149.207C92.33 152.873 95.159 156.208 98.876 156.208H150.846H154.859H154.909H157.643H157.644L157.619 156.183Z" fill="#3A556A"/>
<path d="M157.675 156.176L157.659 156.147L157.643 156.117L152.378 146.545L145.849 134.675L132.789 110.931L125.274 126.002L134.673 126.147L131.485 132.234L157.108 155.672L157.626 156.147L157.643 156.162L157.666 156.184L157.693 156.208L157.675 156.176Z" fill="#2F4859"/>
<path d="M399.171 196.25H92.314V205.184H399.171V196.25Z" fill="#D5D6DB"/>
<path d="M399.171 235.331H92.314V244.265H399.171V235.331Z" fill="#D5D6DB"/>
<path d="M399.171 274.381H92.314V283.315H399.171V274.381Z" fill="#D5D6DB"/>
<path d="M399.171 313.446H92.314V322.38H399.171V313.446Z" fill="#D5D6DB"/>
<path d="M399.171 352.497H92.314V361.431H399.171V352.497Z" fill="#D5D6DB"/>
<path d="M399.171 391.578H92.314V400.512H399.171V391.578Z" fill="#D5D6DB"/>
<path d="M342.82 430.592H92.314V439.526H342.82V430.592Z" fill="#D5D6DB"/>
</g>
<defs>
<clipPath id="clip0">
<rect width="491.52" height="491.52" fill="white"/>
</clipPath>
</defs>
</svg>
