<svg width="1100" height="377" viewBox="0 0 481 77" fill="none" xmlns="http://www.w3.org/2000/svg">
<path d="M27.1582 37.9C31.5582 37.9 34.7249 36.85 36.6582 34.75C38.5915 32.65 39.5582 29.7167 39.5582 25.95C39.5582 24.2833 39.3082 22.7667 38.8082 21.4C38.3082 20.0333 37.5415 18.8667 36.5082 17.9C35.5082 16.9 34.2249 16.1333 32.6582 15.6C31.1249 15.0667 29.2915 14.8 27.1582 14.8H18.3582V37.9H27.1582ZM27.1582 2.15C32.2915 2.15 36.6915 2.76666 40.3582 4C44.0582 5.2 47.0915 6.86666 49.4582 9C51.8582 11.1333 53.6249 13.65 54.7582 16.55C55.8915 19.45 56.4582 22.5833 56.4582 25.95C56.4582 29.5833 55.8749 32.9167 54.7082 35.95C53.5415 38.9833 51.7582 41.5833 49.3582 43.75C46.9582 45.9167 43.9082 47.6167 40.2082 48.85C36.5415 50.05 32.1915 50.65 27.1582 50.65H18.3582V75H1.4582V2.15H27.1582ZM88.7324 36.4C91.0324 36.4 92.9824 36.1167 94.5824 35.55C96.2158 34.95 97.5491 34.1333 98.5824 33.1C99.6158 32.0667 100.366 30.8667 100.832 29.5C101.299 28.1 101.532 26.6 101.532 25C101.532 21.8 100.482 19.3 98.3824 17.5C96.3158 15.7 93.0991 14.8 88.7324 14.8H81.9324V36.4H88.7324ZM124.632 75H109.332C106.499 75 104.466 73.9333 103.232 71.8L91.1324 50.65C90.5658 49.75 89.9324 49.1 89.2324 48.7C88.5324 48.2667 87.5324 48.05 86.2324 48.05H81.9324V75H65.0324V2.15H88.7324C93.9991 2.15 98.4824 2.7 102.182 3.8C105.916 4.86666 108.949 6.36666 111.282 8.29999C113.649 10.2333 115.366 12.5167 116.432 15.15C117.499 17.7833 118.032 20.65 118.032 23.75C118.032 26.1167 117.716 28.35 117.082 30.45C116.449 32.55 115.516 34.5 114.282 36.3C113.049 38.0667 111.516 39.65 109.682 41.05C107.882 42.45 105.799 43.6 103.432 44.5C104.532 45.0667 105.566 45.7833 106.532 46.65C107.499 47.4833 108.366 48.4833 109.132 49.65L124.632 75ZM200.986 38.55C200.986 43.8167 200.069 48.7167 198.236 53.25C196.436 57.7833 193.886 61.7333 190.586 65.1C187.286 68.4333 183.302 71.05 178.636 72.95C174.002 74.85 168.852 75.8 163.186 75.8C157.519 75.8 152.352 74.85 147.686 72.95C143.019 71.05 139.019 68.4333 135.686 65.1C132.386 61.7333 129.819 57.7833 127.986 53.25C126.186 48.7167 125.286 43.8167 125.286 38.55C125.286 33.2833 126.186 28.3833 127.986 23.85C129.819 19.3167 132.386 15.3833 135.686 12.05C139.019 8.71666 143.019 6.1 147.686 4.2C152.352 2.3 157.519 1.35 163.186 1.35C168.852 1.35 174.002 2.31666 178.636 4.25C183.302 6.15 187.286 8.76667 190.586 12.1C193.886 15.4333 196.436 19.3667 198.236 23.9C200.069 28.4333 200.986 33.3167 200.986 38.55ZM183.686 38.55C183.686 34.95 183.219 31.7167 182.286 28.85C181.352 25.95 180.002 23.5 178.236 21.5C176.502 19.5 174.369 17.9667 171.836 16.9C169.302 15.8333 166.419 15.3 163.186 15.3C159.919 15.3 157.002 15.8333 154.436 16.9C151.902 17.9667 149.752 19.5 147.986 21.5C146.252 23.5 144.919 25.95 143.986 28.85C143.052 31.7167 142.586 34.95 142.586 38.55C142.586 42.1833 143.052 45.45 143.986 48.35C144.919 51.2167 146.252 53.65 147.986 55.65C149.752 57.65 151.902 59.1833 154.436 60.25C157.002 61.2833 159.919 61.8 163.186 61.8C166.419 61.8 169.302 61.2833 171.836 60.25C174.369 59.1833 176.502 57.65 178.236 55.65C180.002 53.65 181.352 51.2167 182.286 48.35C183.219 45.45 183.686 42.1833 183.686 38.55ZM238.542 48.6C238.542 52.6667 238.025 56.3667 236.992 59.7C235.992 63.0333 234.458 65.9 232.392 68.3C230.358 70.6667 227.792 72.5167 224.692 73.85C221.592 75.15 217.942 75.8 213.742 75.8C211.842 75.8 209.958 75.7 208.092 75.5C206.258 75.3 204.342 74.9667 202.342 74.5L203.242 64.65C203.342 63.7833 203.692 63.0833 204.292 62.55C204.892 62.0167 205.742 61.75 206.842 61.75C207.408 61.75 208.108 61.85 208.942 62.05C209.775 62.2167 210.775 62.3 211.942 62.3C213.575 62.3 214.992 62.0833 216.192 61.65C217.425 61.1833 218.442 60.4333 219.242 59.4C220.042 58.3333 220.642 56.95 221.042 55.25C221.442 53.55 221.642 51.45 221.642 48.95V2.15H238.542V48.6ZM268.946 15.15V32.15H291.846V44.65H268.946V62H298.846V75H251.946V2.15H298.846V15.15H268.946ZM356.906 56.15C357.306 56.15 357.706 56.2333 358.106 56.4C358.506 56.5333 358.889 56.7833 359.256 57.15L365.956 64.2C363.023 68.0333 359.339 70.9333 354.906 72.9C350.506 74.8333 345.289 75.8 339.256 75.8C333.723 75.8 328.756 74.8667 324.356 73C319.989 71.1 316.273 68.5 313.206 65.2C310.173 61.8667 307.839 57.9333 306.206 53.4C304.573 48.8333 303.756 43.8833 303.756 38.55C303.756 33.1167 304.639 28.1333 306.406 23.6C308.173 19.0333 310.656 15.1 313.856 11.8C317.056 8.5 320.889 5.93333 325.356 4.09999C329.823 2.26666 334.739 1.35 340.106 1.35C342.839 1.35 345.406 1.6 347.806 2.1C350.239 2.56666 352.506 3.23333 354.606 4.09999C356.706 4.93333 358.639 5.95 360.406 7.14999C362.173 8.34999 363.739 9.65 365.106 11.05L359.406 18.7C359.039 19.1667 358.606 19.6 358.106 20C357.606 20.3667 356.906 20.55 356.006 20.55C355.406 20.55 354.839 20.4167 354.306 20.15C353.773 19.8833 353.206 19.5667 352.606 19.2C352.006 18.8 351.339 18.3833 350.606 17.95C349.906 17.4833 349.056 17.0667 348.056 16.7C347.089 16.3 345.939 15.9667 344.606 15.7C343.306 15.4333 341.773 15.3 340.006 15.3C337.206 15.3 334.639 15.8167 332.306 16.85C330.006 17.8833 328.006 19.4 326.306 21.4C324.639 23.3667 323.339 25.8 322.406 28.7C321.506 31.5667 321.056 34.85 321.056 38.55C321.056 42.2833 321.556 45.6 322.556 48.5C323.589 51.4 324.973 53.85 326.706 55.85C328.473 57.8167 330.523 59.3167 332.856 60.35C335.189 61.3833 337.689 61.9 340.356 61.9C341.889 61.9 343.289 61.8333 344.556 61.7C345.823 61.5333 347.006 61.2833 348.106 60.95C349.206 60.5833 350.239 60.1167 351.206 59.55C352.173 58.95 353.156 58.2 354.156 57.3C354.556 56.9667 354.989 56.7 355.456 56.5C355.923 56.2667 356.406 56.15 356.906 56.15ZM425.683 15.55H405.183V75H388.283V15.55H367.783V2.15H425.683V15.55ZM474.521 16.95C474.021 17.75 473.487 18.35 472.921 18.75C472.387 19.15 471.687 19.35 470.821 19.35C470.054 19.35 469.221 19.1167 468.321 18.65C467.454 18.15 466.454 17.6 465.321 17C464.221 16.4 462.954 15.8667 461.521 15.4C460.087 14.9 458.454 14.65 456.621 14.65C453.454 14.65 451.087 15.3333 449.521 16.7C447.987 18.0333 447.221 19.85 447.221 22.15C447.221 23.6167 447.687 24.8333 448.621 25.8C449.554 26.7667 450.771 27.6 452.271 28.3C453.804 29 455.537 29.65 457.471 30.25C459.437 30.8167 461.437 31.4667 463.471 32.2C465.504 32.9 467.487 33.7333 469.421 34.7C471.387 35.6667 473.121 36.9 474.621 38.4C476.154 39.9 477.387 41.7333 478.321 43.9C479.254 46.0333 479.721 48.6167 479.721 51.65C479.721 55.0167 479.137 58.1667 477.971 61.1C476.804 64.0333 475.104 66.6 472.871 68.8C470.671 70.9667 467.937 72.6833 464.671 73.95C461.437 75.1833 457.754 75.8 453.621 75.8C451.354 75.8 449.037 75.5667 446.671 75.1C444.337 74.6333 442.071 73.9833 439.871 73.15C437.671 72.2833 435.604 71.2667 433.671 70.1C431.737 68.9333 430.054 67.6333 428.621 66.2L433.621 58.3C434.021 57.7333 434.537 57.2667 435.171 56.9C435.837 56.5 436.554 56.3 437.321 56.3C438.321 56.3 439.321 56.6167 440.321 57.25C441.354 57.8833 442.504 58.5833 443.771 59.35C445.071 60.1167 446.554 60.8167 448.221 61.45C449.887 62.0833 451.854 62.4 454.121 62.4C457.187 62.4 459.571 61.7333 461.271 60.4C462.971 59.0333 463.821 56.8833 463.821 53.95C463.821 52.25 463.354 50.8667 462.421 49.8C461.487 48.7333 460.254 47.85 458.721 47.15C457.221 46.45 455.504 45.8333 453.571 45.3C451.637 44.7667 449.654 44.1833 447.621 43.55C445.587 42.8833 443.604 42.0833 441.671 41.15C439.737 40.1833 438.004 38.9333 436.471 37.4C434.971 35.8333 433.754 33.9 432.821 31.6C431.887 29.2667 431.421 26.4 431.421 23C431.421 20.2667 431.971 17.6 433.071 15C434.171 12.4 435.787 10.0833 437.921 8.04999C440.054 6.01666 442.671 4.4 445.771 3.19999C448.871 1.96666 452.421 1.35 456.421 1.35C458.654 1.35 460.821 1.53333 462.921 1.9C465.054 2.23333 467.071 2.75 468.971 3.44999C470.871 4.11666 472.637 4.93333 474.271 5.9C475.937 6.83333 477.421 7.9 478.721 9.1L474.521 16.95Z" fill="" fill-opacity="0.05"/>
<path d="M36.6582 34.75L35.9225 34.0727L35.9225 34.0727L36.6582 34.75ZM38.8082 21.4L39.7473 21.0564L39.7473 21.0564L38.8082 21.4ZM36.5082 17.9L35.8011 18.6071L35.8129 18.6189L35.825 18.6303L36.5082 17.9ZM32.6582 15.6L32.3297 16.5445L32.3359 16.5466L32.6582 15.6ZM18.3582 14.8V13.8H17.3582V14.8H18.3582ZM18.3582 37.9H17.3582V38.9H18.3582V37.9ZM40.3582 4L40.0394 4.94787L40.0497 4.95122L40.3582 4ZM49.4582 9L48.7886 9.74279L48.7938 9.74741L49.4582 9ZM54.7582 16.55L53.8268 16.914L53.8268 16.914L54.7582 16.55ZM54.7082 35.95L55.6416 36.309L55.6416 36.309L54.7082 35.95ZM49.3582 43.75L50.0283 44.4923L50.0283 44.4923L49.3582 43.75ZM40.2082 48.85L40.5193 49.8004L40.5244 49.7987L40.2082 48.85ZM18.3582 50.65V49.65H17.3582V50.65H18.3582ZM18.3582 75V76H19.3582V75H18.3582ZM1.4582 75H0.458203V76H1.4582V75ZM1.4582 2.15V1.15H0.458203V2.15H1.4582ZM27.1582 38.9C31.6879 38.9 35.1892 37.822 37.3939 35.4273L35.9225 34.0727C34.2605 35.8779 31.4285 36.9 27.1582 36.9V38.9ZM37.3939 35.4273C39.5457 33.0901 40.5582 29.8855 40.5582 25.95H38.5582C38.5582 29.5479 37.6374 32.2099 35.9225 34.0727L37.3939 35.4273ZM40.5582 25.95C40.5582 24.1829 40.293 22.5479 39.7473 21.0564L37.8691 21.7436C38.3234 22.9854 38.5582 24.3837 38.5582 25.95H40.5582ZM39.7473 21.0564C39.1951 19.5469 38.3425 18.2466 37.1914 17.1697L35.825 18.6303C36.7406 19.4868 37.4213 20.5198 37.8691 21.7436L39.7473 21.0564ZM37.2153 17.1929C36.0901 16.0677 34.6675 15.2276 32.9805 14.6533L32.3359 16.5466C33.7823 17.039 34.9263 17.7323 35.8011 18.6071L37.2153 17.1929ZM32.9867 14.6555C31.3205 14.0759 29.3703 13.8 27.1582 13.8V15.8C29.2128 15.8 30.9293 16.0574 32.3297 16.5445L32.9867 14.6555ZM27.1582 13.8H18.3582V15.8H27.1582V13.8ZM17.3582 14.8V37.9H19.3582V14.8H17.3582ZM18.3582 38.9H27.1582V36.9H18.3582V38.9ZM27.1582 3.15C32.2164 3.15 36.5028 3.75825 40.0394 4.94781L40.677 3.05218C36.8802 1.77508 32.3667 1.15 27.1582 1.15V3.15ZM40.0497 4.95122C43.6449 6.11722 46.5467 7.72189 48.7887 9.74277L50.1277 8.25722C47.6363 6.01144 44.4715 4.28277 40.6667 3.04877L40.0497 4.95122ZM48.7938 9.74741C51.0796 11.7792 52.7528 14.1658 53.8268 16.914L55.6896 16.186C54.497 13.1342 52.6368 10.4874 50.1226 8.25259L48.7938 9.74741ZM53.8268 16.914C54.9112 19.6889 55.4582 22.6977 55.4582 25.95H57.4582C57.4582 22.469 56.8718 19.2111 55.6896 16.186L53.8268 16.914ZM55.4582 25.95C55.4582 29.475 54.8926 32.685 53.7749 35.591L55.6416 36.309C56.8572 33.1484 57.4582 29.6917 57.4582 25.95H55.4582ZM53.7749 35.591C52.6643 38.4785 50.9708 40.9469 48.6881 43.0077L50.0283 44.4923C52.5456 42.2197 54.4188 39.4882 55.6416 36.309L53.7749 35.591ZM48.6881 43.0077C46.4094 45.0649 43.4875 46.7028 39.892 47.9013L40.5244 49.7987C44.3289 48.5305 47.507 46.7684 50.0283 44.4923L48.6881 43.0077ZM39.8972 47.8996C36.3562 49.0585 32.1162 49.65 27.1582 49.65V51.65C32.2669 51.65 36.7269 51.0415 40.5192 49.8004L39.8972 47.8996ZM27.1582 49.65H18.3582V51.65H27.1582V49.65ZM17.3582 50.65V75H19.3582V50.65H17.3582ZM18.3582 74H1.4582V76H18.3582V74ZM2.4582 75V2.15H0.458203V75H2.4582ZM1.4582 3.15H27.1582V1.15H1.4582V3.15ZM94.5824 35.55L94.9163 36.4927L94.9272 36.4887L94.5824 35.55ZM98.5824 33.1L97.8753 32.3929L97.8753 32.3929L98.5824 33.1ZM100.832 29.5L101.779 29.8232L101.781 29.8162L100.832 29.5ZM98.3824 17.5L97.7256 18.2541L97.7316 18.2593L98.3824 17.5ZM81.9324 14.8V13.8H80.9324V14.8H81.9324ZM81.9324 36.4H80.9324V37.4H81.9324V36.4ZM124.632 75V76H126.416L125.486 74.4783L124.632 75ZM103.232 71.8L102.364 72.2966L102.367 72.3005L103.232 71.8ZM91.1324 50.65L92.0004 50.1534L91.9899 50.1351L91.9787 50.1172L91.1324 50.65ZM89.2324 48.7L88.7061 49.5503L88.721 49.5595L88.7363 49.5682L89.2324 48.7ZM81.9324 48.05V47.05H80.9324V48.05H81.9324ZM81.9324 75V76H82.9324V75H81.9324ZM65.0324 75H64.0324V76H65.0324V75ZM65.0324 2.15V1.15H64.0324V2.15H65.0324ZM102.182 3.8L101.897 4.75859L101.908 4.76152L102.182 3.8ZM111.282 8.29999L110.644 9.07004L110.65 9.07444L111.282 8.29999ZM116.432 15.15L115.506 15.5254L115.506 15.5254L116.432 15.15ZM117.082 30.45L116.125 30.1613L116.125 30.1613L117.082 30.45ZM114.282 36.3L115.102 36.8724L115.107 36.8652L114.282 36.3ZM109.682 41.05L109.075 40.2552L109.068 40.2606L109.682 41.05ZM103.432 44.5L103.077 43.5653L100.981 44.3622L102.974 45.389L103.432 44.5ZM106.532 46.65L105.865 47.3946L105.872 47.4011L105.879 47.4074L106.532 46.65ZM109.132 49.65L109.986 49.1283L109.977 49.1144L109.968 49.1008L109.132 49.65ZM88.7324 37.4C91.1085 37.4 93.1785 37.1081 94.9163 36.4926L94.2486 34.6074C92.7863 35.1253 90.9564 35.4 88.7324 35.4V37.4ZM94.9272 36.4887C96.6711 35.8481 98.136 34.9607 99.2895 33.8071L97.8753 32.3929C96.9622 33.306 95.7604 34.0519 94.2376 34.6113L94.9272 36.4887ZM99.2895 33.8071C100.43 32.6671 101.262 31.3362 101.779 29.8231L99.8861 29.1769C99.4694 30.3972 98.802 31.4663 97.8753 32.3929L99.2895 33.8071ZM101.781 29.8162C102.285 28.306 102.532 26.6984 102.532 25H100.532C100.532 26.5016 100.314 27.894 99.8837 29.1838L101.781 29.8162ZM102.532 25C102.532 21.559 101.391 18.7615 99.0332 16.7407L97.7316 18.2593C99.5741 19.8385 100.532 22.041 100.532 25H102.532ZM99.0392 16.7459C96.7093 14.7166 93.2051 13.8 88.7324 13.8V15.8C92.993 15.8 95.9222 16.6833 97.7256 18.2541L99.0392 16.7459ZM88.7324 13.8H81.9324V15.8H88.7324V13.8ZM80.9324 14.8V36.4H82.9324V14.8H80.9324ZM81.9324 37.4H88.7324V35.4H81.9324V37.4ZM124.632 74H109.332V76H124.632V74ZM109.332 74C106.792 74 105.123 73.072 104.098 71.2995L102.367 72.3005C103.809 74.7946 106.206 76 109.332 76V74ZM104.1 71.3034L92.0004 50.1534L90.2644 51.1466L102.364 72.2966L104.1 71.3034ZM91.9787 50.1172C91.3515 49.1211 90.6092 48.335 89.7286 47.8318L88.7363 49.5682C89.2556 49.865 89.78 50.3789 90.2862 51.1828L91.9787 50.1172ZM89.7588 47.8497C88.834 47.2772 87.6201 47.05 86.2324 47.05V49.05C87.4447 49.05 88.2309 49.2561 88.7061 49.5503L89.7588 47.8497ZM86.2324 47.05H81.9324V49.05H86.2324V47.05ZM80.9324 48.05V75H82.9324V48.05H80.9324ZM81.9324 74H65.0324V76H81.9324V74ZM66.0324 75V2.15H64.0324V75H66.0324ZM65.0324 3.15H88.7324V1.15H65.0324V3.15ZM88.7324 3.15C93.9351 3.15 98.3167 3.69398 101.897 4.75854L102.467 2.84146C98.6482 1.70602 94.063 1.15 88.7324 1.15V3.15ZM101.908 4.76152C105.544 5.80045 108.443 7.24606 110.644 9.07002L111.92 7.52997C109.455 5.48726 106.288 3.93287 102.457 2.83847L101.908 4.76152ZM110.65 9.07444C112.897 10.9098 114.507 13.0594 115.506 15.5254L117.359 14.7746C116.225 11.974 114.402 9.55683 111.915 7.52555L110.65 9.07444ZM115.506 15.5254C116.52 18.029 117.032 20.7669 117.032 23.75H119.032C119.032 20.5331 118.478 17.5376 117.359 14.7746L115.506 15.5254ZM117.032 23.75C117.032 26.0265 116.728 28.162 116.125 30.1613L118.04 30.7387C118.704 28.538 119.032 26.2068 119.032 23.75H117.032ZM116.125 30.1613C115.521 32.1634 114.632 34.02 113.457 35.7348L115.107 36.8652C116.399 34.98 117.377 32.9366 118.04 30.7387L116.125 30.1613ZM113.462 35.7276C112.292 37.4038 110.833 38.9135 109.076 40.2552L110.289 41.8448C112.199 40.3865 113.806 38.7295 115.102 36.8724L113.462 35.7276ZM109.068 40.2606C107.355 41.5933 105.361 42.6968 103.077 43.5653L103.788 45.4347C106.237 44.5032 108.41 43.3067 110.296 41.8394L109.068 40.2606ZM102.974 45.389C103.995 45.9148 104.959 46.582 105.865 47.3946L107.2 45.9054C106.173 44.9847 105.07 44.2186 103.89 43.611L102.974 45.389ZM105.879 47.4074C106.77 48.1748 107.576 49.1029 108.297 50.1992L109.968 49.1008C109.155 47.8638 108.229 46.7919 107.185 45.8926L105.879 47.4074ZM108.279 50.1717L123.779 75.5217L125.486 74.4783L109.986 49.1283L108.279 50.1717ZM198.236 53.25L197.308 52.8751L197.306 52.881L198.236 53.25ZM190.586 65.1L191.296 65.8036L191.3 65.8L190.586 65.1ZM178.636 72.95L178.258 72.0238L178.256 72.0248L178.636 72.95ZM147.686 72.95L147.308 73.8762L147.308 73.8762L147.686 72.95ZM135.686 65.1L134.971 65.8L134.978 65.8071L135.686 65.1ZM127.986 53.25L127.056 53.619L127.058 53.6249L127.986 53.25ZM127.986 23.85L127.058 23.4751L127.056 23.481L127.986 23.85ZM135.686 12.05L134.978 11.3429L134.975 11.3465L135.686 12.05ZM147.686 4.2L148.063 5.12618L148.063 5.12618L147.686 4.2ZM178.636 4.25L178.25 5.17291L178.258 5.17617L178.636 4.25ZM190.586 12.1L189.875 12.8035L189.875 12.8035L190.586 12.1ZM198.236 23.9L197.306 24.269L197.308 24.2749L198.236 23.9ZM182.286 28.85L181.334 29.1564L181.335 29.1596L182.286 28.85ZM178.236 21.5L177.48 22.155L177.486 22.162L178.236 21.5ZM171.836 16.9L172.224 15.9784L172.224 15.9784L171.836 16.9ZM154.436 16.9L154.052 15.9766L154.047 15.9784L154.436 16.9ZM147.986 21.5L147.236 20.8379L147.23 20.8451L147.986 21.5ZM143.986 28.85L144.936 29.1596L144.937 29.1564L143.986 28.85ZM143.986 48.35L143.034 48.6564L143.035 48.6596L143.986 48.35ZM147.986 55.65L147.23 56.305L147.236 56.312L147.986 55.65ZM154.436 60.25L154.047 61.1716L154.055 61.1747L154.062 61.1776L154.436 60.25ZM171.836 60.25L172.213 61.176L172.224 61.1716L171.836 60.25ZM178.236 55.65L177.486 54.9879L177.48 54.9951L178.236 55.65ZM182.286 48.35L183.236 48.6596L183.237 48.6564L182.286 48.35ZM199.986 38.55C199.986 43.6981 199.09 48.4698 197.308 52.8751L199.163 53.6249C201.048 48.9635 201.986 43.9352 201.986 38.55H199.986ZM197.306 52.881C195.553 57.2951 193.075 61.1316 189.871 64.4L191.3 65.8C194.696 62.3351 197.318 58.2715 199.165 53.619L197.306 52.881ZM189.875 64.3965C186.677 67.6269 182.809 70.1709 178.258 72.0238L179.013 73.8762C183.795 71.9291 187.894 69.2398 191.296 65.8035L189.875 64.3965ZM178.256 72.0248C173.758 73.8693 168.739 74.8 163.186 74.8V76.8C168.965 76.8 174.246 75.8307 179.015 73.8752L178.256 72.0248ZM163.186 74.8C157.632 74.8 152.596 73.8694 148.063 72.0238L147.308 73.8762C152.109 75.8306 157.406 76.8 163.186 76.8V74.8ZM148.063 72.0238C143.511 70.1706 139.625 67.6256 136.393 64.3929L134.978 65.8071C138.412 69.2411 142.527 71.9294 147.308 73.8762L148.063 72.0238ZM136.4 64.4C133.195 61.1302 130.699 57.2918 128.913 52.8751L127.058 53.6249C128.939 58.2749 131.576 62.3365 134.971 65.8L136.4 64.4ZM128.915 52.881C127.165 48.4742 126.286 43.7004 126.286 38.55H124.286C124.286 43.9329 125.206 48.9592 127.056 53.619L128.915 52.881ZM126.286 38.55C126.286 33.3995 127.165 28.6258 128.915 24.219L127.056 23.481C125.206 28.1408 124.286 33.1671 124.286 38.55H126.286ZM128.913 24.2249C130.698 19.8091 133.193 15.9887 136.396 12.7535L134.975 11.3465C131.578 14.7779 128.939 18.8243 127.058 23.4751L128.913 24.2249ZM136.393 12.7571C139.625 9.52443 143.511 6.97939 148.063 5.12618L147.308 3.27382C142.527 5.2206 138.412 7.9089 134.978 11.3429L136.393 12.7571ZM148.063 5.12618C152.596 3.28064 157.632 2.35 163.186 2.35V0.349998C157.406 0.349998 152.109 1.31936 147.308 3.27382L148.063 5.12618ZM163.186 2.35C168.737 2.35 173.754 3.2966 178.25 5.17288L179.021 3.32712C174.251 1.33673 168.967 0.349998 163.186 0.349998V2.35ZM178.258 5.17617C182.809 7.02907 186.677 9.57314 189.875 12.8035L191.296 11.3965C187.894 7.96019 183.795 5.27092 179.013 3.32382L178.258 5.17617ZM189.875 12.8035C193.076 16.0374 195.554 19.8557 197.306 24.269L199.165 23.531C197.317 18.8776 194.695 14.8292 191.296 11.3965L189.875 12.8035ZM197.308 24.2749C199.09 28.681 199.986 33.436 199.986 38.55H201.986C201.986 33.1973 201.047 28.1857 199.163 23.5251L197.308 24.2749ZM184.686 38.55C184.686 34.8647 184.208 31.5243 183.236 28.5404L181.335 29.1596C182.23 31.9091 182.686 35.0353 182.686 38.55H184.686ZM183.237 28.5436C182.268 25.5309 180.855 22.9549 178.985 20.838L177.486 22.162C179.149 24.0451 180.437 26.3691 181.334 29.1564L183.237 28.5436ZM178.991 20.8451C177.154 18.7246 174.893 17.1022 172.224 15.9784L171.447 17.8216C173.845 18.8311 175.851 20.2754 177.48 22.1549L178.991 20.8451ZM172.224 15.9784C169.548 14.8517 166.529 14.3 163.186 14.3V16.3C166.309 16.3 169.057 16.815 171.447 17.8216L172.224 15.9784ZM163.186 14.3C159.81 14.3 156.759 14.8513 154.052 15.9766L154.819 17.8234C157.245 16.8154 160.028 16.3 163.186 16.3V14.3ZM154.047 15.9784C151.38 17.1015 149.105 18.7219 147.236 20.838L148.735 22.162C150.399 20.2781 152.424 18.8318 154.824 17.8216L154.047 15.9784ZM147.23 20.8451C145.396 22.9611 144.002 25.5346 143.034 28.5436L144.937 29.1564C145.836 26.3654 147.108 24.0389 148.741 22.1549L147.23 20.8451ZM143.035 28.5404C142.063 31.5243 141.586 34.8647 141.586 38.55H143.586C143.586 35.0353 144.041 31.9091 144.936 29.1596L143.035 28.5404ZM141.586 38.55C141.586 42.2679 142.063 45.6404 143.034 48.6564L144.937 48.0436C144.041 45.2596 143.586 42.0988 143.586 38.55H141.586ZM143.035 48.6596C144.004 51.6357 145.398 54.1909 147.23 56.3049L148.741 54.9951C147.107 53.1091 145.834 50.7977 144.936 48.0404L143.035 48.6596ZM147.236 56.312C149.105 58.4281 151.38 60.0485 154.047 61.1716L154.824 59.3284C152.424 58.3182 150.399 56.8719 148.735 54.988L147.236 56.312ZM154.062 61.1776C156.767 62.2666 159.814 62.8 163.186 62.8V60.8C160.024 60.8 157.238 60.3001 154.809 59.3224L154.062 61.1776ZM163.186 62.8C166.525 62.8 169.54 62.2662 172.213 61.1759L171.458 59.3241C169.064 60.3005 166.313 60.8 163.186 60.8V62.8ZM172.224 61.1716C174.893 60.0478 177.154 58.4254 178.991 56.3049L177.48 54.9951C175.851 56.8746 173.845 58.3189 171.447 59.3284L172.224 61.1716ZM178.985 56.312C180.853 54.1971 182.266 51.6394 183.236 48.6596L181.335 48.0404C180.438 50.7939 179.151 53.1029 177.486 54.988L178.985 56.312ZM183.237 48.6564C184.208 45.6404 184.686 42.2679 184.686 38.55H182.686C182.686 42.0988 182.23 45.2596 181.334 48.0436L183.237 48.6564ZM236.992 59.7L236.037 59.4039L236.034 59.4127L236.992 59.7ZM232.392 68.3L231.634 67.6475L231.633 67.6483L232.392 68.3ZM224.692 73.85L225.079 74.7722L225.087 74.7686L224.692 73.85ZM208.092 75.5L207.983 76.4941L207.985 76.4943L208.092 75.5ZM202.342 74.5L201.346 74.409L201.267 75.276L202.115 75.4738L202.342 74.5ZM203.242 64.65L202.248 64.5354L202.247 64.5472L202.246 64.559L203.242 64.65ZM208.942 62.05L208.708 63.0224L208.727 63.0268L208.746 63.0306L208.942 62.05ZM216.192 61.65L216.531 62.5906L216.539 62.588L216.546 62.5853L216.192 61.65ZM219.242 59.4L220.033 60.0122L220.037 60.0061L220.042 60L219.242 59.4ZM221.642 2.15V1.15H220.642V2.15H221.642ZM238.542 2.15H239.542V1.15H238.542V2.15ZM237.542 48.6C237.542 52.5825 237.036 56.1808 236.037 59.4039L237.947 59.9961C239.014 56.5526 239.542 52.7509 239.542 48.6H237.542ZM236.034 59.4127C235.07 62.625 233.6 65.3639 231.634 67.6475L233.15 68.9525C235.317 66.4361 236.913 63.4417 237.95 59.9873L236.034 59.4127ZM231.633 67.6483C229.707 69.8903 227.268 71.6532 224.297 72.9314L225.087 74.7686C228.315 73.3801 231.01 71.4431 233.15 68.9517L231.633 67.6483ZM224.305 72.9278C221.354 74.1654 217.841 74.8 213.742 74.8V76.8C218.043 76.8 221.83 76.1346 225.079 74.7722L224.305 72.9278ZM213.742 74.8C211.877 74.8 210.029 74.7019 208.198 74.5057L207.985 76.4943C209.888 76.6981 211.807 76.8 213.742 76.8V74.8ZM208.2 74.5059C206.411 74.3107 204.534 73.9847 202.569 73.5262L202.115 75.4738C204.149 75.9486 206.106 76.2893 207.983 76.4941L208.2 74.5059ZM203.338 74.591L204.238 64.741L202.246 64.559L201.346 74.409L203.338 74.591ZM204.235 64.7646C204.31 64.1192 204.556 63.6527 204.956 63.2974L203.627 61.8026C202.827 62.514 202.374 63.4475 202.248 64.5354L204.235 64.7646ZM204.956 63.2974C205.315 62.9786 205.896 62.75 206.842 62.75V60.75C205.588 60.75 204.469 61.0547 203.627 61.8026L204.956 63.2974ZM206.842 62.75C207.301 62.75 207.917 62.8324 208.708 63.0224L209.175 61.0776C208.3 60.8676 207.516 60.75 206.842 60.75V62.75ZM208.746 63.0306C209.662 63.2139 210.732 63.3 211.942 63.3V61.3C210.819 61.3 209.888 61.2194 209.138 61.0694L208.746 63.0306ZM211.942 63.3C213.66 63.3 215.197 63.0725 216.531 62.5906L215.852 60.7094C214.787 61.0942 213.49 61.3 211.942 61.3V63.3ZM216.546 62.5853C217.95 62.0539 219.118 61.1929 220.033 60.0122L218.451 58.7878C217.765 59.6738 216.9 60.3127 215.838 60.7147L216.546 62.5853ZM220.042 60C220.946 58.7945 221.593 57.2736 222.015 55.479L220.068 55.021C219.691 56.6264 219.138 57.8722 218.442 58.8L220.042 60ZM222.015 55.479C222.439 53.6795 222.642 51.497 222.642 48.95H220.642C220.642 51.403 220.445 53.4205 220.068 55.021L222.015 55.479ZM222.642 48.95V2.15H220.642V48.95H222.642ZM221.642 3.15H238.542V1.15H221.642V3.15ZM237.542 2.15V48.6H239.542V2.15H237.542ZM268.946 15.15V14.15H267.946V15.15H268.946ZM268.946 32.15H267.946V33.15H268.946V32.15ZM291.846 32.15H292.846V31.15H291.846V32.15ZM291.846 44.65V45.65H292.846V44.65H291.846ZM268.946 44.65V43.65H267.946V44.65H268.946ZM268.946 62H267.946V63H268.946V62ZM298.846 62H299.846V61H298.846V62ZM298.846 75V76H299.846V75H298.846ZM251.946 75H250.946V76H251.946V75ZM251.946 2.15V1.15H250.946V2.15H251.946ZM298.846 2.15H299.846V1.15H298.846V2.15ZM298.846 15.15V16.15H299.846V15.15H298.846ZM267.946 15.15V32.15H269.946V15.15H267.946ZM268.946 33.15H291.846V31.15H268.946V33.15ZM290.846 32.15V44.65H292.846V32.15H290.846ZM291.846 43.65H268.946V45.65H291.846V43.65ZM267.946 44.65V62H269.946V44.65H267.946ZM268.946 63H298.846V61H268.946V63ZM297.846 62V75H299.846V62H297.846ZM298.846 74H251.946V76H298.846V74ZM252.946 75V2.15H250.946V75H252.946ZM251.946 3.15H298.846V1.15H251.946V3.15ZM297.846 2.15V15.15H299.846V2.15H297.846ZM298.846 14.15H268.946V16.15H298.846V14.15ZM358.106 56.4L357.721 57.3231L357.755 57.3371L357.79 57.3487L358.106 56.4ZM359.256 57.15L359.981 56.4611L359.972 56.4519L359.963 56.4429L359.256 57.15ZM365.956 64.2L366.75 64.8077L367.269 64.1298L366.681 63.5111L365.956 64.2ZM354.906 72.9L355.308 73.8155L355.311 73.8141L354.906 72.9ZM324.356 73L323.957 73.917L323.965 73.9206L324.356 73ZM313.206 65.2L312.466 65.8731L312.473 65.8807L313.206 65.2ZM306.206 53.4L305.264 53.7368L305.265 53.739L306.206 53.4ZM306.406 23.6L307.338 23.9631L307.339 23.9608L306.406 23.6ZM313.856 11.8L314.574 12.4961L314.574 12.4961L313.856 11.8ZM325.356 4.09999L324.976 3.17489L324.976 3.17489L325.356 4.09999ZM347.806 2.1L347.602 3.07898L347.61 3.0806L347.618 3.0821L347.806 2.1ZM354.606 4.09999L354.224 5.02445L354.237 5.02949L354.606 4.09999ZM360.406 7.14999L360.968 6.32278L360.968 6.32278L360.406 7.14999ZM365.106 11.05L365.908 11.6475L366.418 10.9626L365.821 10.3515L365.106 11.05ZM359.406 18.7L360.192 19.3178L360.2 19.3078L360.208 19.2975L359.406 18.7ZM358.106 20L358.697 20.8064L358.714 20.794L358.731 20.7809L358.106 20ZM354.306 20.15L353.859 21.0444L353.859 21.0444L354.306 20.15ZM352.606 19.2L352.051 20.032L352.068 20.043L352.084 20.0533L352.606 19.2ZM350.606 17.95L350.051 18.782L350.074 18.7971L350.097 18.8109L350.606 17.95ZM348.056 16.7L347.674 17.624L347.692 17.6318L347.712 17.6389L348.056 16.7ZM344.606 15.7L344.405 16.6796L344.41 16.6806L344.606 15.7ZM332.306 16.85L331.901 15.9356L331.896 15.9378L332.306 16.85ZM326.306 21.4L325.544 20.7523L325.543 20.7535L326.306 21.4ZM322.406 28.7L321.454 28.3936L321.452 28.4005L322.406 28.7ZM322.556 48.5L321.61 48.826L321.614 48.8356L322.556 48.5ZM326.706 55.85L325.95 56.5049L325.956 56.5117L325.962 56.5183L326.706 55.85ZM344.556 61.7L344.661 62.6945L344.673 62.6931L344.686 62.6915L344.556 61.7ZM348.106 60.95L348.396 61.907L348.409 61.903L348.422 61.8987L348.106 60.95ZM351.206 59.55L351.712 60.4127L351.722 60.4063L351.733 60.3996L351.206 59.55ZM354.156 57.3L353.516 56.5318L353.501 56.544L353.487 56.5567L354.156 57.3ZM355.456 56.5L355.85 57.4191L355.877 57.4076L355.903 57.3944L355.456 56.5ZM356.906 57.15C357.163 57.15 357.433 57.2029 357.721 57.3231L358.49 55.4769C357.979 55.2637 357.449 55.15 356.906 55.15V57.15ZM357.79 57.3487C358.012 57.4229 358.267 57.5754 358.549 57.8571L359.963 56.4429C359.511 55.9912 358.999 55.6437 358.422 55.4513L357.79 57.3487ZM358.531 57.8389L365.231 64.8889L366.681 63.5111L359.981 56.4611L358.531 57.8389ZM365.162 63.5923C362.331 67.2919 358.781 70.0868 354.5 71.9859L355.311 73.8141C359.897 71.7798 363.714 68.7748 366.75 64.8077L365.162 63.5923ZM354.504 71.9845C350.258 73.8498 345.185 74.8 339.256 74.8V76.8C345.393 76.8 350.753 75.8169 355.308 73.8155L354.504 71.9845ZM339.256 74.8C333.836 74.8 329.005 73.8861 324.746 72.0794L323.965 73.9206C328.507 75.8473 333.609 76.8 339.256 76.8V74.8ZM324.755 72.083C320.507 70.2348 316.906 67.7127 313.938 64.5193L312.473 65.8807C315.639 69.2873 319.471 71.9652 323.957 73.917L324.755 72.083ZM313.945 64.527C311.006 61.2973 308.739 57.4795 307.147 53.061L305.265 53.739C306.94 58.3871 309.339 62.4361 312.466 65.873L313.945 64.527ZM307.147 53.0632C305.556 48.6149 304.756 43.78 304.756 38.55H302.756C302.756 43.9867 303.589 49.0518 305.264 53.7368L307.147 53.0632ZM304.756 38.55C304.756 33.2264 305.621 28.368 307.338 23.9631L305.474 23.2369C303.657 27.8987 302.756 33.0069 302.756 38.55H304.756ZM307.339 23.9608C309.06 19.5109 311.473 15.6937 314.574 12.4961L313.138 11.1039C309.839 14.5063 307.285 18.5557 305.473 23.2392L307.339 23.9608ZM314.574 12.4961C317.673 9.29987 321.39 6.80888 325.736 5.0251L324.976 3.17489C320.389 5.05778 316.439 7.70013 313.138 11.1039L314.574 12.4961ZM325.736 5.0251C330.069 3.24646 334.855 2.35 340.106 2.35V0.349998C334.623 0.349998 329.576 1.28687 324.976 3.17489L325.736 5.0251ZM340.106 2.35C342.778 2.35 345.276 2.59444 347.602 3.07898L348.01 1.12102C345.536 0.605551 342.9 0.349998 340.106 0.349998V2.35ZM347.618 3.0821C349.991 3.53721 352.192 4.1856 354.224 5.02437L354.987 3.17562C352.82 2.28106 350.488 1.59611 347.994 1.11789L347.618 3.0821ZM354.237 5.02949C356.273 5.83743 358.141 6.82055 359.844 7.97721L360.968 6.32278C359.137 5.07945 357.139 4.02923 354.975 3.1705L354.237 5.02949ZM359.844 7.97721C361.56 9.14297 363.074 10.4006 364.39 11.7485L365.821 10.3515C364.404 8.89939 362.785 7.55702 360.968 6.32278L359.844 7.97721ZM364.304 10.4525L358.604 18.1025L360.208 19.2975L365.908 11.6475L364.304 10.4525ZM358.62 18.0822C358.304 18.4839 357.926 18.8633 357.481 19.2191L358.731 20.7809C359.286 20.3366 359.775 19.8494 360.192 19.3178L358.62 18.0822ZM357.515 19.1936C357.248 19.3891 356.785 19.55 356.006 19.55V21.55C357.026 21.55 357.964 21.3442 358.697 20.8064L357.515 19.1936ZM356.006 19.55C355.56 19.55 355.147 19.4524 354.753 19.2556L353.859 21.0444C354.532 21.381 355.252 21.55 356.006 21.55V19.55ZM354.753 19.2556C354.249 19.0036 353.707 18.7012 353.127 18.3467L352.084 20.0533C352.704 20.4322 353.296 20.7631 353.859 21.0444L354.753 19.2556ZM353.161 18.3679C352.543 17.9563 351.861 17.53 351.115 17.0891L350.097 18.8109C350.818 19.2366 351.469 19.6437 352.051 20.032L353.161 18.3679ZM351.161 17.1179C350.38 16.5977 349.456 16.1481 348.4 15.7611L347.712 17.6389C348.656 17.9852 349.432 18.369 350.051 18.782L351.161 17.1179ZM348.438 15.776C347.397 15.345 346.181 14.9953 344.802 14.7194L344.41 16.6806C345.697 16.9381 346.782 17.255 347.674 17.624L348.438 15.776ZM344.807 14.7204C343.423 14.4366 341.819 14.3 340.006 14.3V16.3C341.726 16.3 343.189 16.4301 344.405 16.6796L344.807 14.7204ZM340.006 14.3C337.08 14.3 334.374 14.8406 331.901 15.9356L332.711 17.7643C334.905 16.7928 337.332 16.3 340.006 16.3V14.3ZM331.896 15.9378C329.455 17.0346 327.336 18.6439 325.544 20.7524L327.068 22.0476C328.676 20.1561 330.557 18.7321 332.716 17.7622L331.896 15.9378ZM325.543 20.7535C323.778 22.8365 322.42 25.3912 321.454 28.3936L323.358 29.0064C324.258 26.2088 325.501 23.8969 327.069 22.0465L325.543 20.7535ZM321.452 28.4005C320.515 31.3835 320.056 34.771 320.056 38.55H322.056C322.056 34.929 322.496 31.7499 323.36 28.9995L321.452 28.4005ZM320.056 38.55C320.056 42.371 320.567 45.8012 321.61 48.826L323.501 48.174C322.544 45.3988 322.056 42.1956 322.056 38.55H320.056ZM321.614 48.8356C322.682 51.8339 324.123 54.397 325.95 56.5049L327.462 55.1951C325.822 53.303 324.496 50.9661 323.498 48.1643L321.614 48.8356ZM325.962 56.5183C327.819 58.5861 329.984 60.1718 332.451 61.2643L333.261 59.4356C331.061 58.4616 329.126 57.0472 327.45 55.1817L325.962 56.5183ZM332.451 61.2643C334.918 62.3567 337.556 62.9 340.356 62.9V60.9C337.822 60.9 335.461 60.41 333.261 59.4356L332.451 61.2643ZM340.356 62.9C341.917 62.9 343.353 62.8321 344.661 62.6945L344.451 60.7055C343.225 60.8345 341.861 60.9 340.356 60.9V62.9ZM344.686 62.6915C346.001 62.5185 347.238 62.2578 348.396 61.907L347.816 59.993C346.773 60.3089 345.644 60.5482 344.425 60.7085L344.686 62.6915ZM348.422 61.8987C349.586 61.5108 350.683 61.0157 351.712 60.4127L350.7 58.6873C349.796 59.2176 348.826 59.6559 347.79 60.0013L348.422 61.8987ZM351.733 60.3996C352.758 59.7634 353.789 58.9759 354.825 58.0433L353.487 56.5567C352.523 57.4241 351.587 58.1366 350.679 58.7004L351.733 60.3996ZM354.796 58.0682C355.124 57.7953 355.474 57.58 355.85 57.4191L355.062 55.5809C354.504 55.8199 353.988 56.1381 353.516 56.5318L354.796 58.0682ZM355.903 57.3944C356.237 57.2274 356.568 57.15 356.906 57.15V55.15C356.244 55.15 355.608 55.3059 355.009 55.6056L355.903 57.3944ZM425.683 15.55V16.55H426.683V15.55H425.683ZM405.183 15.55V14.55H404.183V15.55H405.183ZM405.183 75V76H406.183V75H405.183ZM388.283 75H387.283V76H388.283V75ZM388.283 15.55H389.283V14.55H388.283V15.55ZM367.783 15.55H366.783V16.55H367.783V15.55ZM367.783 2.15V1.15H366.783V2.15H367.783ZM425.683 2.15H426.683V1.15H425.683V2.15ZM425.683 14.55H405.183V16.55H425.683V14.55ZM404.183 15.55V75H406.183V15.55H404.183ZM405.183 74H388.283V76H405.183V74ZM389.283 75V15.55H387.283V75H389.283ZM388.283 14.55H367.783V16.55H388.283V14.55ZM368.783 15.55V2.15H366.783V15.55H368.783ZM367.783 3.15H425.683V1.15H367.783V3.15ZM424.683 2.15V15.55H426.683V2.15H424.683ZM474.521 16.95L475.369 17.48L475.387 17.4514L475.402 17.4218L474.521 16.95ZM472.921 18.75L472.344 17.933L472.332 17.9413L472.321 17.95L472.921 18.75ZM468.321 18.65L467.821 19.5162L467.84 19.5274L467.86 19.5377L468.321 18.65ZM465.321 17L464.842 17.878L464.853 17.8838L465.321 17ZM461.521 15.4L461.191 16.3442L461.201 16.3476L461.211 16.3509L461.521 15.4ZM449.521 16.7L450.177 17.4546L450.178 17.4536L449.521 16.7ZM448.621 25.8L449.34 25.1054L449.34 25.1054L448.621 25.8ZM452.271 28.3L451.848 29.2062L451.855 29.2097L452.271 28.3ZM457.471 30.25L457.174 31.2051L457.184 31.2081L457.194 31.2109L457.471 30.25ZM463.471 32.2L463.131 33.1407L463.138 33.1432L463.145 33.1455L463.471 32.2ZM469.421 34.7L468.973 35.5944L468.98 35.5974L469.421 34.7ZM474.621 38.4L473.914 39.1071L473.921 39.1148L474.621 38.4ZM478.321 43.9L477.402 44.2956L477.405 44.3008L478.321 43.9ZM477.971 61.1L478.9 61.4696L478.9 61.4696L477.971 61.1ZM472.871 68.8L473.572 69.5125L473.572 69.5124L472.871 68.8ZM464.671 73.95L465.027 74.8843L465.032 74.8824L464.671 73.95ZM446.671 75.1L446.475 76.0806L446.477 76.0811L446.671 75.1ZM439.871 73.15L439.504 74.0805L439.516 74.0852L439.871 73.15ZM433.671 70.1L434.187 69.2438L434.187 69.2438L433.671 70.1ZM428.621 66.2L427.776 65.6652L427.348 66.3413L427.914 66.9071L428.621 66.2ZM433.621 58.3L432.804 57.7233L432.789 57.7439L432.776 57.7652L433.621 58.3ZM435.171 56.9L435.672 57.7654L435.679 57.7615L435.685 57.7575L435.171 56.9ZM440.321 57.25L439.786 58.0948L439.792 58.0988L439.798 58.1026L440.321 57.25ZM443.771 59.35L443.253 60.2056L443.263 60.2114L443.771 59.35ZM448.221 61.45L448.576 60.5152L448.576 60.5152L448.221 61.45ZM461.271 60.4L461.888 61.1869L461.897 61.1794L461.271 60.4ZM462.421 49.8L461.668 50.4585L461.668 50.4585L462.421 49.8ZM458.721 47.15L458.298 48.0562L458.305 48.0597L458.721 47.15ZM453.571 45.3L453.837 44.336L453.837 44.336L453.571 45.3ZM447.621 43.55L447.309 44.5002L447.316 44.5025L447.323 44.5048L447.621 43.55ZM441.671 41.15L441.223 42.0445L441.236 42.0505L441.671 41.15ZM436.471 37.4L435.748 38.0916L435.756 38.0994L435.764 38.1071L436.471 37.4ZM432.821 31.6L431.892 31.9714L431.894 31.976L432.821 31.6ZM433.071 15L433.992 15.3896L433.992 15.3896L433.071 15ZM445.771 3.19999L446.132 4.1326L446.14 4.12916L445.771 3.19999ZM462.921 1.9L462.749 2.8851L462.758 2.88663L462.766 2.88801L462.921 1.9ZM468.971 3.44999L468.625 4.38834L468.632 4.39102L468.64 4.39359L468.971 3.44999ZM474.271 5.9L473.761 6.76057L473.772 6.76666L473.782 6.7725L474.271 5.9ZM478.721 9.1L479.602 9.57175L479.967 8.88979L479.399 8.36519L478.721 9.1ZM473.673 16.42C473.219 17.1454 472.771 17.632 472.344 17.933L473.497 19.567C474.204 19.068 474.822 18.3546 475.369 17.48L473.673 16.42ZM472.321 17.95C472.006 18.1859 471.536 18.35 470.821 18.35V20.35C471.839 20.35 472.769 20.1141 473.521 19.55L472.321 17.95ZM470.821 18.35C470.257 18.35 469.583 18.178 468.781 17.7622L467.86 19.5377C468.859 20.0553 469.851 20.35 470.821 20.35V18.35ZM468.82 17.7838C467.941 17.2763 466.93 16.7204 465.789 16.1162L464.853 17.8838C465.978 18.4796 466.967 19.0236 467.821 19.5162L468.82 17.7838ZM465.8 16.1221C464.636 15.4874 463.311 14.9312 461.83 14.4491L461.211 16.3509C462.597 16.8022 463.805 17.3126 464.842 17.8779L465.8 16.1221ZM461.85 14.4558C460.291 13.9121 458.544 13.65 456.621 13.65V15.65C458.364 15.65 459.883 15.8879 461.191 16.3442L461.85 14.4558ZM456.621 13.65C453.334 13.65 450.687 14.3558 448.863 15.9464L450.178 17.4536C451.488 16.3108 453.574 15.65 456.621 15.65V13.65ZM448.865 15.9454C447.083 17.4949 446.221 19.6031 446.221 22.15H448.221C448.221 20.0969 448.892 18.5718 450.177 17.4546L448.865 15.9454ZM446.221 22.15C446.221 23.8498 446.771 25.3236 447.901 26.4946L449.34 25.1054C448.604 24.343 448.221 23.3835 448.221 22.15H446.221ZM447.901 26.4946C448.937 27.5671 450.262 28.466 451.848 29.2062L452.694 27.3938C451.28 26.734 450.171 25.9662 449.34 25.1054L447.901 26.4946ZM451.855 29.2097C453.434 29.9304 455.208 30.5949 457.174 31.2051L457.767 29.2949C455.867 28.7051 454.174 28.0696 452.686 27.3903L451.855 29.2097ZM457.194 31.2109C459.138 31.7712 461.118 32.4144 463.131 33.1407L463.81 31.2593C461.757 30.519 459.736 29.8621 457.748 29.2891L457.194 31.2109ZM463.145 33.1455C465.137 33.8311 467.079 34.6474 468.973 35.5944L469.868 33.8056C467.895 32.8193 465.871 31.9689 463.796 31.2545L463.145 33.1455ZM468.98 35.5974C470.851 36.5173 472.494 37.6873 473.914 39.1071L475.328 37.6929C473.748 36.1127 471.924 34.816 469.862 33.8025L468.98 35.5974ZM473.921 39.1148C475.353 40.515 476.515 42.2366 477.402 44.2956L479.239 43.5044C478.259 41.23 476.955 39.285 475.32 37.6852L473.921 39.1148ZM477.405 44.3008C478.269 46.2757 478.721 48.7147 478.721 51.65H480.721C480.721 48.5186 480.24 45.791 479.237 43.4992L477.405 44.3008ZM478.721 51.65C478.721 54.8986 478.158 57.9223 477.042 60.7304L478.9 61.4696C480.116 58.411 480.721 55.1347 480.721 51.65H478.721ZM477.042 60.7304C475.926 63.5359 474.303 65.9856 472.169 68.0876L473.572 69.5124C475.905 67.2144 477.682 64.5308 478.9 61.4696L477.042 60.7304ZM472.169 68.0875C470.078 70.1464 467.466 71.7937 464.309 73.0176L465.032 74.8824C468.409 73.573 471.263 71.7869 473.572 69.5125L472.169 68.0875ZM464.314 73.0157C461.215 74.1981 457.655 74.8 453.621 74.8V76.8C457.853 76.8 461.66 76.1686 465.027 74.8843L464.314 73.0157ZM453.621 74.8C451.423 74.8 449.171 74.5738 446.864 74.1189L446.477 76.0811C448.904 76.5595 451.285 76.8 453.621 76.8V74.8ZM446.867 74.1194C444.587 73.6634 442.373 73.0285 440.225 72.2148L439.516 74.0852C441.768 74.9382 444.088 75.6033 446.475 76.0806L446.867 74.1194ZM440.237 72.2196C438.087 71.3725 436.071 70.3803 434.187 69.2438L433.154 70.9562C435.137 72.1531 437.255 73.1942 439.504 74.0804L440.237 72.2196ZM434.187 69.2438C432.316 68.1143 430.698 66.8629 429.328 65.4929L427.914 66.9071C429.41 68.4037 431.159 69.7524 433.154 70.9562L434.187 69.2438ZM429.466 66.7348L434.466 58.8348L432.776 57.7652L427.776 65.6652L429.466 66.7348ZM434.438 58.8767C434.75 58.4344 435.156 58.0638 435.672 57.7654L434.67 56.0346C433.918 56.4695 433.292 57.0323 432.804 57.7233L434.438 58.8767ZM435.685 57.7575C436.199 57.4494 436.738 57.3 437.321 57.3V55.3C436.37 55.3 435.476 55.5506 434.656 56.0425L435.685 57.7575ZM437.321 57.3C438.099 57.3 438.916 57.544 439.786 58.0948L440.856 56.4052C439.726 55.6894 438.543 55.3 437.321 55.3V57.3ZM439.798 58.1026C440.833 58.7371 441.985 59.4381 443.253 60.2055L444.289 58.4945C443.023 57.7286 441.875 57.0296 440.843 56.3974L439.798 58.1026ZM443.263 60.2114C444.619 61.0114 446.155 61.7348 447.865 62.3848L448.576 60.5152C446.953 59.8985 445.522 59.2219 444.279 58.4886L443.263 60.2114ZM447.865 62.3848C449.672 63.0712 451.764 63.4 454.121 63.4V61.4C451.944 61.4 450.103 61.0955 448.576 60.5152L447.865 62.3848ZM454.121 63.4C457.32 63.4 459.951 62.7058 461.888 61.1869L460.654 59.6131C459.19 60.7609 457.055 61.4 454.121 61.4V63.4ZM461.897 61.1794C463.908 59.5626 464.821 57.0747 464.821 53.95H462.821C462.821 56.6919 462.033 58.5041 460.644 59.6206L461.897 61.1794ZM464.821 53.95C464.821 52.0585 464.297 50.4253 463.173 49.1415L461.668 50.4585C462.411 51.308 462.821 52.4415 462.821 53.95H464.821ZM463.173 49.1415C462.131 47.9499 460.774 46.9882 459.136 46.2403L458.305 48.0597C459.734 48.7118 460.844 49.5168 461.668 50.4585L463.173 49.1415ZM459.144 46.2438C457.584 45.5159 455.813 44.8812 453.837 44.336L453.305 46.264C455.195 46.7855 456.858 47.3841 458.298 48.0562L459.144 46.2438ZM453.837 44.336C451.914 43.8058 449.942 43.2255 447.918 42.5952L447.323 44.5048C449.366 45.1411 451.36 45.7276 453.305 46.264L453.837 44.336ZM447.932 42.5998C445.941 41.947 443.999 41.1636 442.105 40.2494L441.236 42.0505C443.209 43.0031 445.234 43.8197 447.309 44.5002L447.932 42.5998ZM442.118 40.2556C440.281 39.3371 438.635 38.1505 437.178 36.6929L435.764 38.1071C437.373 39.7162 439.194 41.0295 441.223 42.0444L442.118 40.2556ZM437.193 36.7084C435.792 35.2453 434.64 33.4236 433.747 31.224L431.894 31.976C432.868 34.3764 434.149 36.4214 435.748 38.0916L437.193 36.7084ZM433.749 31.2286C432.877 29.0471 432.421 26.3149 432.421 23H430.421C430.421 26.4851 430.898 29.4863 431.892 31.9714L433.749 31.2286ZM432.421 23C432.421 20.4049 432.942 17.8705 433.992 15.3896L432.15 14.6104C430.999 17.3295 430.421 20.1284 430.421 23H432.421ZM433.992 15.3896C435.036 12.9212 436.572 10.717 438.611 8.77386L437.231 7.32613C435.003 9.44965 433.305 11.8788 432.15 14.6104L433.992 15.3896ZM438.611 8.77386C440.638 6.84185 443.138 5.29127 446.132 4.13256L445.41 2.26743C442.203 3.50872 439.47 5.19148 437.231 7.32613L438.611 8.77386ZM446.14 4.12916C449.102 2.95093 452.523 2.35 456.421 2.35V0.349998C452.319 0.349998 448.64 0.982396 445.401 2.27083L446.14 4.12916ZM456.421 2.35C458.599 2.35 460.708 2.5288 462.749 2.8851L463.093 0.914903C460.933 0.537859 458.709 0.349998 456.421 0.349998V2.35ZM462.766 2.88801C464.839 3.21182 466.791 3.71263 468.625 4.38834L469.316 2.51165C467.35 1.78737 465.269 1.25485 463.075 0.911987L462.766 2.88801ZM468.64 4.39359C470.481 5.03983 472.188 5.82933 473.761 6.76057L474.78 5.03942C473.087 4.03733 471.26 3.1935 469.302 2.50639L468.64 4.39359ZM473.782 6.7725C475.386 7.67055 476.804 8.69202 478.042 9.8348L479.399 8.36519C478.037 7.10797 476.489 5.99611 474.759 5.02749L473.782 6.7725ZM477.839 8.62824L473.639 16.4782L475.402 17.4218L479.602 9.57175L477.839 8.62824Z" fill="black" fill-opacity="0.1"/>
</svg>
