<svg width="1100" height="377" viewBox="0 0 481 77" fill="none" xmlns="http://www.w3.org/2000/svg">
<path d="M47.5598 16.95C47.0598 17.75 46.5264 18.35 45.9598 18.75C45.4264 19.15 44.7264 19.35 43.8598 19.35C43.0931 19.35 42.2598 19.1167 41.3598 18.65C40.4931 18.15 39.4931 17.6 38.3598 17C37.2598 16.4 35.9931 15.8667 34.5598 15.4C33.1264 14.9 31.4931 14.65 29.6598 14.65C26.4931 14.65 24.1264 15.3333 22.5598 16.7C21.0264 18.0333 20.2598 19.85 20.2598 22.15C20.2598 23.6167 20.7264 24.8333 21.6598 25.8C22.5931 26.7667 23.8098 27.6 25.3098 28.3C26.8431 29 28.5764 29.65 30.5098 30.25C32.4764 30.8167 34.4764 31.4667 36.5098 32.2C38.5431 32.9 40.5264 33.7333 42.4598 34.7C44.4264 35.6667 46.1598 36.9 47.6598 38.4C49.1931 39.9 50.4264 41.7333 51.3598 43.9C52.2931 46.0333 52.7598 48.6167 52.7598 51.65C52.7598 55.0167 52.1764 58.1667 51.0098 61.1C49.8431 64.0333 48.1431 66.6 45.9098 68.8C43.7098 70.9667 40.9764 72.6833 37.7098 73.95C34.4764 75.1833 30.7931 75.8 26.6598 75.8C24.3931 75.8 22.0764 75.5667 19.7098 75.1C17.3764 74.6333 15.1098 73.9833 12.9098 73.15C10.7098 72.2833 8.6431 71.2667 6.70977 70.1C4.77643 68.9333 3.0931 67.6333 1.65977 66.2L6.65977 58.3C7.05977 57.7333 7.57643 57.2667 8.20977 56.9C8.87643 56.5 9.5931 56.3 10.3598 56.3C11.3598 56.3 12.3598 56.6167 13.3598 57.25C14.3931 57.8833 15.5431 58.5833 16.8098 59.35C18.1098 60.1167 19.5931 60.8167 21.2598 61.45C22.9264 62.0833 24.8931 62.4 27.1598 62.4C30.2264 62.4 32.6098 61.7333 34.3098 60.4C36.0098 59.0333 36.8598 56.8833 36.8598 53.95C36.8598 52.25 36.3931 50.8667 35.4598 49.8C34.5264 48.7333 33.2931 47.85 31.7598 47.15C30.2598 46.45 28.5431 45.8333 26.6098 45.3C24.6764 44.7667 22.6931 44.1833 20.6598 43.55C18.6264 42.8833 16.6431 42.0833 14.7098 41.15C12.7764 40.1833 11.0431 38.9333 9.50977 37.4C8.00977 35.8333 6.7931 33.9 5.85977 31.6C4.92643 29.2667 4.45977 26.4 4.45977 23C4.45977 20.2667 5.00977 17.6 6.10977 15C7.20977 12.4 8.82643 10.0833 10.9598 8.04999C13.0931 6.01666 15.7098 4.4 18.8098 3.19999C21.9098 1.96666 25.4598 1.35 29.4598 1.35C31.6931 1.35 33.8598 1.53333 35.9598 1.9C38.0931 2.23333 40.1098 2.75 42.0098 3.44999C43.9098 4.11666 45.6764 4.93333 47.3098 5.9C48.9764 6.83333 50.4598 7.9 51.7598 9.1L47.5598 16.95ZM79.5809 31.65H82.2809C84.7809 31.65 86.5809 30.8667 87.6809 29.3L104.081 5.49999C105.048 4.23333 106.081 3.36666 107.181 2.9C108.314 2.4 109.714 2.15 111.381 2.15H126.081L104.481 31.6C102.948 33.6333 101.298 35.1 99.5309 36C100.798 36.4667 101.948 37.1167 102.981 37.95C104.014 38.7833 104.981 39.8667 105.881 41.2L127.881 75H112.781C111.814 75 110.981 74.9333 110.281 74.8C109.614 74.6667 109.031 74.4667 108.531 74.2C108.031 73.9333 107.598 73.6167 107.231 73.25C106.864 72.85 106.514 72.4 106.181 71.9L89.6809 46.55C89.0809 45.6167 88.3142 44.9667 87.3809 44.6C86.4809 44.2 85.2475 44 83.6809 44H79.5809V75H62.6809V2.15H79.5809V31.65ZM150.286 75H133.286V2.15H150.286V75ZM208.241 61.5V75H164.341V2.15H181.241V61.5H208.241ZM260.78 61.5V75H216.88V2.15H233.78V61.5H260.78ZM309.669 16.95C309.169 17.75 308.636 18.35 308.069 18.75C307.536 19.15 306.836 19.35 305.969 19.35C305.202 19.35 304.369 19.1167 303.469 18.65C302.602 18.15 301.602 17.6 300.469 17C299.369 16.4 298.102 15.8667 296.669 15.4C295.236 14.9 293.602 14.65 291.769 14.65C288.602 14.65 286.236 15.3333 284.669 16.7C283.136 18.0333 282.369 19.85 282.369 22.15C282.369 23.6167 282.836 24.8333 283.769 25.8C284.702 26.7667 285.919 27.6 287.419 28.3C288.952 29 290.686 29.65 292.619 30.25C294.586 30.8167 296.586 31.4667 298.619 32.2C300.652 32.9 302.636 33.7333 304.569 34.7C306.536 35.6667 308.269 36.9 309.769 38.4C311.302 39.9 312.536 41.7333 313.469 43.9C314.402 46.0333 314.869 48.6167 314.869 51.65C314.869 55.0167 314.286 58.1667 313.119 61.1C311.952 64.0333 310.252 66.6 308.019 68.8C305.819 70.9667 303.086 72.6833 299.819 73.95C296.586 75.1833 292.902 75.8 288.769 75.8C286.502 75.8 284.186 75.5667 281.819 75.1C279.486 74.6333 277.219 73.9833 275.019 73.15C272.819 72.2833 270.752 71.2667 268.819 70.1C266.886 68.9333 265.202 67.6333 263.769 66.2L268.769 58.3C269.169 57.7333 269.686 57.2667 270.319 56.9C270.986 56.5 271.702 56.3 272.469 56.3C273.469 56.3 274.469 56.6167 275.469 57.25C276.502 57.8833 277.652 58.5833 278.919 59.35C280.219 60.1167 281.702 60.8167 283.369 61.45C285.036 62.0833 287.002 62.4 289.269 62.4C292.336 62.4 294.719 61.7333 296.419 60.4C298.119 59.0333 298.969 56.8833 298.969 53.95C298.969 52.25 298.502 50.8667 297.569 49.8C296.636 48.7333 295.402 47.85 293.869 47.15C292.369 46.45 290.652 45.8333 288.719 45.3C286.786 44.7667 284.802 44.1833 282.769 43.55C280.736 42.8833 278.752 42.0833 276.819 41.15C274.886 40.1833 273.152 38.9333 271.619 37.4C270.119 35.8333 268.902 33.9 267.969 31.6C267.036 29.2667 266.569 26.4 266.569 23C266.569 20.2667 267.119 17.6 268.219 15C269.319 12.4 270.936 10.0833 273.069 8.04999C275.202 6.01666 277.819 4.4 280.919 3.19999C284.019 1.96666 287.569 1.35 291.569 1.35C293.802 1.35 295.969 1.53333 298.069 1.9C300.202 2.23333 302.219 2.75 304.119 3.44999C306.019 4.11666 307.786 4.93333 309.419 5.9C311.086 6.83333 312.569 7.9 313.869 9.1L309.669 16.95Z" fill="" fill-opacity="0.05"/>
<path d="M47.5598 16.95L48.4078 17.48L48.4256 17.4514L48.4415 17.4218L47.5598 16.95ZM45.9598 18.75L45.3831 17.933L45.3713 17.9413L45.3598 17.95L45.9598 18.75ZM41.3598 18.65L40.86 19.5162L40.8795 19.5274L40.8994 19.5377L41.3598 18.65ZM38.3598 17L37.8809 17.878L37.8919 17.8838L38.3598 17ZM34.5598 15.4L34.2304 16.3442L34.2403 16.3476L34.2502 16.3509L34.5598 15.4ZM22.5598 16.7L23.2159 17.4546L23.2171 17.4536L22.5598 16.7ZM21.6598 25.8L22.3792 25.1054L22.3792 25.1054L21.6598 25.8ZM25.3098 28.3L24.8869 29.2062L24.8945 29.2097L25.3098 28.3ZM30.5098 30.25L30.2134 31.2051L30.2231 31.2081L30.2329 31.2109L30.5098 30.25ZM36.5098 32.2L36.1705 33.1407L36.1774 33.1432L36.1843 33.1455L36.5098 32.2ZM42.4598 34.7L42.0125 35.5944L42.0186 35.5974L42.4598 34.7ZM47.6598 38.4L46.9526 39.1071L46.9605 39.1148L47.6598 38.4ZM51.3598 43.9L50.4413 44.2956L50.4436 44.3008L51.3598 43.9ZM51.0098 61.1L51.939 61.4696L51.939 61.4696L51.0098 61.1ZM45.9098 68.8L46.6115 69.5125L46.6115 69.5124L45.9098 68.8ZM37.7098 73.95L38.0662 74.8843L38.0713 74.8824L37.7098 73.95ZM19.7098 75.1L19.5137 76.0806L19.5163 76.0811L19.7098 75.1ZM12.9098 73.15L12.5432 74.0805L12.5555 74.0852L12.9098 73.15ZM6.70977 70.1L7.22643 69.2438L7.22643 69.2438L6.70977 70.1ZM1.65977 66.2L0.814785 65.6652L0.386867 66.3413L0.952659 66.9071L1.65977 66.2ZM6.65977 58.3L5.8428 57.7233L5.82826 57.7439L5.81479 57.7652L6.65977 58.3ZM8.20977 56.9L8.7108 57.7654L8.71756 57.7615L8.72426 57.7575L8.20977 56.9ZM13.3598 57.25L12.8247 58.0948L12.8309 58.0988L12.8372 58.1026L13.3598 57.25ZM16.8098 59.35L16.2919 60.2056L16.3018 60.2114L16.8098 59.35ZM21.2598 61.45L21.615 60.5152L21.615 60.5152L21.2598 61.45ZM34.3098 60.4L34.927 61.1869L34.9363 61.1794L34.3098 60.4ZM35.4598 49.8L34.7072 50.4585L34.7072 50.4585L35.4598 49.8ZM31.7598 47.15L31.3369 48.0562L31.3445 48.0597L31.7598 47.15ZM26.6098 45.3L26.8757 44.336L26.8757 44.336L26.6098 45.3ZM20.6598 43.55L20.3482 44.5002L20.3553 44.5025L20.3624 44.5048L20.6598 43.55ZM14.7098 41.15L14.2625 42.0445L14.275 42.0505L14.7098 41.15ZM9.50977 37.4L8.78746 38.0916L8.79497 38.0994L8.80266 38.1071L9.50977 37.4ZM5.85977 31.6L4.93128 31.9714L4.93315 31.976L5.85977 31.6ZM6.10977 15L7.03073 15.3896L7.03073 15.3896L6.10977 15ZM18.8098 3.19999L19.1708 4.1326L19.1794 4.12916L18.8098 3.19999ZM35.9598 1.9L35.7878 2.8851L35.7966 2.88663L35.8054 2.88801L35.9598 1.9ZM42.0098 3.44999L41.6641 4.38834L41.6714 4.39102L41.6787 4.39359L42.0098 3.44999ZM47.3098 5.9L46.8004 6.76057L46.8107 6.76666L46.8212 6.7725L47.3098 5.9ZM51.7598 9.1L52.6415 9.57175L53.0064 8.88979L52.4381 8.36519L51.7598 9.1ZM46.7118 16.42C46.2584 17.1454 45.8096 17.632 45.3831 17.933L46.5365 19.567C47.2433 19.068 47.8611 18.3546 48.4078 17.48L46.7118 16.42ZM45.3598 17.95C45.0452 18.1859 44.5751 18.35 43.8598 18.35V20.35C44.8778 20.35 45.8077 20.1141 46.5598 19.55L45.3598 17.95ZM43.8598 18.35C43.2965 18.35 42.6219 18.178 41.8201 17.7622L40.8994 19.5377C41.8976 20.0553 42.8897 20.35 43.8598 20.35V18.35ZM41.8595 17.7838C40.9799 17.2763 39.9689 16.7204 38.8277 16.1162L37.8919 17.8838C39.0173 18.4796 40.0063 19.0236 40.86 19.5162L41.8595 17.7838ZM38.8386 16.1221C37.675 15.4874 36.3499 14.9312 34.8694 14.4491L34.2502 16.3509C35.6363 16.8022 36.8445 17.3126 37.8809 17.8779L38.8386 16.1221ZM34.8891 14.4558C33.3305 13.9121 31.5827 13.65 29.6598 13.65V15.65C31.4035 15.65 32.9223 15.8879 34.2304 16.3442L34.8891 14.4558ZM29.6598 13.65C26.3732 13.65 23.7258 14.3558 21.9024 15.9464L23.2171 17.4536C24.5271 16.3108 26.613 15.65 29.6598 15.65V13.65ZM21.9036 15.9454C20.1216 17.4949 19.2598 19.6031 19.2598 22.15H21.2598C21.2598 20.0969 21.9312 18.5718 23.2159 17.4546L21.9036 15.9454ZM19.2598 22.15C19.2598 23.8498 19.8098 25.3236 20.9404 26.4946L22.3792 25.1054C21.6431 24.343 21.2598 23.3835 21.2598 22.15H19.2598ZM20.9404 26.4946C21.9759 27.5671 23.3008 28.466 24.8869 29.2062L25.7327 27.3938C24.3187 26.734 23.2103 25.9662 22.3792 25.1054L20.9404 26.4946ZM24.8945 29.2097C26.4732 29.9304 28.2472 30.5949 30.2134 31.2051L30.8062 29.2949C28.9056 28.7051 27.213 28.0696 25.7251 27.3903L24.8945 29.2097ZM30.2329 31.2109C32.1774 31.7712 34.1566 32.4144 36.1705 33.1407L36.849 31.2593C34.7963 30.519 32.7755 29.8621 30.7866 29.2891L30.2329 31.2109ZM36.1843 33.1455C38.1757 33.8311 40.1184 34.6474 42.0126 35.5944L42.907 33.8056C40.9345 32.8193 38.9105 31.9689 36.8353 31.2545L36.1843 33.1455ZM42.0186 35.5974C43.8901 36.5173 45.5328 37.6873 46.9527 39.1071L48.3669 37.6929C46.7867 36.1127 44.9628 34.816 42.9009 33.8025L42.0186 35.5974ZM46.9605 39.1148C48.3918 40.515 49.5544 42.2366 50.4414 44.2956L52.2782 43.5044C51.2985 41.23 49.9944 39.285 48.3591 37.6852L46.9605 39.1148ZM50.4436 44.3008C51.3076 46.2757 51.7598 48.7147 51.7598 51.65H53.7598C53.7598 48.5186 53.2786 45.791 52.2759 43.4992L50.4436 44.3008ZM51.7598 51.65C51.7598 54.8986 51.1974 57.9223 50.0806 60.7304L51.939 61.4696C53.1555 58.411 53.7598 55.1347 53.7598 51.65H51.7598ZM50.0806 60.7304C48.9648 63.5359 47.3419 65.9856 45.208 68.0876L46.6115 69.5124C48.9443 67.2144 50.7214 64.5308 51.939 61.4696L50.0806 60.7304ZM45.2081 68.0875C43.1175 70.1464 40.5048 71.7937 37.3482 73.0176L38.0713 74.8824C41.4481 73.573 44.302 71.7869 46.6115 69.5125L45.2081 68.0875ZM37.3534 73.0157C34.2536 74.1981 30.6944 74.8 26.6598 74.8V76.8C30.8918 76.8 34.6993 76.1686 38.0662 74.8843L37.3534 73.0157ZM26.6598 74.8C24.4621 74.8 22.2102 74.5738 19.9032 74.1189L19.5163 76.0811C21.9426 76.5595 24.3241 76.8 26.6598 76.8V74.8ZM19.9059 74.1194C17.6258 73.6634 15.412 73.0285 13.264 72.2148L12.5555 74.0852C14.8075 74.9382 17.1271 75.6033 19.5137 76.0806L19.9059 74.1194ZM13.2763 72.2196C11.1259 71.3725 9.10969 70.3803 7.22643 69.2438L6.1931 70.9562C8.17651 72.1531 10.2936 73.1942 12.5432 74.0804L13.2763 72.2196ZM7.22643 69.2438C5.35462 68.1143 3.73692 66.8629 2.36687 65.4929L0.952659 66.9071C2.44928 68.4037 4.19825 69.7524 6.1931 70.9562L7.22643 69.2438ZM2.50475 66.7348L7.50475 58.8348L5.81479 57.7652L0.814785 65.6652L2.50475 66.7348ZM7.47673 58.8767C7.78894 58.4344 8.19536 58.0638 8.7108 57.7654L7.70873 56.0346C6.95751 56.4695 6.33059 57.0323 5.8428 57.7233L7.47673 58.8767ZM8.72426 57.7575C9.23782 57.4494 9.77701 57.3 10.3598 57.3V55.3C9.40919 55.3 8.51505 55.5506 7.69527 56.0425L8.72426 57.7575ZM10.3598 57.3C11.1379 57.3 11.955 57.544 12.8247 58.0948L13.8948 56.4052C12.7646 55.6894 11.5817 55.3 10.3598 55.3V57.3ZM12.8372 58.1026C13.8724 58.7371 15.024 59.4381 16.292 60.2055L17.3276 58.4945C16.0622 57.7286 14.9138 57.0296 13.8823 56.3974L12.8372 58.1026ZM16.3018 60.2114C17.6583 61.0114 19.1942 61.7348 20.9045 62.3848L21.615 60.5152C19.992 59.8985 18.5612 59.2219 17.3178 58.4886L16.3018 60.2114ZM20.9045 62.3848C22.7108 63.0712 24.8032 63.4 27.1598 63.4V61.4C24.983 61.4 23.1421 61.0955 21.615 60.5152L20.9045 62.3848ZM27.1598 63.4C30.3586 63.4 32.9902 62.7058 34.9269 61.1869L33.6926 59.6131C32.2293 60.7609 30.0943 61.4 27.1598 61.4V63.4ZM34.9363 61.1794C36.9475 59.5626 37.8598 57.0747 37.8598 53.95H35.8598C35.8598 56.6919 35.0721 58.5041 33.6832 59.6206L34.9363 61.1794ZM37.8598 53.95C37.8598 52.0585 37.3357 50.4253 36.2123 49.1415L34.7072 50.4585C35.4505 51.308 35.8598 52.4415 35.8598 53.95H37.8598ZM36.2123 49.1415C35.1697 47.9499 33.8133 46.9882 32.1751 46.2403L31.3445 48.0597C32.7729 48.7118 33.8832 49.5168 34.7072 50.4585L36.2123 49.1415ZM32.1827 46.2438C30.6228 45.5159 28.852 44.8812 26.8757 44.336L26.3438 46.264C28.2342 46.7855 29.8968 47.3841 31.3369 48.0562L32.1827 46.2438ZM26.8757 44.336C24.9535 43.8058 22.9807 43.2255 20.9572 42.5952L20.3624 44.5048C22.4055 45.1411 24.3993 45.7276 26.3438 46.264L26.8757 44.336ZM20.9713 42.5998C18.9802 41.947 17.0381 41.1636 15.1445 40.2494L14.275 42.0505C16.2481 43.0031 18.2726 43.8197 20.3482 44.5002L20.9713 42.5998ZM15.157 40.2556C13.3201 39.3371 11.6745 38.1505 10.2169 36.6929L8.80266 38.1071C10.4117 39.7162 12.2328 41.0295 14.2626 42.0444L15.157 40.2556ZM10.2321 36.7084C8.8312 35.2453 7.67897 33.4236 6.78638 31.224L4.93315 31.976C5.90723 34.3764 7.18833 36.4214 8.78746 38.0916L10.2321 36.7084ZM6.78824 31.2286C5.91563 29.0471 5.45977 26.3149 5.45977 23H3.45977C3.45977 26.4851 3.93724 29.4863 4.93129 31.9714L6.78824 31.2286ZM5.45977 23C5.45977 20.4049 5.98114 17.8705 7.03073 15.3896L5.1888 14.6104C4.03839 17.3295 3.45977 20.1284 3.45977 23H5.45977ZM7.03073 15.3896C8.07507 12.9212 9.611 10.717 11.6497 8.77386L10.2698 7.32613C8.04187 9.44965 6.34447 11.8788 5.1888 14.6104L7.03073 15.3896ZM11.6497 8.77386C13.6767 6.84185 16.1774 5.29127 19.1708 4.13256L18.4488 2.26743C15.2421 3.50872 12.5095 5.19148 10.2698 7.32613L11.6497 8.77386ZM19.1794 4.12916C22.1409 2.95093 25.5618 2.35 29.4598 2.35V0.349998C25.3578 0.349998 21.6786 0.982396 18.4401 2.27083L19.1794 4.12916ZM29.4598 2.35C31.6382 2.35 33.7472 2.5288 35.7878 2.8851L36.1318 0.914903C33.9723 0.537859 31.748 0.349998 29.4598 0.349998V2.35ZM35.8054 2.88801C37.8778 3.21182 39.83 3.71263 41.6641 4.38834L42.3555 2.51165C40.3895 1.78737 38.3084 1.25485 36.1141 0.911987L35.8054 2.88801ZM41.6787 4.39359C43.5204 5.03983 45.227 5.82933 46.8004 6.76057L47.8191 5.03942C46.1259 4.03733 44.2991 3.1935 42.3409 2.50639L41.6787 4.39359ZM46.8212 6.7725C48.4248 7.67055 49.8435 8.69202 51.0815 9.8348L52.4381 8.36519C51.0761 7.10797 49.528 5.99611 47.7984 5.02749L46.8212 6.7725ZM50.878 8.62824L46.678 16.4782L48.4415 17.4218L52.6415 9.57175L50.878 8.62824ZM79.5809 31.65H78.5809V32.65H79.5809V31.65ZM87.6809 29.3L88.4993 29.8747L88.5043 29.8674L87.6809 29.3ZM104.081 5.49999L103.286 4.89332L103.271 4.91261L103.257 4.93259L104.081 5.49999ZM107.181 2.9L107.571 3.82058L107.578 3.8178L107.584 3.81492L107.181 2.9ZM126.081 2.15L126.887 2.74142L128.054 1.15H126.081V2.15ZM104.481 31.6L105.279 32.2021L105.287 32.1914L104.481 31.6ZM99.5309 36L99.0769 35.109L97.0384 36.1474L99.1852 36.9383L99.5309 36ZM102.981 37.95L103.609 37.1716L103.609 37.1716L102.981 37.95ZM105.881 41.2L106.719 40.6545L106.714 40.6475L106.71 40.6405L105.881 41.2ZM127.881 75V76H129.725L128.719 74.4545L127.881 75ZM110.281 74.8L110.085 75.7806L110.094 75.7823L110.281 74.8ZM108.531 74.2L109.001 73.3176L109.001 73.3176L108.531 74.2ZM107.231 73.25L106.494 73.9257L106.508 73.9417L106.524 73.9571L107.231 73.25ZM106.181 71.9L105.343 72.4455L105.349 72.4547L106.181 71.9ZM89.6809 46.55L88.8397 47.0908L88.8428 47.0955L89.6809 46.55ZM87.3809 44.6L86.9747 45.5138L86.9948 45.5227L87.0152 45.5307L87.3809 44.6ZM79.5809 44V43H78.5809V44H79.5809ZM79.5809 75V76H80.5809V75H79.5809ZM62.6809 75H61.6809V76H62.6809V75ZM62.6809 2.15V1.15H61.6809V2.15H62.6809ZM79.5809 2.15H80.5809V1.15H79.5809V2.15ZM79.5809 32.65H82.2809V30.65H79.5809V32.65ZM82.2809 32.65C84.9964 32.65 87.1566 31.7869 88.4993 29.8746L86.8624 28.7254C86.0051 29.9464 84.5653 30.65 82.2809 30.65V32.65ZM88.5043 29.8674L104.904 6.0674L103.257 4.93259L86.8574 28.7326L88.5043 29.8674ZM104.876 6.10667C105.771 4.93353 106.676 4.20056 107.571 3.82058L106.79 1.97942C105.486 2.53277 104.324 3.53313 103.286 4.89332L104.876 6.10667ZM107.584 3.81492C108.555 3.38683 109.808 3.15 111.381 3.15V1.15C109.621 1.15 108.074 1.41316 106.777 1.98508L107.584 3.81492ZM111.381 3.15H126.081V1.15H111.381V3.15ZM125.274 1.55858L103.675 31.0086L105.287 32.1914L126.887 2.74142L125.274 1.55858ZM103.682 30.9979C102.215 32.9433 100.675 34.2946 99.0769 35.109L99.9848 36.891C101.92 35.9054 103.68 34.3233 105.279 32.2021L103.682 30.9979ZM99.1852 36.9383C100.351 37.368 101.406 37.9645 102.353 38.7284L103.609 37.1716C102.489 36.2688 101.244 35.5653 99.8766 35.0617L99.1852 36.9383ZM102.353 38.7284C103.294 39.4876 104.196 40.4919 105.052 41.7595L106.71 40.6405C105.765 39.2415 104.734 38.0791 103.609 37.1716L102.353 38.7284ZM105.043 41.7455L127.043 75.5455L128.719 74.4545L106.719 40.6545L105.043 41.7455ZM127.881 74H112.781V76H127.881V74ZM112.781 74C111.856 74 111.089 73.9359 110.468 73.8177L110.094 75.7823C110.873 75.9307 111.772 76 112.781 76V74ZM110.477 73.8194C109.888 73.7015 109.4 73.5302 109.001 73.3176L108.06 75.0824C108.662 75.4031 109.341 75.6318 110.085 75.7806L110.477 73.8194ZM109.001 73.3176C108.58 73.0931 108.229 72.8336 107.938 72.5429L106.524 73.9571C106.966 74.3997 107.481 74.7735 108.06 75.0824L109.001 73.3176ZM107.968 72.5743C107.64 72.2159 107.321 71.8071 107.013 71.3453L105.349 72.4547C105.708 72.9929 106.089 73.4841 106.494 73.9257L107.968 72.5743ZM107.019 71.3545L90.519 46.0045L88.8428 47.0955L105.343 72.4455L107.019 71.3545ZM90.522 46.0092C89.8211 44.9189 88.8962 44.1209 87.7465 43.6692L87.0152 45.5307C87.7322 45.8124 88.3406 46.3144 88.8397 47.0908L90.522 46.0092ZM87.787 43.6862C86.7058 43.2057 85.3141 43 83.6809 43V45C85.181 45 86.2559 45.1943 86.9747 45.5138L87.787 43.6862ZM83.6809 43H79.5809V45H83.6809V43ZM78.5809 44V75H80.5809V44H78.5809ZM79.5809 74H62.6809V76H79.5809V74ZM63.6809 75V2.15H61.6809V75H63.6809ZM62.6809 3.15H79.5809V1.15H62.6809V3.15ZM78.5809 2.15V31.65H80.5809V2.15H78.5809ZM150.286 75V76H151.286V75H150.286ZM133.286 75H132.286V76H133.286V75ZM133.286 2.15V1.15H132.286V2.15H133.286ZM150.286 2.15H151.286V1.15H150.286V2.15ZM150.286 74H133.286V76H150.286V74ZM134.286 75V2.15H132.286V75H134.286ZM133.286 3.15H150.286V1.15H133.286V3.15ZM149.286 2.15V75H151.286V2.15H149.286ZM208.241 61.5H209.241V60.5H208.241V61.5ZM208.241 75V76H209.241V75H208.241ZM164.341 75H163.341V76H164.341V75ZM164.341 2.15V1.15H163.341V2.15H164.341ZM181.241 2.15H182.241V1.15H181.241V2.15ZM181.241 61.5H180.241V62.5H181.241V61.5ZM207.241 61.5V75H209.241V61.5H207.241ZM208.241 74H164.341V76H208.241V74ZM165.341 75V2.15H163.341V75H165.341ZM164.341 3.15H181.241V1.15H164.341V3.15ZM180.241 2.15V61.5H182.241V2.15H180.241ZM181.241 62.5H208.241V60.5H181.241V62.5ZM260.78 61.5H261.78V60.5H260.78V61.5ZM260.78 75V76H261.78V75H260.78ZM216.88 75H215.88V76H216.88V75ZM216.88 2.15V1.15H215.88V2.15H216.88ZM233.78 2.15H234.78V1.15H233.78V2.15ZM233.78 61.5H232.78V62.5H233.78V61.5ZM259.78 61.5V75H261.78V61.5H259.78ZM260.78 74H216.88V76H260.78V74ZM217.88 75V2.15H215.88V75H217.88ZM216.88 3.15H233.78V1.15H216.88V3.15ZM232.78 2.15V61.5H234.78V2.15H232.78ZM233.78 62.5H260.78V60.5H233.78V62.5ZM309.669 16.95L310.517 17.48L310.535 17.4514L310.551 17.4218L309.669 16.95ZM308.069 18.75L307.492 17.933L307.481 17.9413L307.469 17.95L308.069 18.75ZM303.469 18.65L302.969 19.5162L302.989 19.5274L303.009 19.5377L303.469 18.65ZM300.469 17L299.99 17.878L300.001 17.8838L300.469 17ZM296.669 15.4L296.34 16.3442L296.35 16.3476L296.36 16.3509L296.669 15.4ZM284.669 16.7L285.325 17.4546L285.327 17.4536L284.669 16.7ZM283.769 25.8L284.489 25.1054L284.489 25.1054L283.769 25.8ZM287.419 28.3L286.996 29.2062L287.004 29.2097L287.419 28.3ZM292.619 30.25L292.323 31.2051L292.332 31.2081L292.342 31.2109L292.619 30.25ZM298.619 32.2L298.28 33.1407L298.287 33.1432L298.294 33.1455L298.619 32.2ZM304.569 34.7L304.122 35.5944L304.128 35.5974L304.569 34.7ZM309.769 38.4L309.062 39.1071L309.07 39.1148L309.769 38.4ZM313.469 43.9L312.551 44.2956L312.553 44.3008L313.469 43.9ZM313.119 61.1L314.048 61.4696L314.048 61.4696L313.119 61.1ZM308.019 68.8L308.721 69.5125L308.721 69.5124L308.019 68.8ZM299.819 73.95L300.176 74.8843L300.181 74.8824L299.819 73.95ZM281.819 75.1L281.623 76.0806L281.626 76.0811L281.819 75.1ZM275.019 73.15L274.653 74.0805L274.665 74.0852L275.019 73.15ZM268.819 70.1L269.336 69.2438L269.336 69.2438L268.819 70.1ZM263.769 66.2L262.924 65.6652L262.496 66.3413L263.062 66.9071L263.769 66.2ZM268.769 58.3L267.952 57.7233L267.938 57.7439L267.924 57.7652L268.769 58.3ZM270.319 56.9L270.82 57.7654L270.827 57.7615L270.834 57.7575L270.319 56.9ZM275.469 57.25L274.934 58.0948L274.94 58.0988L274.947 58.1026L275.469 57.25ZM278.919 59.35L278.401 60.2056L278.411 60.2114L278.919 59.35ZM283.369 61.45L283.724 60.5152L283.724 60.5152L283.369 61.45ZM296.419 60.4L297.036 61.1869L297.046 61.1794L296.419 60.4ZM297.569 49.8L296.817 50.4585L296.817 50.4585L297.569 49.8ZM293.869 47.15L293.446 48.0562L293.454 48.0597L293.869 47.15ZM288.719 45.3L288.985 44.336L288.985 44.336L288.719 45.3ZM282.769 43.55L282.458 44.5002L282.465 44.5025L282.472 44.5048L282.769 43.55ZM276.819 41.15L276.372 42.0445L276.384 42.0505L276.819 41.15ZM271.619 37.4L270.897 38.0916L270.904 38.0994L270.912 38.1071L271.619 37.4ZM267.969 31.6L267.041 31.9714L267.043 31.976L267.969 31.6ZM268.219 15L269.14 15.3896L269.14 15.3896L268.219 15ZM280.919 3.19999L281.28 4.1326L281.289 4.12916L280.919 3.19999ZM298.069 1.9L297.897 2.8851L297.906 2.88663L297.915 2.88801L298.069 1.9ZM304.119 3.44999L303.773 4.38834L303.781 4.39102L303.788 4.39359L304.119 3.44999ZM309.419 5.9L308.91 6.76057L308.92 6.76666L308.931 6.7725L309.419 5.9ZM313.869 9.1L314.751 9.57175L315.116 8.88979L314.547 8.36519L313.869 9.1ZM308.821 16.42C308.368 17.1454 307.919 17.632 307.492 17.933L308.646 19.567C309.353 19.068 309.971 18.3546 310.517 17.48L308.821 16.42ZM307.469 17.95C307.155 18.1859 306.684 18.35 305.969 18.35V20.35C306.987 20.35 307.917 20.1141 308.669 19.55L307.469 17.95ZM305.969 18.35C305.406 18.35 304.731 18.178 303.929 17.7622L303.009 19.5377C304.007 20.0553 304.999 20.35 305.969 20.35V18.35ZM303.969 17.7838C303.089 17.2763 302.078 16.7204 300.937 16.1162L300.001 17.8838C301.127 18.4796 302.116 19.0236 302.969 19.5162L303.969 17.7838ZM300.948 16.1221C299.784 15.4874 298.459 14.9312 296.979 14.4491L296.36 16.3509C297.746 16.8022 298.954 17.3126 299.99 17.8779L300.948 16.1221ZM296.999 14.4558C295.44 13.9121 293.692 13.65 291.769 13.65V15.65C293.513 15.65 295.032 15.8879 296.34 16.3442L296.999 14.4558ZM291.769 13.65C288.483 13.65 285.835 14.3558 284.012 15.9464L285.327 17.4536C286.636 16.3108 288.722 15.65 291.769 15.65V13.65ZM284.013 15.9454C282.231 17.4949 281.369 19.6031 281.369 22.15H283.369C283.369 20.0969 284.041 18.5718 285.325 17.4546L284.013 15.9454ZM281.369 22.15C281.369 23.8498 281.919 25.3236 283.05 26.4946L284.489 25.1054C283.752 24.343 283.369 23.3835 283.369 22.15H281.369ZM283.05 26.4946C284.085 27.5671 285.41 28.466 286.996 29.2062L287.842 27.3938C286.428 26.734 285.32 25.9662 284.489 25.1054L283.05 26.4946ZM287.004 29.2097C288.583 29.9304 290.357 30.5949 292.323 31.2051L292.916 29.2949C291.015 28.7051 289.322 28.0696 287.834 27.3903L287.004 29.2097ZM292.342 31.2109C294.287 31.7712 296.266 32.4144 298.28 33.1407L298.958 31.2593C296.906 30.519 294.885 29.8621 292.896 29.2891L292.342 31.2109ZM298.294 33.1455C300.285 33.8311 302.228 34.6474 304.122 35.5944L305.016 33.8056C303.044 32.8193 301.02 31.9689 298.945 31.2545L298.294 33.1455ZM304.128 35.5974C305.999 36.5173 307.642 37.6873 309.062 39.1071L310.476 37.6929C308.896 36.1127 307.072 34.816 305.01 33.8025L304.128 35.5974ZM309.07 39.1148C310.501 40.515 311.664 42.2366 312.551 44.2956L314.388 43.5044C313.408 41.23 312.104 39.285 310.468 37.6852L309.07 39.1148ZM312.553 44.3008C313.417 46.2757 313.869 48.7147 313.869 51.65H315.869C315.869 48.5186 315.388 45.791 314.385 43.4992L312.553 44.3008ZM313.869 51.65C313.869 54.8986 313.307 57.9223 312.19 60.7304L314.048 61.4696C315.265 58.411 315.869 55.1347 315.869 51.65H313.869ZM312.19 60.7304C311.074 63.5359 309.451 65.9856 307.317 68.0876L308.721 69.5124C311.054 67.2144 312.831 64.5308 314.048 61.4696L312.19 60.7304ZM307.317 68.0875C305.227 70.1464 302.614 71.7937 299.458 73.0176L300.181 74.8824C303.557 73.573 306.411 71.7869 308.721 69.5125L307.317 68.0875ZM299.463 73.0157C296.363 74.1981 292.804 74.8 288.769 74.8V76.8C293.001 76.8 296.809 76.1686 300.176 74.8843L299.463 73.0157ZM288.769 74.8C286.571 74.8 284.32 74.5738 282.013 74.1189L281.626 76.0811C284.052 76.5595 286.434 76.8 288.769 76.8V74.8ZM282.015 74.1194C279.735 73.6634 277.521 73.0285 275.373 72.2148L274.665 74.0852C276.917 74.9382 279.236 75.6033 281.623 76.0806L282.015 74.1194ZM275.386 72.2196C273.235 71.3725 271.219 70.3803 269.336 69.2438L268.302 70.9562C270.286 72.1531 272.403 73.1942 274.653 74.0804L275.386 72.2196ZM269.336 69.2438C267.464 68.1143 265.846 66.8629 264.476 65.4929L263.062 66.9071C264.559 68.4037 266.308 69.7524 268.302 70.9562L269.336 69.2438ZM264.614 66.7348L269.614 58.8348L267.924 57.7652L262.924 65.6652L264.614 66.7348ZM269.586 58.8767C269.898 58.4344 270.305 58.0638 270.82 57.7654L269.818 56.0346C269.067 56.4695 268.44 57.0323 267.952 57.7233L269.586 58.8767ZM270.834 57.7575C271.347 57.4494 271.886 57.3 272.469 57.3V55.3C271.519 55.3 270.624 55.5506 269.805 56.0425L270.834 57.7575ZM272.469 57.3C273.247 57.3 274.064 57.544 274.934 58.0948L276.004 56.4052C274.874 55.6894 273.691 55.3 272.469 55.3V57.3ZM274.947 58.1026C275.982 58.7371 277.133 59.4381 278.401 60.2055L279.437 58.4945C278.172 57.7286 277.023 57.0296 275.992 56.3974L274.947 58.1026ZM278.411 60.2114C279.768 61.0114 281.304 61.7348 283.014 62.3848L283.724 60.5152C282.101 59.8985 280.671 59.2219 279.427 58.4886L278.411 60.2114ZM283.014 62.3848C284.82 63.0712 286.913 63.4 289.269 63.4V61.4C287.092 61.4 285.251 61.0955 283.724 60.5152L283.014 62.3848ZM289.269 63.4C292.468 63.4 295.1 62.7058 297.036 61.1869L295.802 59.6131C294.339 60.7609 292.204 61.4 289.269 61.4V63.4ZM297.046 61.1794C299.057 59.5626 299.969 57.0747 299.969 53.95H297.969C297.969 56.6919 297.181 58.5041 295.793 59.6206L297.046 61.1794ZM299.969 53.95C299.969 52.0585 299.445 50.4253 298.322 49.1415L296.817 50.4585C297.56 51.308 297.969 52.4415 297.969 53.95H299.969ZM298.322 49.1415C297.279 47.9499 295.923 46.9882 294.284 46.2403L293.454 48.0597C294.882 48.7118 295.993 49.5168 296.817 50.4585L298.322 49.1415ZM294.292 46.2438C292.732 45.5159 290.961 44.8812 288.985 44.336L288.453 46.264C290.344 46.7855 292.006 47.3841 293.446 48.0562L294.292 46.2438ZM288.985 44.336C287.063 43.8058 285.09 43.2255 283.067 42.5952L282.472 44.5048C284.515 45.1411 286.509 45.7276 288.453 46.264L288.985 44.336ZM283.081 42.5998C281.09 41.947 279.147 41.1636 277.254 40.2494L276.384 42.0505C278.358 43.0031 280.382 43.8197 282.458 44.5002L283.081 42.5998ZM277.266 40.2556C275.429 39.3371 273.784 38.1505 272.326 36.6929L270.912 38.1071C272.521 39.7162 274.342 41.0295 276.372 42.0444L277.266 40.2556ZM272.341 36.7084C270.941 35.2453 269.788 33.4236 268.896 31.224L267.043 31.976C268.017 34.3764 269.298 36.4214 270.897 38.0916L272.341 36.7084ZM268.898 31.2286C268.025 29.0471 267.569 26.3149 267.569 23H265.569C265.569 26.4851 266.047 29.4863 267.041 31.9714L268.898 31.2286ZM267.569 23C267.569 20.4049 268.091 17.8705 269.14 15.3896L267.298 14.6104C266.148 17.3295 265.569 20.1284 265.569 23H267.569ZM269.14 15.3896C270.184 12.9212 271.72 10.717 273.759 8.77386L272.379 7.32613C270.151 9.44965 268.454 11.8788 267.298 14.6104L269.14 15.3896ZM273.759 8.77386C275.786 6.84185 278.287 5.29127 281.28 4.13256L280.558 2.26743C277.351 3.50872 274.619 5.19148 272.379 7.32613L273.759 8.77386ZM281.289 4.12916C284.25 2.95093 287.671 2.35 291.569 2.35V0.349998C287.467 0.349998 283.788 0.982396 280.549 2.27083L281.289 4.12916ZM291.569 2.35C293.748 2.35 295.857 2.5288 297.897 2.8851L298.241 0.914903C296.082 0.537859 293.857 0.349998 291.569 0.349998V2.35ZM297.915 2.88801C299.987 3.21182 301.939 3.71263 303.773 4.38834L304.465 2.51165C302.499 1.78737 300.418 1.25485 298.224 0.911987L297.915 2.88801ZM303.788 4.39359C305.63 5.03983 307.336 5.82933 308.91 6.76057L309.928 5.03942C308.235 4.03733 306.408 3.1935 304.45 2.50639L303.788 4.39359ZM308.931 6.7725C310.534 7.67055 311.953 8.69202 313.191 9.8348L314.547 8.36519C313.185 7.10797 311.637 5.99611 309.908 5.02749L308.931 6.7725ZM312.987 8.62824L308.787 16.4782L310.551 17.4218L314.751 9.57175L312.987 8.62824Z" fill="black" fill-opacity="0.1"/>
</svg>
